<svg id="Capa_1" data-name="Capa 1" xmlns="http://www.w3.org/2000/svg" viewBox="0 0 1200 500"><title>chinchudoLogo</title><path d="M146.29,137.78c-6,1.4-10.82-5.14-12.54-10-2.4-6.83-2.8-14.3-6.48-20.68-3-5.19-7.91-8.77-12.88-11.92-4.55-2.89-9.53-5.52-13.07-9.69s-3.81-9.93-5.93-14.87c-2.5-5.78-8.63-9-14.57-6-5.78,3-8.43,9.9-10.47,15.66q-4.21,12-8.1,24A921.39,921.39,0,0,0,36.8,201.18q-2.52,12.27-4.7,24.6Q31,231.87,30,238c-.65,4-1.64,8.15-1.55,12.21s1.76,7.42,4.3,10.58a39.15,39.15,0,0,1,5.53,8.15c2.57,5.59,3.15,11.91,3.3,18,.34,13.55-1.43,27.51,4,40.34s16.06,22,26.89,30.09c2.68,2,5.41,3.92,8.15,5.84a3,3,0,0,0,4.11-1.08c1.45-3.13,3.87-7.56,7.45-8.63,4.11-1.23,5,5.74,5.17,8.46.32,5.53-.79,11-1,16.53a29.55,29.55,0,0,0,2,12.31c1.89,4.6,5.1,8.25,9.86,9.93a3,3,0,0,0,3.69-3.69c-2.37-6.92,3.08-15.4,10.55-15.63a3,3,0,0,0,2.89-3.8c-1.6-6.85,1.14-13.63,3.94-19.78,3.24-7.11,6.72-14,7.81-21.86,1.2-8.62.28-17.27-.52-25.89l-2.51-26.88c-.84-9-.71-19-5.17-27-1.87-3.38-7-.36-5.18,3a29.4,29.4,0,0,1,3,10.6c.53,4.23.84,8.5,1.24,12.76l2.45,26.22c.79,8.52,1.94,17.24.83,25.79-1,7.43-4.35,14-7.4,20.73-3.44,7.58-6.29,15.54-4.33,23.92l2.9-3.8c-11.16.34-20,12.52-16.33,23.23l3.69-3.69c-3.57-1.27-5.56-4.8-6.55-8.25-1.36-4.71-.89-9.54-.41-14.36.58-5.76,1.23-11.92-.74-17.51-1.71-4.84-6.1-8.69-11.5-7.12-5.18,1.52-8.89,6.74-11,11.4l4.1-1.08c-10.61-7.42-21.76-15.3-28.93-26.32a42.88,42.88,0,0,1-6.54-17.39c-.94-6.51-.69-13.16-.6-19.71s.06-13.27-1.23-19.78a37.49,37.49,0,0,0-8.35-17,17.57,17.57,0,0,1-2.91-4.19,11.13,11.13,0,0,1-.62-5.12c.25-3.81,1.09-7.63,1.71-11.38q2-12.21,4.38-24.34a920.6,920.6,0,0,1,23.73-95Q67.91,106,71.8,94.47q2-5.86,4-11.69a40.85,40.85,0,0,1,3.9-8.84c1.19-1.85,3-4.1,5.25-4.52,2-.35,3.54,1,4.47,2.6,1.27,2.24,1.76,4.89,2.44,7.35A26.63,26.63,0,0,0,95,87c6.23,9.54,18.36,12.13,25.43,20.72,4.25,5.15,4.87,12.26,6.55,18.49,1.73,6.41,5.23,13.06,11.42,16.18a13.71,13.71,0,0,0,9.45,1.19c3.76-.89,2.17-6.67-1.59-5.79Z"/><path d="M118.28,260.38c1.83,10-1.35,20.1-4.42,29.5q-5,15.24-10.34,30.34-3,8.53-6.15,17A3,3,0,0,0,99.46,341a3.06,3.06,0,0,0,3.69-2.09q5.67-15.41,11-30.92,2.66-7.77,5.21-15.56a129,129,0,0,0,4.3-15.29,48.83,48.83,0,0,0,.43-18.31,3,3,0,0,0-3.69-2.09,3.07,3.07,0,0,0-2.1,3.69Z"/><path d="M98.83,336.77a7.15,7.15,0,0,1-2.06-2.08,17.07,17.07,0,0,1-.85-1.57c-.26-.52-.09-.17,0-.05l-.15-.4c-.14-.36-.27-.71-.39-1.08-.91-2.73-1.4-5.57-2.17-8.34a20.64,20.64,0,0,0-3.88-8,13.2,13.2,0,0,0-8-4.24c-3.13-.51-6.29-.41-9.43-.78.5.06-.38-.06-.52-.08l-1-.22c-.31-.08-.62-.18-.93-.29s0,0,.08.05c-.2-.09-.41-.19-.6-.3s-.83-.54-.4-.21a6,6,0,0,1-.69-.65c-.23-.24,0,0,0,.06a5.25,5.25,0,0,1-.33-.49,4.66,4.66,0,0,1-.49-1.2,17.5,17.5,0,0,1-.12-5.55c.13-2,.33-3.94.62-5.89.59-4.14,1.43-8.23,2.36-12.31,3.64-16,8.94-32.73,5.24-49.27a79.25,79.25,0,0,0-4-11.73c-1.38-3.51-2.88-7.25-3-11.06s1.57-6.51,3.93-9.28a44.16,44.16,0,0,0,6.5-9.38c6.73-14,4.49-30.27,1.38-44.88q-.57-2.69-1.2-5.35a3,3,0,1,0-5.78,1.59c3.25,14,6.57,29.75,1.29,43.6A31,31,0,0,1,69,196.16c-2.67,3.16-5.45,6.26-6.41,10.42-2,8.41,2.68,16.3,5.34,24,5.48,15.77.53,32.4-3.14,48-1.95,8.3-3.85,16.83-4,25.39-.08,4.12,1.12,8.14,4.75,10.43,2.68,1.7,6,1.93,9.12,2.09,1.54.07,3.08.12,4.61.29.36,0,.05,0,0,0l.61.09,1.06.22c.34.08.68.18,1,.29l.43.14c.5.18-.58-.3.25.11a9.84,9.84,0,0,1,.9.5c.13.08.8.6.4.27a6.2,6.2,0,0,1,.6.55c.12.12.25.25.37.39s.49.61.27.32a13.92,13.92,0,0,1,1.5,2.88c2,5.39,2.11,11.6,5.72,16.31A13.25,13.25,0,0,0,95.8,342c3.27,2.08,6.28-3.11,3-5.18Z"/><path d="M75.39,135.85a1.92,1.92,0,0,1,2.41-.1c.22.33.24.35,0,.06s-.16-.29,0,0c-.08-.35-.1-.33,0,0a2.77,2.77,0,0,1,0-.5c.54.35-1,1,0,.53-.33.15.89-.41.54-.27a12.64,12.64,0,0,1,1.4-.43,21,21,0,0,0,3.19-1.07c3.81-1.71,5.91-5.7,6.73-9.62s.2-8.5,1.77-12.36A5.23,5.23,0,0,1,94.45,109c-.31.13.66-.19.78-.22.37-.07.41-.08.12,0,.2,0,.4,0,.61,0,.37,0,.4,0,.09,0a4,4,0,0,1,.57.16c-.59-.22.64.47.25.15L96,106.89A125.26,125.26,0,0,0,97,138c.25,1.61,2.26,2.49,3.69,2.1a3.08,3.08,0,0,0,2.1-3.69,117.23,117.23,0,0,1-1.31-21.34c0-1.61.12-3.22.23-4.83.07-1,.2-1.92.23-2.89a3.49,3.49,0,0,0-1.68-3.27,8.34,8.34,0,0,0-7.83-.72,11.39,11.39,0,0,0-6.23,5.76c-1.45,3.15-1.71,6.57-2,10-.17,2.48-.39,5.08-1.59,7.25a6.07,6.07,0,0,1-1.58,1.94,12.42,12.42,0,0,1-3.7,1.33C74,130.69,71,133.28,72,137.2a5.84,5.84,0,0,0,2.51,3.53,4.31,4.31,0,0,0,5.13-.64,3,3,0,0,0,0-4.24,3.07,3.07,0,0,0-4.24,0Z"/><path d="M103.59,139.4c.32.11.28.08-.13-.09l.34.19c.44.3-.62-.3.07.12-.28-.38-.34-.43-.16-.17l.16.32c-.41-.73-.06-.08,0,.19s.11,1.08.06.21c0,.3,0,.59.06.88,0,.63,0,1.26,0,1.88-.07,2.77-.21,5.68,1.07,8.22,1.88,3.73,5.87,4.23,9.61,4.27l1.29.05c.38,0,.44,0,.17,0q.31,0,.63.12t.6.18c-.24-.12-.19-.09.13.07s.34.22.14.07c.29.3.3.3,0,0,.15.3.15.27,0-.09.08.34.08.3,0-.1a3.53,3.53,0,0,1,0,.46c.07-.41.07-.44,0-.11s-.09.29,0-.1c-.17.29-.14.25.1-.09a1.29,1.29,0,0,1,.64-.34c.45,0,.51,0,.15,0-3.86,0-3.86,6,0,6s5.93-4.15,4.75-7.5c-1.36-3.84-5.61-4.56-9.18-4.57a17.33,17.33,0,0,1-2.15-.09,7.92,7.92,0,0,1-.9-.24c.44.16-.67-.4-.36-.2-.12-.07-.19-.22-.3-.31.05,0,.25.46.14.19a3.14,3.14,0,0,0-.37-.64c.3.43.08.18,0-.2s-.1-.59-.19-.87,0,.19,0,.23c0-.16,0-.31,0-.47s0-.55,0-.83c0-.61,0-1.23,0-1.84,0-1.1.09-2.21,0-3.32-.17-3.27-1.46-6.18-4.79-7.22a3,3,0,0,0-1.6,5.79Z"/><path d="M116.32,163.51c-1.36,5.94-2,13.66,2.29,18.59a9.92,9.92,0,0,0,4.08,2.72,13,13,0,0,0,2.76.58c.62.07,1.76.16,2.08.2a3.65,3.65,0,0,1,1.85.58s.12.24.23.42c-.22-.35,0,.49,0,0a9.72,9.72,0,0,1-1,4.29,3.09,3.09,0,0,0,1.08,4.1,3,3,0,0,0,4.1-1.07c1.64-3.62,3-8.11.19-11.54a8,8,0,0,0-5.22-2.64c-1-.14-2-.18-3-.33q.3,0-.27-.06c-.23,0-.46-.1-.69-.16l-.56-.19c.23.1.25.11.06,0s-.56-.31-.83-.49c.5.34-.31-.31-.4-.4s-.56-.71-.21-.22a7.85,7.85,0,0,1-.57-.92c-.09-.16-.17-.33-.25-.5.12.29.12.27,0-.06s-.19-.55-.27-.83-.19-.76-.27-1.15c0-.2-.07-.39-.1-.59,0,.24,0,.25,0,0a24.73,24.73,0,0,1,.65-8.81,3,3,0,0,0-5.78-1.6Z"/><path d="M132.21,195.24c3.57-6.42-1.16-12.57-3-18.39a8.28,8.28,0,0,1-.53-3.89c0,.24.13-.66.17-.8s.21-.75.26-.85a12.65,12.65,0,0,1,1.27-2.27c2-3,4.61-5.53,6.12-8.85a23.62,23.62,0,0,0,1.78-14,3,3,0,0,0-3.69-2.09,3.08,3.08,0,0,0-2.1,3.69,16.41,16.41,0,0,1-1.35,9.74c-1.52,3.15-4,5.59-5.94,8.47a13.93,13.93,0,0,0-2.31,10.17c.49,3.13,2,6,3.24,8.87.18.44.5,1.22.74,1.93a15.72,15.72,0,0,1,.58,2.14c0,.07.1.69.06.35s0,.29,0,.35a8.92,8.92,0,0,1,0,1c0-.49-.12.45-.18.65,0,0-.17.46-.07.22a4.91,4.91,0,0,0-.26.49c-1.88,3.37,3.3,6.4,5.18,3Z"/><path d="M137.12,146.11a18,18,0,0,0,2.71,13,3,3,0,0,0,5.59-1.51q-.09-7.5-.19-15a3,3,0,0,0-6,0q.11,7.5.19,15L145,156.1a18.28,18.28,0,0,1-1.29-2.28c-.16-.32.16.45,0-.09-.07-.2-.15-.39-.21-.59-.15-.44-.27-.88-.38-1.32a8.59,8.59,0,0,1-.23-1.23c0,.42,0,.24,0-.07s0-.42,0-.63c0-.46,0-.91,0-1.37,0-.21,0-.42,0-.62.05-.66-.09.51,0-.2a3.09,3.09,0,0,0-2.1-3.69c-1.44-.33-3.43.44-3.69,2.1Z"/><path d="M50.7,211a233.51,233.51,0,0,1,.61,34.28,3,3,0,0,0,3,3,3.06,3.06,0,0,0,3-3A233.51,233.51,0,0,0,56.7,211a3.09,3.09,0,0,0-3-3,3,3,0,0,0-3,3Z"/><path d="M60.26,190.82c-.27-.6.22.66,0,0-.05-.15-.11-.29-.15-.44-.1-.31-.19-.64-.26-1,0-.15,0-.31-.08-.45-.08-.36.07.79,0,.16,0-.3,0-.6,0-.91s0-.67,0-1c0-.5,0-.06,0,.16a3.22,3.22,0,0,0,.1-.54,12.16,12.16,0,0,1,.53-1.85c.13-.37.25-.17-.06.12a1.59,1.59,0,0,0,.19-.42c.15-.3.31-.59.48-.88s.34-.51.51-.77c.36-.53-.45.52,0,0l.3-.34c.22-.25.46-.48.7-.71l.28-.24c.47-.43-.56.38,0,0a11.64,11.64,0,0,1,1.75-1,3,3,0,0,0,1.07-4.1,3.09,3.09,0,0,0-4.1-1.08,13.9,13.9,0,0,0-6.39,18.19,3,3,0,0,0,4.1,1.07,3.08,3.08,0,0,0,1.08-4.1Z"/><path d="M70.38,172.54l-.29-27c0-1.91-.09-3.83,0-5.75,0-.75.07-1.51.15-2.26a2.28,2.28,0,0,1,.06-.5c.07-.43.15-.86.25-1.28a8,8,0,0,1,1.3-3.23c.2-.29.21-.31,0-.08.09-.1.18-.21.28-.31s.81-.65.35-.34a5.65,5.65,0,0,1,.72-.42c-.49.23.55-.13.68-.15a3,3,0,0,0-1.6-5.79c-7.77,1.74-8.29,11.22-8.22,17.62l.32,29.48c.05,3.86,6.05,3.87,6,0Z"/><path d="M85.61,106.28a20.35,20.35,0,0,1,7.76-12.86l-4.1-1.08a60.69,60.69,0,0,0,12.9,17.92,62.28,62.28,0,0,0,8.83,7c3.06,2,6.35,3.74,9,6.34,2.25,2.25,4.22,6,3,8.91a3.1,3.1,0,0,0,1.07,4.11c1.27.74,3.46.42,4.11-1.08a13.47,13.47,0,0,0-.73-12c-2-3.67-5.31-6.3-8.72-8.55a95.07,95.07,0,0,1-9.54-6.59,58.45,58.45,0,0,1-8-8.25,55.12,55.12,0,0,1-6.65-10.89,3,3,0,0,0-4.1-1.07,26.33,26.33,0,0,0-10.52,16.45,3.08,3.08,0,0,0,2.09,3.69,3,3,0,0,0,3.69-2.1Z"/><path d="M209.82,226a584.65,584.65,0,0,1-3.57-59.88c0-5.1-.6-10.67,1.35-15.49.6-1.51-.67-3.3-2.1-3.69a3.06,3.06,0,0,0-3.69,2.09c-1.82,4.52-1.59,9.59-1.57,14.37,0,5,.1,10,.24,15.06q.45,15.18,1.68,30.33.71,8.61,1.66,17.21a3.09,3.09,0,0,0,3,3c1.48,0,3.18-1.38,3-3Z"/><path d="M204.45,147.42c-3.1,0-6.2.05-9.31.05a1.85,1.85,0,0,0-.5,0l1,1q-.12-.53-.06-.27a13,13,0,0,0-.12-1.7,10.57,10.57,0,0,1,.27-3.65,15.58,15.58,0,0,1,1.75-3.06,13.19,13.19,0,0,0,1.53-4,28,28,0,0,0,0-8.71,3.08,3.08,0,0,0-3-3c-1.47,0-3.19,1.38-3,3,.34,2.86.84,6.08-.28,8.79-.51,1.26-1.49,2.33-2.09,3.56a12.84,12.84,0,0,0-1.22,5.28c-.13,3.28,0,7.8,4,8.61a27.57,27.57,0,0,0,5.6.11l5.45,0c3.86,0,3.87-6,0-6Z"/><path d="M194.6,123.4l-3.81,2.47a16.74,16.74,0,0,0-3.34,2.44,6.68,6.68,0,0,0-1.6,4.3c0,.32,0,.65,0,1l0,.33c0-.22,0-.23,0,0s.16,0-.09.28c.33-.4-.29.23-.32.25.31-.26-.11.07-.24.15l-.62.42c-.6.42-1.19.87-1.75,1.35a16.82,16.82,0,0,0-2.56,2.84,16.5,16.5,0,0,0-3,6.87,3.09,3.09,0,0,0,2.1,3.69,3,3,0,0,0,3.69-2.1,10.88,10.88,0,0,1,2.36-5.43c-.23.28.17-.19.24-.27s.36-.4.55-.59a12.08,12.08,0,0,1,1.2-1.07c-.28.21.2-.13.29-.19l.63-.42a12.83,12.83,0,0,0,1.55-1.2,6.07,6.07,0,0,0,1.8-3.45,18,18,0,0,0,.18-2.08c0-.21,0-.43,0-.64-.06.39.15-.09,0,0a.31.31,0,0,1-.11.19l.22-.22c-.3.22.23-.15.29-.18l1.69-1.1,3.63-2.36a3,3,0,1,0-3-5.18Z"/><path d="M182.14,147.05l.34-14.84c.12-4.92.43-9.89.31-14.81a14.35,14.35,0,0,0-1.84-6.9,25.13,25.13,0,0,1-2.44-5.92c-1.11-4-2.74-8.62-6.92-10.43a3.1,3.1,0,0,0-4.1,1.08c-.74,1.27-.42,3.45,1.08,4.1a5.49,5.49,0,0,1,2.91,3,36.45,36.45,0,0,1,1.67,5.36,31.94,31.94,0,0,0,2.73,6,10.12,10.12,0,0,1,.9,5.41c-.19,9.31-.43,18.61-.64,27.92-.09,3.86,5.91,3.86,6,0Z"/><path d="M165.8,96.34c0,3.92,0,8.72-2.64,11.73a9.21,9.21,0,0,0-2.21,3,13.58,13.58,0,0,0-.33,4.36l0,8.86c0,3.86,6,3.86,6,0l0-8.61c0-.73,0-1.49,0-2.21,0-.56-.05-.27,0-.4a31.7,31.7,0,0,0,2.32-2.85c2.54-4.11,2.77-9.2,2.82-13.89,0-3.86-6-3.86-6,0Z"/><path d="M163.64,131.88c3.86,0,3.87-6,0-6s-3.87,6,0,6Z"/><path d="M160.12,120.66l2,120.33c.16,10,.31,20,.51,30a239.32,239.32,0,0,0,2,29.19c.67,4.7,1.83,9.39,1.58,14.17-.23,4.52-2,8.84-3.42,13.1-3,9.21-4.3,19-5.52,28.55a311.86,311.86,0,0,0-1.36,65.93,3.15,3.15,0,0,0,2.2,2.9l4.71,1.38c3.71,1.09,5.29-4.7,1.59-5.79l-4.7-1.38,2.2,2.89a312.42,312.42,0,0,1,.54-58.9A205.68,205.68,0,0,1,167,334.47c1.13-4.52,2.91-8.84,4.09-13.35a35.52,35.52,0,0,0,.59-14.48c-.68-4.78-1.54-9.51-2-14.33s-.72-9.86-.88-14.8c-.31-9.76-.39-19.54-.55-29.3l-1-60.13-1.14-67.42c-.07-3.86-6.07-3.87-6,0Z"/><path d="M162.49,423.32a13,13,0,0,0,3.76,8.72,20,20,0,0,0,1.56,1.34c.53.44,1,.92,1.51,1.39.29.27-.25-.41-.07-.1.08.14.17.28.26.42.23.36-.07,0,0-.16a2.62,2.62,0,0,0,.15.48c.14.32,0-.55,0-.21a2.56,2.56,0,0,0,0,.48c-.08-.05.16-.68,0-.24.25-.71.1-.24,0,0a3,3,0,0,0,1.07,4.11,3.08,3.08,0,0,0,4.11-1.08,5.85,5.85,0,0,0,.43-5.29,10.09,10.09,0,0,0-3.3-4.16,15.66,15.66,0,0,1-1.61-1.43l-.3-.33c-.47-.52.22.34,0,0s-.41-.61-.59-.93a5.13,5.13,0,0,0-.45-.88c.15.34.18.41.1.2s0-.13-.08-.2-.12-.35-.17-.53c-.1-.35-.17-.71-.24-1.07s.07.07,0,.15a3.81,3.81,0,0,0,0-.66,3,3,0,1,0-6,0Z"/><path d="M169.94,439.4a15.49,15.49,0,0,0,8.58,6.94c.35.12.7.22,1.06.32.64.17-.2-.2.07,0s-.29-.41,0,0c-.06-.08-.37-.64-.3-.38s0-.55,0,0,0,.91,0,1.36V454a3,3,0,0,0,6,0V447.4c0-2.41-.58-4.91-3-6a20.78,20.78,0,0,0-2.81-1c-.34-.1.44.22-.07,0l-.66-.33c-.37-.2-.72-.41-1.06-.64l-.29-.2c.33.24-.21-.17-.27-.22a11.91,11.91,0,0,1-.89-.85l-.5-.55c-.37-.42.14.22-.06-.07s-.5-.74-.73-1.14a3,3,0,0,0-5.18,3Z"/><path d="M182.44,458c3.86,0,3.87-6,0-6s-3.87,6,0,6Z"/><path d="M185,451.28a251.3,251.3,0,0,1-.55-56.91l-3.79,2.89a8.51,8.51,0,0,1,5.55,4.17,5.85,5.85,0,0,1,.67,1.53,8,8,0,0,1,.34,1.64,12.31,12.31,0,0,0,1,5.19c1.7,3.14,5.24,3.14,8,4.59a13.87,13.87,0,0,1,5.82,5.76,3.06,3.06,0,0,0,3.39,1.38,3.15,3.15,0,0,0,2.2-2.89A144.58,144.58,0,0,0,206.5,377c-.29-1.68-2.23-2.37-3.69-2.09a9,9,0,0,1-2.37.24,1.68,1.68,0,0,1-1.41-.79c-1-1.42-1.27-3.42-2.16-5.08-1.85-3.42-7.56-6.1-10.48-2.35l5,1.33c-.68-3.12-.06-6.28.73-9.3s1.81-6.29,2.59-9.47A139.74,139.74,0,0,0,198,329.55a141.32,141.32,0,0,0-2.29-40.21c-1.14-5.9-2.2-13.09,3-17.25l-5-1.32A26.74,26.74,0,0,1,195,279.1c0,3.88,5.8,3.84,6,0,0-.05-.1.36-.12.32s.36-.38,0-.1a2.51,2.51,0,0,1,.56-.27c.43-.1-.46-.11.33,0,.23,0-1.19-.26.43.08a5.53,5.53,0,0,1,1.59.71c2.3,1.31,4.48,2.88,6.69,4.32,4.22,2.75,9.4,6.58,14.65,4.23a14.57,14.57,0,0,0,2.93-2.08c-.07,0,.65-.52.44-.32.21-.2.32,0,.19-.1l-.56-.06a.88.88,0,0,1-.94-.39,5.57,5.57,0,0,1,.44.95,8.57,8.57,0,0,0,4.73,4.3c4.18,1.7,8.87.44,12.36-2.17a73.24,73.24,0,0,0,6.17-5.65,8.54,8.54,0,0,1,2.62-1.9c.21-.09.31-.07.41,0,.44.3-.12,0-.12-.35.06,3.85,6.06,3.87,6,0a6,6,0,0,0-6-5.69c-3.16,0-5.64,2.19-7.75,4.26a34.8,34.8,0,0,1-5.68,5,7,7,0,0,1-5,1.15c-.33-.08-1.07-.31-1.1-.33.24.11-1-.67-.54-.32-.84-.7-.78-1.32-1.5-2.46a4.78,4.78,0,0,0-4.08-2.32,7,7,0,0,0-4.23,2c-.8.65-1.34,1.15-2.14,1.17a7,7,0,0,1-3-.86,80.45,80.45,0,0,1-7.71-4.86c-2.8-1.83-5.81-4.31-9.32-4.35a6.55,6.55,0,0,0-6.8,6.07h6a32.15,32.15,0,0,0-1.5-9.93c-.73-2.31-3.25-2.73-5-1.32-5.09,4.08-6.2,11.18-5.46,17.3.44,3.67,1.28,7.27,1.89,10.92.55,3.28,1,6.57,1.23,9.88a130.82,130.82,0,0,1-2.88,40.57c-1.77,7.6-5.37,15.4-3.65,23.32.44,2,3.63,3.1,5,1.32.25-.26.24-.29,0-.11s-.35.11,0,0c-.66,0-.51,0,0,.16-.46-.17.33.21.37.24-.27-.19.47.44.57.56-.23-.29.31.63.36.74-.15-.33.27.76.23.62.36,1,.7,2,1.14,2.92a8,8,0,0,0,4.45,4.31,12.29,12.29,0,0,0,6.67.07l-3.69-2.09a138.84,138.84,0,0,1,.93,40l5.59-1.52a19.35,19.35,0,0,0-11.83-9.45,8.52,8.52,0,0,1-1.75-.61c-.18-.12-.1.23-.25-.29a6.56,6.56,0,0,0-.13-.68,33.54,33.54,0,0,0-.58-4.55,14.12,14.12,0,0,0-2.09-4.31,14.55,14.55,0,0,0-8.38-5.74,3.05,3.05,0,0,0-3.8,2.89,251.3,251.3,0,0,0,.55,56.91,3.1,3.1,0,0,0,3,3c1.47,0,3.2-1.38,3-3Z"/><path d="M254,282.09a63.19,63.19,0,0,0,0,14.74,27.27,27.27,0,0,0,1.93,6.73c.9,2.1,2.07,4.09,3,6.21a38.81,38.81,0,0,1,1.28,26c-1.11,3.71,4.68,5.29,5.79,1.59a44.49,44.49,0,0,0-.82-28c-1.67-4.51-4.36-8.49-5.21-13.28-.82-4.6-.33-9.4.05-14a3,3,0,0,0-3-3,3.07,3.07,0,0,0-3,3Z"/><path d="M260.49,336.45c-1,4-2,8-3,12a52.29,52.29,0,0,0-1.81,11.71c0,3.91,1,7.62,1.85,11.4a33.73,33.73,0,0,1,.57,10.56c-.69,7.14-3.38,14.07-6.2,20.6-1.52,3.51-3.43,7.1-3,11.05a42.25,42.25,0,0,0,1.3,5.64c.47,1.83.84,3.68,1.14,5.55,1.37,8.47,1.08,17.17.87,25.72-.1,3.86,5.9,3.86,6,0,.19-7.59.38-15.22-.47-22.78a73,73,0,0,0-2.12-11.46,12.3,12.3,0,0,1-.78-4.56,17.61,17.61,0,0,1,1.67-4.86c3-6.88,5.93-13.93,7.12-21.39a41,41,0,0,0,.42-11.23c-.44-3.82-1.76-7.45-2.24-11.24-.51-4.1.29-8.2,1.23-12.17,1-4.34,2.13-8.65,3.19-13,.93-3.74-4.85-5.34-5.78-1.59Z"/><path d="M256,453l3.67.89a27.64,27.64,0,0,0,3,.75.88.88,0,0,1-.64-.58l.09.36a5.32,5.32,0,0,0,.36,1.34,12.21,12.21,0,0,0,1.18,2.44c1,1.52,2.25,2.82,3.36,4.24-.25-.32.35.48.32.44A12.42,12.42,0,0,1,268,464c.28.53,0-.07.19.45,0,.12.26,1.27.19.75.25,1.88.36,3.77,1.76,5.22a4.81,4.81,0,0,0,3.39,1.36c.31,0,1.78.07.4-.15a.6.6,0,0,1-.28-.22c.16.33.19.37.11.15,1.28,4,3.42,7.27,7.1,9.38,3.35,1.93,6.38-3.25,3-5.18a8.88,8.88,0,0,1-3.46-3.52c-.87-1.61-1.06-3.57-2.42-5a5,5,0,0,0-3.11-1.48c-.15,0-1.16-.11-1.15,0,0-.28,1,.55.87.74,0,0-.25-1.26-.17-.73-.08-.58-.13-1.16-.21-1.74a9.48,9.48,0,0,0-.79-2.54,19,19,0,0,0-3.05-4.35c-.45-.54-.95-1.13-1.2-1.47a11.38,11.38,0,0,1-.7-1.1c0-.07-.39-.84-.24-.45a18.81,18.81,0,0,0-1-3.07,5.29,5.29,0,0,0-3-2.23c-2.16-.73-4.48-1.11-6.69-1.64-3.76-.9-5.36,4.88-1.6,5.78Z"/><path d="M285.57,480c2.5-7.75-.36-16.17,2.66-23.77a27.59,27.59,0,0,0,1.94-5.77,37.2,37.2,0,0,0,.37-6.5,96,96,0,0,1,.81-13.34c.21-1.61-1.53-3-3-3a3.08,3.08,0,0,0-3,3,92.44,92.44,0,0,0-.81,12.88,31.29,31.29,0,0,1-.23,5.81,33.47,33.47,0,0,1-2,5.74c-2.87,7.56,0,15.78-2.49,23.36a3,3,0,1,0,5.78,1.59Z"/><path d="M287.12,431l3.95,6.88a30.52,30.52,0,0,1,1.77,3.15,7.35,7.35,0,0,1,.3,3,13.76,13.76,0,0,0,1.92,6.51,24.23,24.23,0,0,1,2.54,5.13c1,3.73,6.77,2.15,5.78-1.6a24.83,24.83,0,0,0-2.77-5.9,13,13,0,0,1-1.19-2.44,9.46,9.46,0,0,1-.26-3.14c0-2.78-1.31-5-2.66-7.34L292.3,428c-1.92-3.34-7.11-.32-5.18,3Z"/><path d="M304.78,455.28a144.7,144.7,0,0,1-1.06-23.45c.27-7.59,1.49-15,2.21-22.56A53.84,53.84,0,0,0,306,398a44.72,44.72,0,0,0-2.88-11,60.34,60.34,0,0,1-3.2-10.06,57.2,57.2,0,0,1-.85-10.85c0-7.63.59-15.27.94-22.88.19-3.94.42-7.88.56-11.82.14-3.72-.7-7-3.94-9.17-.95-.63-1.73-.85-2.07-1.79a31,31,0,0,1-.93-5.35l-.92-5.91a13,13,0,0,0-1.45-5.1c-.18-.28-.94-.89-.9-1.15l.07,0c.12.58.16.6.14.06a15.34,15.34,0,0,0,.18-2.36l.52-6.43c.3-3.74.39-7.57.91-11.28.2-1.46,1.43-1.76,2.57-2.84a8.32,8.32,0,0,0,2.38-5.53c.39-4.07.69-8.13,1.22-12.19,1.14-8.68,2.26-17.29.94-26-.24-1.61-2.26-2.49-3.69-2.1a3.08,3.08,0,0,0-2.1,3.69c1.13,7.46.08,15.1-.9,22.52-.48,3.65-1,7.31-1.26,11-.09,1.22.13,3-.5,4a3.9,3.9,0,0,1-.83.77,13.49,13.49,0,0,0-2.16,1.9,8.83,8.83,0,0,0-1.71,5.17c-.17,2-.31,3.95-.47,5.93l-1,11.86c-.14,1.81-.32,3.52.73,5.12.5.75.71.78.95,1.49a17.77,17.77,0,0,1,.53,3c.56,3.59.86,7.36,1.76,10.88a7.67,7.67,0,0,0,2.49,4.11,20.35,20.35,0,0,0,2.12,1.45,2.54,2.54,0,0,1,1,.86,7.72,7.72,0,0,1,.3,3.69q-.13,3-.29,6c-.36,7.8-.8,15.6-1.09,23.4-.28,7.49-.13,15.15,2.25,22.33,1.1,3.32,2.57,6.5,3.56,9.86a34.51,34.51,0,0,1,1.26,10.75c-.19,8.48-2,16.84-2.43,25.31a146.52,146.52,0,0,0,1,25.9,3.1,3.1,0,0,0,3,3c1.47,0,3.21-1.38,3-3Z"/><path d="M295.72,232.54a16.23,16.23,0,0,1-3.41.42l-.87,0c-.11,0-.76-.1-.39,0a7.7,7.7,0,0,1-1.27-.39,1.71,1.71,0,0,1-.73-.62,4.44,4.44,0,0,1-.58-1.48,23.13,23.13,0,0,1-.75-4.36,25.85,25.85,0,0,1,.88-8.8,16.61,16.61,0,0,1,1.52-3.91,5.48,5.48,0,0,1,.87-1.1c.16-.18.24-.2.63-.18a3.07,3.07,0,0,0,3-3,183,183,0,0,0,.45-28.86,3.08,3.08,0,0,0-3-3,3,3,0,0,0-3,3,183,183,0,0,1-.45,28.86l3-3c-4.57-.21-7,4.21-8.27,7.91a30.43,30.43,0,0,0-1.59,12.52c.34,4,1.06,8.87,4.85,11.13,3.21,1.91,7.23,1.4,10.71.69a3,3,0,0,0,2.1-3.69,3.07,3.07,0,0,0-3.7-2.09Z"/><path d="M293.29,177.82a23.37,23.37,0,0,1,4.76-10.17c2.73-3.31,5.8-6.36,8.72-9.5l18.64-20.06c1.91-2.06.06-6.05-2.92-5a181.41,181.41,0,0,0-30,13.57l4.51,2.59a156.57,156.57,0,0,1-.16-26.52c.56-8,1.16-16,0-24a40.08,40.08,0,0,0-4.07-12.86,3.06,3.06,0,0,0-3.39-1.38c-3.1.67-5,3.25-6.21,6a39.45,39.45,0,0,1-1.8,3.7c-.06.11-.54.83-.4.65s-.4.45-.49.54a4.89,4.89,0,0,1-1.44.91c-1.75.78-3.65,1.19-5.26,2.27a15.14,15.14,0,0,0-4,4c-2,2.85-3,6.31-4,9.62l5.9.79A164.62,164.62,0,0,0,267,72.12c-.74-3-1.34-6.4-3-9.06a18.12,18.12,0,0,0-3.06-3.37A8.51,8.51,0,0,1,259,57c-1.1-2.53-1.51-5.3-2.63-7.83-1.26-2.84-3.69-5.62-7-5.71-3.82-.1-5.92,3.21-7.45,6.2L236.5,60l4.72-.61C238.06,55.54,227,48.46,225,57c-.86,3.69,2.09,6.66,3.86,9.55a45.06,45.06,0,0,1,4.25,8.82c2.35,6.87,3,14.33,3.73,21.51q1.19,11,1.75,22.11.57,11.31.49,22.66,0,5.67-.25,11.34c-.12,3.36-.46,6.76-.37,10.13.09,3,.58,6.09,2.31,8.56a16.19,16.19,0,0,0,3.37,3.24,3,3,0,0,1,1.14,2.76c.16,6.86-1.55,13.62-2.89,20.3a101.65,101.65,0,0,0-1.82,12,52.55,52.55,0,0,0,.4,11.07c.89,6.79,3,14.67-.21,21.16H246c-2-3.44-4.57-6.94-8.38-8.41a8.3,8.3,0,0,0-5.85,0c-1.82.69-3.19,2-4.83,3-2.94,1.82-6.25-1-8.62-3.14-3.64-3.27-7.26-6.57-10.89-9.86a3.07,3.07,0,0,0-4.25,0,3,3,0,0,0,0,4.24l10.54,9.54c3.15,2.84,7,6.06,11.55,5.86a10.45,10.45,0,0,0,5.76-2.18c1.25-.91,2.59-2,3.73-2,.22,0,.22,0,0,0q.31.06.63.15a2.36,2.36,0,0,1,.79.36,7,7,0,0,1,1.6,1.3,19.72,19.72,0,0,1,3,4.21c1.06,1.85,4.17,2,5.18,0,2.82-5.73,2.7-11.92,1.89-18.1s-1.77-12.22-1.14-18.51,2.27-12.33,3.36-18.49a77,77,0,0,0,1.18-9.82c.15-3.23.14-6.66-2.26-9.14-.9-.92-2.09-1.5-2.94-2.47a6.13,6.13,0,0,1-1.24-2.74,28.55,28.55,0,0,1-.2-7.59q.52-10.33.5-20.69a390.71,390.71,0,0,0-2.31-41.32C242,89,241.39,81.18,239,74a51.9,51.9,0,0,0-4.46-9.7c-.89-1.51-1.9-2.94-2.87-4.4-.28-.44-.67-1.2-.79-1.44.09.19-.47.29,0-.15-.15.13-.21.38-.45.44h-1.6a13.46,13.46,0,0,1,8.14,4.9c1.19,1.47,3.9,1,4.71-.6L246,54.6c.64-1.26,1.23-2.54,1.94-3.76.14-.24.52-.82.54-.85a6.2,6.2,0,0,0,.43-.46c-.1.1.48-.26,0-.11.15-.05.26,0,.54.2a3.39,3.39,0,0,1,.76.89,11.24,11.24,0,0,1,1.32,3,40.64,40.64,0,0,0,2.47,7.05,12.63,12.63,0,0,0,2.29,3,14.29,14.29,0,0,1,2.64,2.8c1.29,2.27,1.71,5.24,2.32,7.74a155.3,155.3,0,0,1,3.3,17.88,161.84,161.84,0,0,1,1.16,20.87c0,3.4,5,4.06,5.89.8.83-3,1.6-5.69,3.36-8.18a7.72,7.72,0,0,1,2.71-2.36c1.49-.78,3.19-1.13,4.7-1.91,2.74-1.42,4.23-4,5.45-6.71.52-1.13,1.06-2.22,1.68-3.3.3-.52-.28.23.16-.22.18-.18.35-.36.54-.53-.48.42.08,0,.22-.1-.53.32.3-.08.52-.12l-3.39-1.38c3.42,6.61,4,14.12,3.9,21.44-.15,7.94-1.14,15.83-1.21,23.78a138.2,138.2,0,0,0,.69,15.09c.22,2.22,2.39,3.8,4.52,2.59a172,172,0,0,1,28.57-13l-2.92-5-19.32,20.79c-3.06,3.3-6.34,6.49-9.07,10.08a28.77,28.77,0,0,0-5.28,11.52,3.08,3.08,0,0,0,2.1,3.69,3,3,0,0,0,3.69-2.1Z"/><path d="M194.9,248.78l2.34,3.17a2.33,2.33,0,0,0,.77.85,2.27,2.27,0,0,0,1,.53,3.28,3.28,0,0,0,2.31-.3,3,3,0,0,0,1.38-1.79l.11-.8a3,3,0,0,0-.41-1.51l-2.34-3.18a2.15,2.15,0,0,0-.77-.84,2.2,2.2,0,0,0-1-.54,2.23,2.23,0,0,0-1.2-.05,2.14,2.14,0,0,0-1.11.35,3,3,0,0,0-1.38,1.79l-.11.8a3,3,0,0,0,.41,1.52Z"/><path d="M187.73,175.87l-2.56,11.42-1.28,5.7a21,21,0,0,0-.82,5.72,10,10,0,0,0,1.86,5.13c.83,1.29.49,2.78.42,4.26a13.2,13.2,0,0,0,3.76,10c2.71,2.76,6.95-1.48,4.25-4.25a7.05,7.05,0,0,1-1.8-3.06,13.39,13.39,0,0,1-.11-4.2,9.68,9.68,0,0,0-1-5.24c-.71-1.27-1.41-1.91-1.35-3.42a26.29,26.29,0,0,1,.88-4.48l1.17-5.23,2.41-10.7a3.08,3.08,0,0,0-2.1-3.69,3,3,0,0,0-3.69,2.09Z"/><path d="M196.85,174.74q-.07,9.18.57,18.34a3,3,0,0,0,6,0q-.66-9.15-.57-18.34a3,3,0,0,0-6,0Z"/><path d="M178.08,226.56l-.57,22.35a37.07,37.07,0,0,0,.07,5.27,20.39,20.39,0,0,0,1.36,5.15,18,18,0,0,1,1.4,9.52,3.09,3.09,0,0,0,2.1,3.69c1.42.39,3.44-.48,3.69-2.09a23,23,0,0,0-.77-11.05,46.21,46.21,0,0,1-1.69-4.84,21.64,21.64,0,0,1-.17-5.15q.28-11.43.58-22.85c.1-3.86-5.9-3.86-6,0Z"/><path d="M273.48,189a237.39,237.39,0,0,0-.06-27.85q-.21-3.45-.53-6.89c-.1-1.14-.22-2.29-.34-3.43-.06-.58-.13-1.15-.19-1.72,0-.29-.07-.58-.09-.87,0-.52,0-.5-.22,0-.54.76-.15.45.28.17a13.61,13.61,0,0,0,1.22-.89,13,13,0,0,0,2.06-1.94,16.16,16.16,0,0,0,3-5.43,3,3,0,0,0-5.79-1.6,9,9,0,0,1-2.63,4c-1.48,1.3-3.31,1.88-3.81,4.09a10.49,10.49,0,0,0,.09,3.4c.13,1.14.24,2.29.35,3.44q.35,3.56.57,7.13a237.13,237.13,0,0,1,.09,28.34,3,3,0,1,0,6,0Z"/><path d="M284.35,136.7c.63.47-.12-.15-.23-.26a3.08,3.08,0,0,1-.3-.33c-.21-.25-.2-.22.05.09-.14,0-.73-1.23-.8-1.34-.13-.31-.12-.27,0,.1l-.16-.43-.21-.65c-.16-.55-.26-1.1-.37-1.66,0-.23,0-.15,0,.24l-.06-.56c0-.37-.06-.75-.08-1.12,0-.66-.05-1.31-.06-2,0-1.41,0-2.81-.14-4.22a3.08,3.08,0,0,0-3-3c-1.51.07-3.15,1.33-3,3,.27,3.23,0,6.47.61,9.67a12.3,12.3,0,0,0,4.67,7.62,3,3,0,0,0,4.11-1.08,3.08,3.08,0,0,0-1.08-4.1Z"/><path d="M277.71,161.78A104.22,104.22,0,0,1,280.22,194a3,3,0,0,0,6,0,110.26,110.26,0,0,0-2.72-33.82c-.9-3.75-6.69-2.16-5.79,1.6Z"/><path d="M270.23,226.29v9a3,3,0,0,0,6,0v-9a3,3,0,1,0-6,0Z"/><path d="M328.42,195.81l1,39.68c.28,11.46,1,23.61-4.22,34.21-2.38,4.85-6,10.9-3.88,16.48a6.92,6.92,0,0,0,2.69,3.41c1.13.75,2.45,1.13,3.6,1.85a14.47,14.47,0,0,1,4.47,4.73c2.79,4.6,3.38,10.1,3.43,15.47.05,6.45-.26,12.91-.43,19.36l-.28,11.09-.14,5.66a21.06,21.06,0,0,0,.25,5.38,13.35,13.35,0,0,0,2.42,4.4,20.61,20.61,0,0,1,2.09,3.72,20.22,20.22,0,0,1,1.49,9.09l5.59-1.51c.17.33-.22-1.16-.18-.6a4.62,4.62,0,0,1,0-.91c-.06.47,0,0,.06-.11a5.38,5.38,0,0,1,1.34-2.23,6.86,6.86,0,0,1,2-1.34,4.32,4.32,0,0,1,1.14-.28,4.52,4.52,0,0,1,1.93.23,2.69,2.69,0,0,1,1.55,1.55,25.24,25.24,0,0,1,1.23,3c1,2.71,2.56,5.15,5.3,6.4,3,1.36,6.54.54,8.08-2.54,1.34-2.67,1-6.12,1.12-9,.26-6.88.49-13.77.78-20.66a17,17,0,0,1,.47-4,40.19,40.19,0,0,1,1.64-4c1.22-3.21.54-6.32-.64-9.42a18.65,18.65,0,0,1-1.37-8.48,45.16,45.16,0,0,1,1.77-8.21,77.51,77.51,0,0,0,2.18-9.09A43.26,43.26,0,0,0,375.2,289c-.59-6.59-2.26-13-3.13-19.56a61.49,61.49,0,0,1,.68-21,9.27,9.27,0,0,1,1.55-4,5.54,5.54,0,0,1,2.11-1.49c2.55-1,5.37-.77,8.19-.58a3,3,0,0,0,3-3l-.25-15.74c-.08-4.76.26-10.19-2.45-14.37a11.24,11.24,0,0,0-5.34-4.46,8.43,8.43,0,0,0-3.06-.57c-.44,0-.86.06-1.29.1-.24,0-.51,0-.75,0q-.66-.06-.09.06a.8.8,0,0,1,.65.45c.26.2.07.31.06-.24s0-1.16,0-1.74l.11-4.22.19-7.69c.13-5.29.28-10.57.4-15.85.1-4.76-1-10.1-6.14-11.7A6.44,6.44,0,0,0,363.3,165c-1.62,1.6-2.13,3.8-2.4,6,0,.45-.1.9-.14,1.36,0,.22,0,.45-.06.67,0-.15.1-.48,0,.16a5.89,5.89,0,0,1-.76,2c.16-.32-.05,0-.11.09.3-.38,0,.13-.08.05.09.06.28-.28.41-.09s-.46-.15-.23,0a15.78,15.78,0,0,0-2.75-1.24c-5.55-1.57-11,3.67-14.69,7.11-4.27,4-8.42,8.13-12.62,12.19-2.78,2.69,1.47,6.93,4.24,4.24,3.55-3.43,7.1-6.88,10.66-10.31,1.62-1.57,3.25-3.14,5-4.56,1.37-1.1,3.21-2.67,5-2.94a2.43,2.43,0,0,1,1.63.47,8.27,8.27,0,0,0,3.59,1.07,6.17,6.17,0,0,0,5.19-3.16,12.21,12.21,0,0,0,1.57-5.57,10.64,10.64,0,0,1,.3-2.08c.06-.24.26-.87.27-.87a1,1,0,0,1,.17-.28c-.11.12.42-.31-.05-.09.13-.06.49,0,.16-.06a2.76,2.76,0,0,1,.64.18,3.27,3.27,0,0,1,.91.86c.95,1.55.7,3.72.66,5.46q-.19,7.56-.38,15.14l-.19,7.44c-.06,2.3-.3,4.67-.13,7,.2,2.72,1.84,4.87,4.66,5.17a18.26,18.26,0,0,0,2.56-.09,2.8,2.8,0,0,1,1.88.55c3.58,2.27,3.07,8.06,3.13,11.87l.27,16.72,3-3c-5.64-.39-11.94,0-15.49,5-1.8,2.57-2.32,5.86-2.77,8.89a73,73,0,0,0-.82,10.33c0,7,1.33,13.79,2.57,20.64,1.15,6.39,1.93,12.84.49,19.25-1.4,6.19-4,12.37-3.64,18.84a21,21,0,0,0,.75,4.6c.46,1.55,1.15,3,1.63,4.57a5.49,5.49,0,0,1,.1,3.58c-.5,1.51-1.34,2.87-1.79,4.4-.95,3.24-.78,6.83-.91,10.17l-.4,10.6c-.13,3.48-.2,7-.4,10.45a8,8,0,0,1-.18,1.29c-.1.63,0,.29,0,.16-.21,1-.32.07-.17.13l.16-.08c.31,0,.28,0-.09,0,.57.26-.35-.22-.05,0a6.14,6.14,0,0,1-1.14-.84,7.86,7.86,0,0,1-1.49-3,17.79,17.79,0,0,0-1.94-4.17,9.47,9.47,0,0,0-9.74-3.67c-6.33,1.22-10.9,8.24-8,14.29a3,3,0,0,0,3.39,1.38,3.1,3.1,0,0,0,2.2-2.9,25.59,25.59,0,0,0-4.9-16.52,5.45,5.45,0,0,1-1.4-3.25c0-1.59.06-3.2.1-4.79l.25-9.85c.16-6.55.34-13.1.49-19.65.15-6.07.18-12.42-1.89-18.21-1.79-5-5-9.69-9.71-12.28a16.28,16.28,0,0,1-2.77-1.39c.23.21-.18-.38-.11-.18s-.21-.77-.18-.63c.06.3,0-.24,0-.26a7.39,7.39,0,0,1,0-1.33c.2-2.54,1.43-4.93,2.56-7.17a52.83,52.83,0,0,0,5.44-16.57,111.47,111.47,0,0,0,.76-18.08c-.32-14.79-.73-29.58-1.1-44.37-.09-3.85-6.09-3.87-6,0Z"/><path d="M366.23,286.29v-33c0-3.87-6-3.87-6,0v33c0,3.86,6,3.86,6,0Z"/><path d="M356.54,243.08a15.19,15.19,0,0,0-1.87-7.46,3,3,0,0,0-4.1-1.07,3.06,3.06,0,0,0-1.08,4.1,10.32,10.32,0,0,1,.51,1.06l-.3-.72a12.74,12.74,0,0,1,.85,3.07l-.11-.79a12.13,12.13,0,0,1,.1,1.81,3.12,3.12,0,0,0,.88,2.12,3,3,0,0,0,5.12-2.12Z"/><path d="M333.5,96.84l-1.28,10.9c-.37,3.09-1.08,6.34-.88,9.46.18,2.8,1.18,5.7,3.84,7.07,1.27.66,3.12.65,4.11,1.08a3.09,3.09,0,0,1,1.59,1.88c1.08,2.93-.13,6.44-.38,9.42a24.78,24.78,0,0,0,.85,9.23c1.83,5.89,6.74,10.65,13.08,11a9.77,9.77,0,0,0,8.21-3.38,8.91,8.91,0,0,0,1.64-4.64,11.37,11.37,0,0,1,.21-1.52c.16-.66,0-.11.21-.63s-.24.2.21-.28-.43.22.25-.21c.2-.13.4-.24.61-.35.47-.25-.65.23.21-.1l.85-.29c1.09-.34,2.2-.59,3.29-.94,2.73-.89,5.15-2.39,6.44-5.06s1.41-5.85,1.56-8.85l.57-10.93c.35-6.91.46-13.88,1.31-20.74.41-3.24.95-7,2.36-9.86a5.8,5.8,0,0,1,2.31-2.72c1.64-1,3.13-2,3.67-4a11.4,11.4,0,0,0-.19-5.35L387,71.33l-2.44-12-5.48,2.31,1.76,2.85,3.39-4.4a8.55,8.55,0,0,1-5.59-7.59c-.05-2.06,1-4.34,1.51-6.62a18.3,18.3,0,0,0-.26-8.26,46.11,46.11,0,0,0-2.94-7.8l-3.56-7.94c-1.08-2.41-2-4.92-3.31-7.23a8.39,8.39,0,0,0-5.51-4.51,5.88,5.88,0,0,0-6.72,3.27c-.95,2.17-1.06,4.84-1.4,7.17a104.72,104.72,0,0,0-1.36,14.89,46.76,46.76,0,0,0,2.07,14.78c1.52,4.65,4.15,8.49,6.71,12.59a18.54,18.54,0,0,1,2.9,6.7c.41,2.6-.37,5.27-1.28,7.72-2.12,5.72-4.85,11.27-7.29,16.86l5.48.72A133.73,133.73,0,0,0,354.08,63a3,3,0,0,0-3-1.44,3.08,3.08,0,0,0-2.5,2.15c.16-.48-.14.22-.19.31.16-.27.08-.11-.09,0,.43-.32-.28.16-.33.18.37-.19,0,0-.22.06s-.71.08-.19.06c-.08,0-.82,0-.46,0s-.35-.12-.42-.14c.49.14-.27-.3.12,0-1.63-1.41-4.46-1-5,1.32a24.11,24.11,0,0,0-.14,8.8c.33,2.57.77,5.46.33,7.87a15.51,15.51,0,0,1-7.32,10.63c-3.32,2-.31,7.15,3,5.18a21.43,21.43,0,0,0,9.83-13.11,23.69,23.69,0,0,0,.36-8.76c-.35-3-1-6.06-.3-9l-5,1.32a7.4,7.4,0,0,0,11.82-3.18l-5.49.71a128.2,128.2,0,0,1,9,30.42c.41,2.44,4.47,3,5.48.72,2.19-5,4.42-10,6.57-15,2.06-4.81,3.74-9.86,2.4-15.12-1.17-4.59-4.19-8.32-6.6-12.29a32.37,32.37,0,0,1-4.29-12.48,61.84,61.84,0,0,1,0-14c.21-2.23.5-4.45.84-6.67.17-1.12.35-2.25.53-3.37.08-.53.16-1.06.27-1.59.05-.28.43-1,.1-.68s-.08,0-.07.08,0,0,.14,0a.71.71,0,0,1,.33.11A5.08,5.08,0,0,1,365.07,18c1.22,2.38,2.23,4.9,3.32,7.34,2.1,4.69,4.77,9.45,5.85,14.51.56,2.66,0,4.93-.76,7.47a15.51,15.51,0,0,0-.5,8,14.51,14.51,0,0,0,9.63,10.51c2.49.81,4.73-2.22,3.39-4.41l-1.76-2.85c-1.83-3-6.15-1-5.48,2.32l2,10.09c.58,2.86,1.51,6.11,1.78,8.84,0-.11.07,1.08.06.66,0,.11-.2.39-.07.27s0-.06-.12,0c-.27.16-.54.3-.81.45a11.29,11.29,0,0,0-3.4,3.13,20.94,20.94,0,0,0-3.1,7.82c-1.47,6.42-1.71,13-2.05,19.59-.35,6.8-.67,13.59-1,20.39-.11,2.06-.17,4.39-1.67,5.74.34-.31-.11.08-.22.15s-.43.25-.65.36c-.84.44.26-.08-.26.12l-.73.26c-1,.33-2.1.57-3.14.89-2.32.72-4.6,1.85-5.87,4a11.13,11.13,0,0,0-1.15,4.39,3.25,3.25,0,0,1-.66,2c-1.5,1.28-3.92.93-5.5.2a9.11,9.11,0,0,1-4.54-4.65,16.63,16.63,0,0,1-1.24-7.77c.13-3.09,1-6.16.8-9.27s-1.68-6.6-4.6-8.3a12.41,12.41,0,0,0-4.39-1.27c-.29,0-.53-.2-.19,0-.45-.25,0,.1-.29-.31-.48-.68,0,.2-.14-.26a5.79,5.79,0,0,1-.27-1.09c0,.15,0,.42,0-.19,0-.4,0-.8,0-1.19,0-.62.07-1.23.14-1.83.22-2,.47-4,.7-6l1.34-11.39c.19-1.61-1.52-3-3-3a3.08,3.08,0,0,0-3,3Z"/><path d="M348.68,91.27A79.67,79.67,0,0,0,351.59,114a43.6,43.6,0,0,1,1.24,5c.29,1.72.18,3.47.47,5.19s1.36,3,2,4.61a11,11,0,0,1,.28,4.63,3,3,0,0,0,1.84,2.74,3.08,3.08,0,0,0,3.28-.62,6.65,6.65,0,0,0,2-6.58,3,3,0,0,0-5.79,1.6v.21c0-.23,0-.16-.08.21.22-.42-.31.24-.4.32l5.12,2.12a19.71,19.71,0,0,0-.27-5.42,10.38,10.38,0,0,0-1.05-2.67,9.68,9.68,0,0,1-1-1.93c-.44-1.47-.24-3.19-.44-4.71a39.17,39.17,0,0,0-1.18-5.47A65.87,65.87,0,0,1,355.31,103a93.89,93.89,0,0,1-.63-11.73c0-3.86-6-3.86-6,0Z"/><path d="M356.14,106.67a33.51,33.51,0,0,1-.38,26.79,3.09,3.09,0,0,0,1.08,4.1,3,3,0,0,0,4.1-1.07,40.15,40.15,0,0,0,.39-32.85c-.65-1.49-2.83-1.82-4.11-1.08a3.09,3.09,0,0,0-1.08,4.11Z"/><path d="M401,127c-.28,4-2.11,7.73-3.23,11.54a27.17,27.17,0,0,0-.39,13.61,64.29,64.29,0,0,0,4.22,12.95,18.59,18.59,0,0,0,3.54,5.19,23.56,23.56,0,0,1,3.68,4c1.93,3.19,1.61,7.34,1.66,10.92l.19,14.34c.13,9.58.28,19.16.35,28.74.06,9.21.08,18.44-.38,27.64-.42,8.48-1.41,17-4.09,25.08-1.38,4.17-3.53,8-5,12.1s-1.76,8.81-1.66,13.28c.08,3.89.11,8.14,2.82,11.22,1.35,1.52,3.16,1.79,4.69,2.83.43.29.48.53.59,1.11a11.61,11.61,0,0,1,0,2.23c-.56,9.54-1.45,19.07-2.19,28.6a21.85,21.85,0,0,1-.92,5.57c-.67,1.92-2.2,3.38-2.76,5.36-.68,2.41-.07,4.86.47,7.23l1.57,6.88,1.57,6.88c.68,3,5,2.72,5.78,0a18.52,18.52,0,0,1,3.9-6.83,44.93,44.93,0,0,1,6.45-5.76c5-3.79,10.52-7.22,14.74-12,5.21-5.86,7.33-13.19,8.69-20.76.68-3.77,1.24-7.57,2.16-11.3a52.24,52.24,0,0,1,4.32-11.19c2.19-4.34,4.55-8.69,5.73-13.43a22.47,22.47,0,0,0-.85-14.48L454,293.13a3.82,3.82,0,0,1,3.33,1.4,13.12,13.12,0,0,1,2.53,3.84c1.56,3.53,2.5,7.23,5.1,10.21,2.78,3.17,6.93,3.41,10.24,5.67,2.55,1.75,4.66,4.79,6.77,7.24a24.9,24.9,0,0,0,9.64,7,33.81,33.81,0,0,1,5.25,2.44,19.33,19.33,0,0,1,4.1,3.67c5.21,5.9,9.15,13.87,17.49,15.85,5,1.19,9.34-.87,13.61-3.28a16,16,0,0,1,5.39-2.21,4.23,4.23,0,0,1,3.85.9c2.75,2.72,7-1.52,4.25-4.25-3.05-3-7.6-3.26-11.51-2s-7,4.18-10.88,5c-3.33.74-6.55-1.18-9-3.4-3-2.75-5.16-6.21-7.68-9.36a25.17,25.17,0,0,0-9.74-7.76,53.12,53.12,0,0,1-5.82-2.59,16.51,16.51,0,0,1-3.77-3.19c-2.43-2.63-4.44-5.66-7.22-8a18.88,18.88,0,0,0-5.32-3.13c-1.63-.64-3.58-1.1-4.82-2.28-2.77-2.63-3.43-7-5.19-10.45-2.06-4-5.83-7.71-10.64-7.41-2.45.15-3.49,2.39-2.59,4.51,3.06,7.21-1.6,15.37-4.77,21.65a60.32,60.32,0,0,0-4.73,11.61c-1,3.64-1.56,7.37-2.21,11.08a72.29,72.29,0,0,1-2.57,11,27.42,27.42,0,0,1-2.09,4.66,21.73,21.73,0,0,1-2.63,3.71c-4.06,4.62-8.9,7.58-13.77,11.26-5.63,4.25-10.9,9.1-13,16.07h5.78L408.35,369a18,18,0,0,1-.57-3,3.63,3.63,0,0,1,.76-2.27,17.85,17.85,0,0,0,2.54-5.79c1-4.44,1-9.16,1.32-13.68L413.49,330c.17-2.24.42-4.5.5-6.74a9.8,9.8,0,0,0-1.33-5.79c-1.24-1.84-3-2.41-4.82-3.34a2,2,0,0,1-1.16-1.09,7.49,7.49,0,0,1-.6-2,36.47,36.47,0,0,1-.26-5.33,42.11,42.11,0,0,1,.26-6.25c.58-4.24,2.65-7.92,4.3-11.8,7-16.49,6.62-35.18,6.62-52.76,0-9.47-.15-18.94-.28-28.41l-.19-14.33c-.06-4.41.14-8.92-.33-13.31a20.47,20.47,0,0,0-1.58-6.3,16.52,16.52,0,0,0-3.65-4.86,18.65,18.65,0,0,1-3.55-4.23,30.67,30.67,0,0,1-2.12-5.33c-1.38-4.19-2.85-8.51-2.7-13,.14-4.07,2-7.87,3.14-11.71A29,29,0,0,0,407,127a3,3,0,0,0-6,0Z"/><path d="M400.37,129.73c3.1,6,10.59,7.11,16.65,6.52,3.74-.37,7.45-1.2,11.23-1.19a13.26,13.26,0,0,1,6.75,1.7c2.05,1.21,3.28,2.68,3.29,5.25,0,3.35-1.06,6.57,0,9.88a8.85,8.85,0,0,0,2.25,3.81,9.25,9.25,0,0,0,5,2.13c.35.07.68.16,1,.25.78.22-.35-.25.31.15.08.05.74.57.26.15.19.17.37.36.56.55.54.54-.21-.44.17.23.09.16.2.31.29.46s.26.49.38.74.16.34,0,.07l.21.54c.82,2.2,1.29,4.51,2.17,6.7a15.88,15.88,0,0,0,2.25,4c1,1.32,2.32,2.39,3.45,3.63,3.81,4.17,3.76,10.4,3.66,15.83a141.56,141.56,0,0,0,.95,21.49c1,7.6,2.5,15.11,4,22.63q1.31,6.48,2.59,13c.79,3.95,1.67,7.92,3.66,11.47s4.7,6.33,7.32,9.21q4.28,4.69,8.79,9.17c1.5,1.49,4.58.95,5-1.33,2.16-11.31.72-22.77,1.67-34.17a50,50,0,0,1,2.81-13.26,29.18,29.18,0,0,1,7.06-10.63c1.8-1.78,3.41-3.84,3.59-6.46s-1.45-4.68-1.68-7c-.5-4.77,1.73-9.48,2-14.25a18.35,18.35,0,0,0-1.23-7.54,49.51,49.51,0,0,1-2.49-7.4c-1.1-5.29-.49-10.85,0-16.17a46.55,46.55,0,0,1,1.4-8.7,24.88,24.88,0,0,1,3.5-6.89c3-4.38,6.7-8.27,9-13.1l-4.71.6a6.23,6.23,0,0,1,1,1c.16.25.3.51.44.78,0,0,.21.45.1.19s.11.31.12.36A22.61,22.61,0,0,1,516,138c.42,2.89.74,5.79,2.16,8.4,1.53,2.84,4.26,4.51,7,6s4.61,2.49,5.34,5.61a35.05,35.05,0,0,1,.38,10.82A44.24,44.24,0,0,1,528.37,180c-1.31,3.63-3,7.11-4.14,10.8a38.88,38.88,0,0,0-1.51,12c.17,8.05,2,16.05,3.34,24,1.39,8.15,2.74,16.32,3.88,24.52,2.25,16.18,3.63,32.58,2.84,48.93-.19,4-.53,8-1,12a38.24,38.24,0,0,0-.13,10.79,15.52,15.52,0,0,0,1.74,5c.84,1.5,2.12,2.68,3,4.12,1.58,2.5.6,5.95.73,8.9a13.15,13.15,0,0,0,1.33,5.33,3,3,0,0,0,4.1,1.07,3.06,3.06,0,0,0,1.08-4.1c-1.21-2.45-.2-6.05-.45-8.91a11.56,11.56,0,0,0-1.61-5.31c-.91-1.45-2.19-2.63-3-4.13-1.55-2.78-1.4-6.19-1.15-9.27.31-3.88.85-7.74,1.12-11.63,1.15-16.44,0-32.94-2.13-49.25-1.07-8.31-2.37-16.59-3.75-24.85-1.33-7.94-3.14-15.91-3.78-23.93a38.64,38.64,0,0,1,.48-11.26c.84-3.86,2.5-7.45,4-11.1a50.79,50.79,0,0,0,3.58-23.28c-.34-3.73-1.12-7.56-4-10.19-2.29-2.09-5.2-3.09-7.72-4.82a6.1,6.1,0,0,1-2-2.41,17.78,17.78,0,0,1-.94-3.68c-.47-2.88-.69-5.73-1.9-8.42a9.82,9.82,0,0,0-2.54-3.38c-1.34-1.14-3.82-1.27-4.71.61-2.06,4.35-5.26,8-8.07,11.8a31.39,31.39,0,0,0-6,14.1,96.9,96.9,0,0,0-1.23,16.66,36.76,36.76,0,0,0,1.14,8.48c.67,2.51,1.86,4.82,2.62,7.3,1.41,4.57-.46,9.09-1.17,13.65a19,19,0,0,0,.11,7.8c.29,1.14.89,2.17,1.17,3.31a1.81,1.81,0,0,1-.36,1.7c-1.3,1.83-3.22,3.23-4.62,5a32.72,32.72,0,0,0-3.78,6,47,47,0,0,0-4.07,13.87c-1.77,12.37.34,25-2,37.31l5-1.33c-2.67-2.65-5.29-5.35-7.83-8.12a64.5,64.5,0,0,1-6.44-7.58,25.94,25.94,0,0,1-3.5-9.27c-.82-3.83-1.54-7.69-2.31-11.54-1.48-7.44-3.05-14.87-4.19-22.37a121.52,121.52,0,0,1-1.34-21.47c.16-6.21.29-12.72-2.55-18.42a18.16,18.16,0,0,0-2.53-3.69c-1.08-1.26-2.49-2.27-3.47-3.62-1.29-1.76-1.69-3.74-2.39-6.1a18.09,18.09,0,0,0-3.21-6.79,8.36,8.36,0,0,0-2.69-2.07,9.91,9.91,0,0,0-2.47-.8,9.25,9.25,0,0,1-2-.45c-.55-.28,0,.13-.39-.32.3.34-.28-.44-.28-.44a4.33,4.33,0,0,1-.38-1.16,7.26,7.26,0,0,1-.12-1.58,31.49,31.49,0,0,1,.31-3.2c.4-3.31.22-6.66-1.81-9.45-4.3-5.92-11.95-6.85-18.7-6-3.89.48-7.86,1.35-11.8.94-2.43-.26-5.05-1.38-6.21-3.63a3,3,0,0,0-4.1-1.07,3.06,3.06,0,0,0-1.08,4.1Z"/><path d="M437.49,265.57c.13,1.42.25,2.84.28,4.26,0,.7,0,1.41,0,2.12,0,.1-.14,1.25-.06.69-.05.35-.11.7-.19,1-.31,1.37-.86,2.66-1.26,4a10.54,10.54,0,0,0-.29,5.17,3,3,0,0,0,3.69,2.1,3.07,3.07,0,0,0,2.09-3.69c-.07-.36-.07-.38,0-.07a5.42,5.42,0,0,1,0-.57c0-.81-.14.45.05-.35a19.69,19.69,0,0,1,.58-2,24.08,24.08,0,0,0,1.11-3.9,35.65,35.65,0,0,0,.06-8.82,3,3,0,1,0-6,0Z"/><path d="M437.23,216.29v2a2.19,2.19,0,0,0,.26,1.15,2.7,2.7,0,0,0,1.58,1.59,2.41,2.41,0,0,0,1.16.26l.79-.11a3,3,0,0,0,1.33-.77l.47-.61a3,3,0,0,0,.41-1.51v-2a2.3,2.3,0,0,0-.26-1.16,2.34,2.34,0,0,0-.62-1,3.3,3.3,0,0,0-2.12-.87l-.8.1a2.94,2.94,0,0,0-1.32.77l-.47.61a3,3,0,0,0-.41,1.52Z"/><path d="M443.6,193.09A19.26,19.26,0,0,0,447,206c1.11,1.51,2.57,2.8,3,4.69s.1,4,.05,6a17.18,17.18,0,0,0,1,6.63,20.23,20.23,0,0,0,3.62,5.6c.37.45.32,1.14.58,2a5.39,5.39,0,0,0,2.32,2.91c2,1.31,4.31,2.32,6.43,3.46a3.07,3.07,0,0,0,4.11-1.08,3,3,0,0,0-1.08-4.1l-3.1-1.65a25.7,25.7,0,0,0-3-1.62c-.67-.24.09-.19,0,.13a4,4,0,0,0-.27-1.46,7.49,7.49,0,0,0-1.75-2.81,10.42,10.42,0,0,1-2.48-4.1,16.54,16.54,0,0,1-.33-5.57,20.21,20.21,0,0,0-.43-6.3,15.34,15.34,0,0,0-3.23-5.4,13.92,13.92,0,0,1-2.81-10.19,3,3,0,0,0-3-3,3.06,3.06,0,0,0-3,3Z"/><path d="M443.78,252.87c2.82,2.72,6.06,5.67,10.06,6.41a17,17,0,0,0,1.9.24l.45,0-.35-.06c.34.1.29.07-.18-.1-.43-.36-.53-.44-.31-.24-.12-.14-.43-.67-.2-.22-.42-.82-.21-.52-.14-.25.11.48-.07-.89,0-.13,0,.14,0,.29,0,.43a17.58,17.58,0,0,0,0,1.92,6,6,0,0,0,1.45,3.48,3,3,0,0,0,4.24,0,3.07,3.07,0,0,0,0-4.24c.32.44.39.53.23.28s-.1-.15.13.35a1.9,1.9,0,0,0-.11-.39c-.14-.52,0,.75,0,.23,0-.2,0-.39,0-.59a16.86,16.86,0,0,0,0-1.88,5.31,5.31,0,0,0-1.36-3.23,5.57,5.57,0,0,0-3.95-1.39c-.79,0,.49.13-.11,0l-.59-.12c-.21,0-1.25-.24-1.33-.43l.35.15-.36-.17-.54-.28a12.79,12.79,0,0,1-1.22-.74l-.51-.35-.33-.25q.5.39.12.09c-.33-.27-.65-.53-1-.81-.73-.64-1.43-1.3-2.13-2a3,3,0,0,0-4.24,4.25Z"/><path d="M504.47,287.51a40,40,0,0,1,2.08,7.92c.37,2.8.29,5.64.39,8.46.19,5.46,1.1,10.7,4.53,15.1,1,1.28,3.2,1.05,4.24,0a3.07,3.07,0,0,0,0-4.24c-2.74-3.52-2.73-8.6-2.82-12.82a50,50,0,0,0-2.64-16,3.08,3.08,0,0,0-3.69-2.1,3,3,0,0,0-2.09,3.69Z"/><path d="M510.33,236.66a23.37,23.37,0,0,1,5.32,8.12c1.39,3.71,1.74,7.66,2.23,11.56,1.06,8.54,2.06,17.1,2.6,25.69a3.06,3.06,0,0,0,3,3,3,3,0,0,0,3-3c-.57-9.08-1.66-18.13-2.79-27.16-.53-4.22-.94-8.46-2.55-12.44a30.21,30.21,0,0,0-6.57-10c-2.72-2.75-7,1.49-4.24,4.24Z"/><path d="M520.23,223.29v-8a3,3,0,1,0-6,0v8a3,3,0,0,0,6,0Z"/><path d="M538.73,155.62a81.68,81.68,0,0,1,8.6-13.73,80.1,80.1,0,0,1,5.28-6.08c1.8-1.89,3.77-3.62,5.54-5.53a20.09,20.09,0,0,0,4.51-7.24c.79-2.35,1-5,2.22-7.14a20.79,20.79,0,0,1,4.5-5.09,53.68,53.68,0,0,0,5.4-5.37,40,40,0,0,0,7.6-14c.32-1.06.55-2.13.82-3.2a12.54,12.54,0,0,1,.49-1.69s.23-.51.1-.24c0,0,.46-.74.26-.49.21-.27.23-.28.67-.43a14,14,0,0,1,1.85-.33,8.28,8.28,0,0,0,3.56-1.44c3.94-2.87,4.51-7.92,4.78-12.42a13.34,13.34,0,0,1,1.12-5.5,3.06,3.06,0,0,1,1.39-1.43c.36-.2.8-.39.85-.41.69-.28,1.38-.54,2.05-.84,2.62-1.14,4.51-3.31,4.31-6.32a5.22,5.22,0,0,1,0-1.93,6.28,6.28,0,0,1,.86-1.48c.74-1.13,1.52-2.25,2.31-3.36,2.85-4,6.34-8.18,11-9.89L615,37.1c.44,3.32.91,6.69,2.59,9.64,2,3.56,5.42,5.06,9.07,6.45,3.49,1.33,7.1,2.77,10.49,4.1-.49-.19,0-.49-.26-.19a3.94,3.94,0,0,0-.19.77C636.4,58.94,636,60,635.66,61l-2,5.93c-.63,1.91-1.25,3.83-1.91,5.74a10,10,0,0,1-2.16,3.91c-2.19,2.21-5.3,3.64-7.94,5.21-5.47,3.24-11.2,6.92-14.26,12.71s-2.7,13.28-6.76,18c-3.77,4.44-9.46,7.94-10.6,14.08a44.83,44.83,0,0,0-.46,4.47,7,7,0,0,1-.25,1.51,2.92,2.92,0,0,1-.13.42c0-.05.16-.38,0-.06,0,.13-.14.23-.2.36.12-.25.16-.16,0,0,.32-.3-.09,0,0,0a4.85,4.85,0,0,1-.85.13,26.24,26.24,0,0,0-3.07.21,8.71,8.71,0,0,0-3.64,1.6c-2.34,1.74-3.8,4.26-5.14,6.8-.62,1.18-1.23,2.38-1.93,3.51l-.51.79c-.06.09-.5.69-.26.38a24.37,24.37,0,0,1-1.84,2,16,16,0,0,0-4.91,9.26,52.89,52.89,0,0,0,.07,11.32c.48,7.06.87,14.67-3,20.95a15.32,15.32,0,0,1-2.88,3.44,3,3,0,0,0,4.24,4.24c5.54-5,7.59-12.59,7.86-19.83a123.68,123.68,0,0,0-.51-12.47c-.2-3-.46-6.41.76-9.28a12.67,12.67,0,0,1,3-3.82,22.13,22.13,0,0,0,3-3.78c1.43-2.28,2.44-4.8,4-7,.07-.11.51-.68.24-.34.18-.23.37-.44.57-.65s.68-.64.52-.51a6.92,6.92,0,0,0,.61-.38c.44-.27-.2,0,.3-.15a8.11,8.11,0,0,1,.85-.21c.4-.06,1.57,0,2.25-.06,3.8-.35,6.07-2.95,6.6-6.62.23-1.54.22-3.11.44-4.65-.06.46.08-.34.11-.47.08-.32.17-.63.28-.94a8.67,8.67,0,0,1,.74-1.47,16.19,16.19,0,0,1,2.46-3c1-1,2.07-2,3.1-3a24.23,24.23,0,0,0,5.73-7.81c1.39-3.27,2-6.75,2.92-10.16a17.61,17.61,0,0,1,4.28-7.67,35.88,35.88,0,0,1,7.16-5.42c2.73-1.68,5.58-3.21,8.24-5a17,17,0,0,0,4.41-4.09,18.79,18.79,0,0,0,2.37-5.07c1.36-4,2.65-8,4-11.94.65-1.94,1.49-3.95,1.22-6a5.9,5.9,0,0,0-4-4.67c-3.77-1.56-7.62-2.92-11.43-4.38a9.42,9.42,0,0,1-3.94-2.37,9.07,9.07,0,0,1-1.58-3.29A33.7,33.7,0,0,1,621,37.1c-.23-1.74-1.75-3.64-3.8-2.89A27.65,27.65,0,0,0,605.3,43.3c-1.61,2-3.1,4.12-4.55,6.26a13.15,13.15,0,0,0-2,3.77,7.3,7.3,0,0,0-.27,2.23c0,.35.11,1.68.12,1.68s.18-.69.14-.27c0,.13-.59.45-.14.15a5.14,5.14,0,0,1-.51.29c.08,0-.81.39-.48.24-.72.32-2.07.79-3,1.26A9.93,9.93,0,0,0,590,64.54a24.17,24.17,0,0,0-1.11,7c0,.56,0,1.11-.1,1.66a8.39,8.39,0,0,1-.12,1c-.09.5-.19,1-.32,1.47-.05.22-.12.43-.18.64,0,0-.34.92-.16.5a7,7,0,0,1-.76,1.36c.26-.35-.63.6-.46.47s-.94.45-.59.33a12.09,12.09,0,0,1-2.06.4A7.7,7.7,0,0,0,578,84.59c-.86,2.25-1.19,4.68-2,7a33.33,33.33,0,0,1-8,12.35c-1.78,1.74-3.74,3.3-5.44,5.12a18.7,18.7,0,0,0-4.26,7c-.79,2.46-1,5.09-2.39,7.34-1.5,2.51-3.84,4.43-5.9,6.47a82.15,82.15,0,0,0-6.15,6.77,87.58,87.58,0,0,0-10.35,16,3.08,3.08,0,0,0,1.07,4.11,3,3,0,0,0,4.11-1.08Z"/><path d="M559.66,195.38c-.75,21-1.65,42-2.24,63-.5,18,.26,37,10.6,52.39a43.15,43.15,0,0,1,3.56,5.8,21.27,21.27,0,0,1,1.57,6.62c.57,5.11,1.16,10.21,1.92,15.3a300.09,300.09,0,0,0,6.11,30.11q1.91,7.36,4.17,14.64a127.32,127.32,0,0,0,4.93,14,26.56,26.56,0,0,0,3.83,6.14c1.5,1.81,3.3,3.37,4.68,5.28,2.94,4,5.12,8.69,7.53,13L622,450c2.35,4.23,5,8.28,5.21,13.24.25,5.21-.11,10.5-.21,15.72l-.16,8.1,3-3c-6.21-.82-12.46-1.52-18.66-2.5-5.13-.81-9.62-2.43-13.31-6.2a41.18,41.18,0,0,1-7.5-11.76c-2.32-5-4.25-10.21-6.26-15.36-4.36-11.17-8.69-22.39-14.13-33.09-2.69-5.29-5.74-10.34-8.91-15.35s-6.22-9.82-8.16-15.27c-2.33-6.55-3.24-13.49-4.35-20.32L545,342.6a3,3,0,0,0-3.69-2.1,3.07,3.07,0,0,0-2.09,3.69l3.21,19.87c1,6.25,1.83,12.57,3.56,18.67,3.37,11.91,11.37,21.57,17.14,32.34s10.27,22.3,14.74,33.73c2.14,5.49,4.23,11,6.62,16.41a52.17,52.17,0,0,0,7.8,13A26.64,26.64,0,0,0,608,487c7.2,1.35,14.58,2,21.84,3,1.64.22,3-1.55,3-3l.31-15.91c.1-5.22.52-10.58-1.5-15.51s-4.78-9.25-7.28-13.76l-7.76-14-7.89-14.26c-2.41-4.35-4.78-8.47-8.21-12.11a25,25,0,0,1-4.14-5.47,41.37,41.37,0,0,1-2.43-5.94q-2.53-7.32-4.68-14.76a297.66,297.66,0,0,1-6.92-29.64c-.9-5-1.68-10-2.31-15.08s-.59-10.24-2.33-14.91c-1.65-4.42-4.77-8-7-12.08A52.17,52.17,0,0,1,566,291.7c-2.27-8.61-2.72-17.56-2.69-26.43.05-10,.57-20,.93-29.93l1.14-31.85.29-8.11c.13-3.86-5.87-3.86-6,0Z"/><path d="M563.53,363.7l6.85,19.51c1.11,3.15,2.15,6.34,3.33,9.46a5.55,5.55,0,0,0,3.38,3.62,8.73,8.73,0,0,0,1.36.34l.8.17.25.08a1.53,1.53,0,0,1-1.1-1.17,3.1,3.1,0,0,0,3.69,2.1,3,3,0,0,0,2.1-3.69,4.78,4.78,0,0,0-3.22-3.07c-.48-.15-1-.2-1.49-.31-.12,0-.73-.06-.43-.1.14,0,.24.29.35.23s-2.91-8.35-3.23-9.25l-6.86-19.52a3.08,3.08,0,0,0-3.69-2.09,3,3,0,0,0-2.09,3.69Z"/><path d="M589.9,434c1.27,2.93,4.26,4.41,6.92,5.84.58.31,1.15.63,1.7,1l.45.31c-.25-.2-.25-.19,0,0a7.29,7.29,0,0,1,.73.74c-.41-.48,0,.11.11.23.16.31.16.31,0,0a5.91,5.91,0,0,1,.19.69,29.84,29.84,0,0,1-.07,3c.07,3.68,1.84,6.87,3.93,9.79,2,2.74,4.06,5.28,4.65,8.39a3,3,0,0,0,3.69,2.1,3.07,3.07,0,0,0,2.1-3.69c-.67-3.53-2.8-6.43-4.86-9.27a30,30,0,0,1-2.71-4.25,7.53,7.53,0,0,1-.69-2c-.06-.37-.08-.43-.05-.17a4.89,4.89,0,0,1,0-.66,13.76,13.76,0,0,1,0-1.57,9.32,9.32,0,0,0-1.34-5.89,11.6,11.6,0,0,0-3.71-3.29c-1.22-.73-2.53-1.32-3.74-2.06-.28-.17-.55-.35-.82-.53l0,0c-.13-.11-.27-.23-.4-.36s-.7-.91-.38-.39a7,7,0,0,1-.49-.94c-.65-1.49-2.83-1.82-4.11-1.08A3.09,3.09,0,0,0,589.9,434Z"/><path d="M548.81,290.64A128.59,128.59,0,0,1,550,316.43a3,3,0,1,0,6,0A136.42,136.42,0,0,0,554.6,289c-.25-1.6-2.27-2.49-3.7-2.09a3.08,3.08,0,0,0-2.09,3.69Z"/><path d="M553.84,152.4a8.17,8.17,0,0,0,.73,4.89c.49,1,1.16,2,1.7,3a6.63,6.63,0,0,1,.4.8c-.28-.76,0,.21.09.35a8.7,8.7,0,0,1,.22.88c0,.14.06.29.08.44,0-.42,0-.46,0-.12a15.61,15.61,0,0,1,0,1.81c0,.34,0,.3,0-.12,0,.15-.05.29-.08.44-.06.3-.14.59-.22.88a3,3,0,1,0,5.78,1.6,12.91,12.91,0,0,0-.32-8.26,26.57,26.57,0,0,0-1.89-3.58c-.14-.25-.28-.5-.41-.75s-.13-.25-.19-.38c.17.4.19.44.08.14,0-.06-.23-.78-.21-.78.06.46.08.53.06.19s0-.27,0,.19a3.3,3.3,0,0,0-.3-2.31,3,3,0,0,0-1.8-1.38c-1.42-.33-3.44.43-3.69,2.09Z"/><path d="M579.23,117.29v8a3,3,0,0,0,6,0v-8a3,3,0,1,0-6,0Z"/><path d="M611.8,68.8a32.54,32.54,0,0,1-11.7,21.47,3,3,0,0,0,0,4.25,3.08,3.08,0,0,0,4.24,0A38.35,38.35,0,0,0,617.8,68.8a3,3,0,0,0-3-3,3.06,3.06,0,0,0-3,3Z"/><path d="M601.63,121.48a139.38,139.38,0,0,1,2.23,16.78c.33,4.75,1,10.35-1.46,14.41-1.9,3.15-5.29,5.23-8.82,6.9-1.85.88-3.62,1.51-5.6,2.29-2.82,1.1-2.84,5.17-2.58,7.78.48,4.79,2.57,9.06,4.08,13.57a21.51,21.51,0,0,1,1.31,6.78c0,2.64-.41,5.26-.59,7.89a20.34,20.34,0,0,0,.8,7.88,21.15,21.15,0,0,0,3.54,6.21c2.52,3.21,5.9,6,8.11,9.24,2.64,3.92,3.5,8.66,4,13.29.57,5.66,1,11.33,1.45,17l.73,8.65c.11,1.35.29,2.71.31,4.07a3.13,3.13,0,0,1-.17,1.29c.16-.41-.1.16-.17.25s.13-.11-.2.23a4.71,4.71,0,0,1-1.69,1,6.71,6.71,0,0,1-2.46.39c-2.72,0-5.43-.66-8.16-.42a13.91,13.91,0,0,0-11.33,7.83,16,16,0,0,0,.51,14.39c2.16,4.16,6,6.76,9.77,9.27a28.86,28.86,0,0,1,4.29,3.16c.31.29.6.59.89.9a4.17,4.17,0,0,1,.58.73,5.67,5.67,0,0,1,1,2.13c1.15,4.36-2.63,8.68-5.34,11.67-1.93,2.13-3.53,4.35-3.28,7.39a49.27,49.27,0,0,0,1.84,8.39,170.54,170.54,0,0,0,11.35,30.64c1.16,2.41,2.39,4.79,3.67,7.15a3.06,3.06,0,0,0,3.39,1.38,3.14,3.14,0,0,0,2.2-2.89c1.75-16.19,11.69-31.6,25.64-40.25a56.18,56.18,0,0,1,5.66-3.06A63.59,63.59,0,0,0,653,323a12.38,12.38,0,0,0,5-5.49c1-2.28,1.54-4.74,2.39-7.09,3.25-9,10-16.3,14.43-24.68,2.52-4.76,4.67-10,8.38-14,3.08-3.31,7.65-6,12.11-5l-.71-5.48c-5.68,2.75-12.08,7-11.35,14.23a8.81,8.81,0,0,0,1.59,4.46,7.69,7.69,0,0,0,1.43,1.53c.56.46,1.69,1.07,2,1.44.59.61.2,2.16.09,3.2l-.68,6.41-5,46.88-2.86,26.71a3,3,0,0,0,2.2,2.89,8.91,8.91,0,0,0,8.19-1.6,16.22,16.22,0,0,0,5.2-7.39c1-2.48,1.53-5.22,3.08-7.42s4.05-3.46,6-5.24c3.39-3.17,5.8-7.26,8.13-11.23s4.19-7.34,7.42-10.15a13.26,13.26,0,0,1,2.3-1.55,8.54,8.54,0,0,1,1.21-.56,9.58,9.58,0,0,1,2.1-.56,3.52,3.52,0,0,1,2.66.63c.55.58.18.24.14.17.21.32.15.27.3.8,0-.15,0-.42,0,.16,0-.2-.07.06-.21.26a3,3,0,0,0,5.18,3c1.86-2.78,1-6.71-1.38-8.9s-6.22-2.57-9.39-1.69c-4.92,1.36-8.59,4.94-11.49,9s-4.87,8.21-7.58,12.14a25,25,0,0,1-4.3,4.85c-2.53,2.17-5.16,3.84-6.81,6.85s-2.13,6.2-3.65,9.09a8.47,8.47,0,0,1-2.46,3,3.88,3.88,0,0,1-1.52.73,2.14,2.14,0,0,1-1.45-.17l2.2,2.9,4.91-46,2.43-22.69,1.21-11.34a10.89,10.89,0,0,0-.21-5c-.68-1.89-2.11-2.86-3.7-4s-1.67-3.41-.5-5.35c1.61-2.69,5-4.09,7.64-5.39,2.29-1.11,1.72-5-.72-5.48a17.81,17.81,0,0,0-14.37,3.42c-4.29,3.17-7.24,7.53-9.72,12.18s-4.7,9.09-7.51,13.41-5.69,8.34-8,12.81a46.36,46.36,0,0,0-3.08,7.22c-.68,2.1-1,4.62-2.45,6.37-1.27,1.55-3.48,2.35-5.29,3.13a58.7,58.7,0,0,0-26,21.16,60.53,60.53,0,0,0-10.68,28.39l5.59-1.52a162.32,162.32,0,0,1-10.66-24.05q-2.15-6.18-3.81-12.52a58.13,58.13,0,0,1-1.55-6.48c-.25-1.74,1-2.67,2.07-3.88,2.76-3.11,5.53-6.73,6.4-10.89a12.81,12.81,0,0,0-2.89-11.14c-4.29-5.12-11.37-6.6-14.41-12.65a9.62,9.62,0,0,1,0-8.93A8.65,8.65,0,0,1,593.4,274a8.26,8.26,0,0,1,4.72-1.06c2.21.07,4.41.52,6.63.45a13.66,13.66,0,0,0,5.37-1.25,8.7,8.7,0,0,0,4-3.57c1.16-2.08,1-4.36.83-6.65-.77-9.26-1.39-18.56-2.36-27.8a42.07,42.07,0,0,0-2.92-12.53,32.13,32.13,0,0,0-6.64-9.11c-2.31-2.42-4.64-4.63-6-7.68-1.52-3.38-.7-7.83-.38-11.61A28.89,28.89,0,0,0,595,180.86c-1.24-3.54-2.88-7-3.52-10.71a11.54,11.54,0,0,1,.19-4.6l-2.1,2.09c6-2.21,12.5-4.78,16.58-9.94,5.2-6.56,4.16-15.26,3.41-23.07q-.72-7.42-2.14-14.74a3,3,0,0,0-3.69-2.1,3.06,3.06,0,0,0-2.1,3.69Z"/><path d="M734.83,328.88c1.87-6.71,1.65-13.69,1.29-20.57-.18-3.5-.37-7-.28-10.51a33.39,33.39,0,0,1,.31-4.36,8.38,8.38,0,0,1,1.88-4c2.07-2.75,2.5-6.24,3-9.55.58-3.6,1-7.22,1.24-10.85a109.08,109.08,0,0,0-.87-21.67c-1-7-2.47-13.81-3.46-20.76a85.51,85.51,0,0,1-.35-20.72c.7-7.06,1.93-14.06,2.45-21.14.23-3.1.54-6.23-.77-9.13s-4.37-4.48-7.34-3a8.21,8.21,0,0,0-1.91,1.41,5.88,5.88,0,0,1-.73.68c.23-.15.14,0-.2,0,.41,0-.51-.12-.15,0l-.68-.22a5.21,5.21,0,0,1-1.67-1.28c-2.36-2.5-3.93-5.35-7.42-6.46-1.7-.55-3.51-.47-5.23-.88a9,9,0,0,1-3.73-2.32L701,155.6c-1.84-1.57-5.25-.67-5.12,2.12a22.33,22.33,0,0,1-6,16.42c-2.55,2.68-5.45,4.61-6.69,8.28-1.14,3.36-.54,7-.06,10.43.41,3,.63,5.6-.23,8.31a14.58,14.58,0,0,1-4.18,6.26,13.23,13.23,0,0,1-6.74,3.27,14.11,14.11,0,0,1-1.58.13c-.89.05-1.78.05-2.66.13a13.94,13.94,0,0,0-5.6,1.47c-2.57,1.37-4.5,3.66-6.49,5.73-.42.43-.84.86-1.29,1.28l-.65.58c-.28.22-.3.24-.07.06-.15.11-.3.22-.46.32a6.38,6.38,0,0,1-.71.43l-.48.24c.3-.13.29-.14,0,0s-.52.15-.79.19c.66-.1-.48,0-.61,0l3,3A109,109,0,0,0,651.9,198a105.47,105.47,0,0,0-3.1-12.49c-1.24-3.93-2.37-9.32-7.29-9.84-.76-.08-2,0-2.47,0a3,3,0,0,1-1.42-.59,8.24,8.24,0,0,1-2.28-3.06c-1.48-3-2.16-7.2-2.45-10.73a49.29,49.29,0,0,1,.65-12.72,11.84,11.84,0,0,0-.1-6.28c-.73-1.94-2.37-3.12-3.32-4.88-1-1.91-1.31-4.34-1.82-6.42l-1.81-7.52-3.7-15.28a3,3,0,0,0-2.89-2.2L614,106c-1.13,0-2.47-.15-3.48.44s-1.53,1.86-2.11,2.82a77.45,77.45,0,0,1-6.2,8.73,3.09,3.09,0,0,0,0,4.25,3,3,0,0,0,4.24,0,86.91,86.91,0,0,0,8.17-11.7L612,112.05l7.89-.1-2.9-2.21c2.14,8.85,4.18,17.73,6.43,26.54a15,15,0,0,0,2.77,5.93,15.67,15.67,0,0,1,1.39,1.66,3.07,3.07,0,0,1,.32,2c-.16,2-.67,4-.89,6a48.53,48.53,0,0,0-.29,6.6,49.29,49.29,0,0,0,2,12.94c1,3.38,2.77,6.73,5.75,8.77a9,9,0,0,0,5.15,1.49,5.31,5.31,0,0,1,1.49,0,.25.25,0,0,1-.14-.06,4.58,4.58,0,0,1,.79,1.77,105.79,105.79,0,0,1,3.57,12.36,102.51,102.51,0,0,1,2.21,28.49,3,3,0,0,0,3,3c6,.29,9.14-5.2,13.15-8.61l.35-.29s-.28.21,0,0,.49-.33.75-.48a3.65,3.65,0,0,1,1.58-.65,32.6,32.6,0,0,1,5.14-.42,18.86,18.86,0,0,0,9.2-3.3,20,20,0,0,0,8.8-16.6c-.08-3.47-1.06-6.88-1-10.36a6.63,6.63,0,0,1,1.23-3.92,33.59,33.59,0,0,1,3.66-3.49,28.28,28.28,0,0,0,8.43-21.36l-5.12,2.12,8.17,7c2.6,2.21,5,4.45,8.54,5a20.36,20.36,0,0,1,4.18.67,6.43,6.43,0,0,1,2.52,2.16c2,2.38,3.77,4.78,6.9,5.71a6.85,6.85,0,0,0,4.36-.12,7.28,7.28,0,0,0,2.3-1.45c.21-.18.41-.38.61-.57s.29-.31.35-.3c-.2,0-.38.11-.63,0l-.27-.12c-.27-.25-.28-.25,0,0-.13-.7.42.91.22.37a6.08,6.08,0,0,1,.33,3.16c-.26,7-1.41,14-2.24,20.92a92.71,92.71,0,0,0-.48,20.86c.73,6.93,2.15,13.75,3.3,20.61A111.52,111.52,0,0,1,736.51,264a103.82,103.82,0,0,1-.7,10.57,56.49,56.49,0,0,1-1.7,9.59c-.49,1.62-1.82,2.74-2.58,4.21a15.35,15.35,0,0,0-1.44,5.57A72.55,72.55,0,0,0,730,305c.33,7.42,1.11,15-.92,22.25-1,3.72,4.75,5.31,5.79,1.6Z"/><path d="M642,262.58a38.1,38.1,0,0,1,27.2-17.7c3.2-.45,6.41-.72,9.43-1.95a27.2,27.2,0,0,0,7.81-5c4.32-3.86,7.65-8.67,11.82-12.69,4.54-4.38,10.26-8.24,16.65-9l-2.89-3.8c-.44,3-2.36,5.3-4,8a14.33,14.33,0,0,0-2.33,9.82c.94,5.9,6.25,9.93,9.87,14.24a14.17,14.17,0,0,1,1,1.32,18.86,18.86,0,0,1,1.11,1.9,14,14,0,0,1,1.16,4.76c.42,4.33.58,8.7.86,13l.85,13.3.2,3.2c0,.49.06,1,.1,1.48,0,.22,0,.44,0,.66s0,.22,0,.34,0,.22.05,0c.1,0,.44-.65.54-.56-.08-.07-.86.27-1,.32a7.13,7.13,0,0,0-2.31,1.34c-2.37,2.05-2.76,5.31-3.13,8.21l-.12.93c.08-.63-.05.32-.09.51a14.16,14.16,0,0,1-.41,1.85c-.08.25-.36.8-.08.28-.14.26-.28.52-.45.78.34-.53,0,0-.27.2.49-.42-.14,0-.37.13a3,3,0,0,0-1.08,4.1,3.06,3.06,0,0,0,4.1,1.08c2.54-1.16,3.79-3.84,4.28-6.44.14-.74.24-1.48.33-2.22l.12-.93.06-.4c.07-.59,0,.24,0-.13.09-.55.18-1.1.3-1.65.06-.24.12-.48.19-.71s.43-.93.12-.38c.13-.23.25-.46.39-.68s-.12.15-.14.17.22-.24.23-.24l.08-.07-.26.19a3,3,0,0,1,.38-.24l.13-.06c-.28.11.59-.16.57-.16a5.2,5.2,0,0,0,3.8-4.92,54.92,54.92,0,0,0-.36-6.27l-.44-6.89-.86-13.54c-.28-4.36-.3-8.84-2.11-12.89a28.23,28.23,0,0,0-5.46-7.44c-1-1.07-2-2.12-3-3.23l-.72-.84-.29-.36c.08.1.26.35-.09-.13a17.21,17.21,0,0,1-1.14-1.77c-.08-.15-.51-1-.33-.59a8.22,8.22,0,0,1-.33-1c-.06-.19-.25-1-.22-.87.05.31,0-.16,0-.19,0-.24,0-.49,0-.74a8.11,8.11,0,0,1,1.26-3.92c1.86-3.3,4.46-6.3,5-10.17.25-1.68-.74-4.06-2.9-3.8-6.75.82-12.64,3.83-17.87,8.09-4.79,3.9-8.39,8.88-12.67,13.28a26.25,26.25,0,0,1-6.38,5.08c-2.69,1.46-5.83,1.85-8.92,2.25a44.52,44.52,0,0,0-17.59,6,44.07,44.07,0,0,0-14.66,14.62c-2,3.3,3.16,6.32,5.18,3Z"/><path d="M770.39,154.14a119.5,119.5,0,0,0,30.11-.85l-3.79-2.89a240.22,240.22,0,0,1-.31,64.67q-1.17,8.12-2.89,16.15c-1.13,5.3-2.74,10.67-2.1,16.14.31,2.62,1,5.18,1.41,7.77a35.43,35.43,0,0,1,.36,7.9c-.27,5.42-1,10.85-1.73,16.22a121.85,121.85,0,0,1-2.91,15.4,74.34,74.34,0,0,1-2.36,7.42,54.76,54.76,0,0,0-2.51,7.34,18.81,18.81,0,0,0,0,8.28,17.93,17.93,0,0,1,.81,6c-.4,3.56-2.38,6.85-4,10-1.87,3.6-3.63,7.29-4,11.39-.4,4.52,1.66,8.51,4,12.19a30.64,30.64,0,0,1,3,5.34,16.92,16.92,0,0,1,.88,5.95c0,4.47-.41,9,1.56,13.21a16.63,16.63,0,0,0,4.33,5.08,7.62,7.62,0,0,1,2.74,4.79c.74,4.37,0,8.74,2.22,12.82,2.06,3.87,6,6.39,9.87,8.14a63.7,63.7,0,0,0,12,4.13c8.12,1.87,17.53,1.82,23.85-4.4,1.57-1.54,2.72-3.45,4.24-5s3.75-2.17,5.84-3.1c4.56-2,7.1-6.62,8.84-11.05,3.47-8.84,2.66-18.73,1.85-28-.21-2.35-.42-4.7-.59-7.06a22.07,22.07,0,0,1,.1-6.79c.53-2.14,2.16-3.18,3.61-4.7a11.53,11.53,0,0,0,3.07-6.55,65.25,65.25,0,0,0,.34-7.66l.14-8.71.29-16.79.58-34.19c.09-5.31.74-11-.18-16.21-.46-2.63-2-4.58-2.94-7s-.62-5.27-.69-7.76l-1-34-1-34c-.14-4.67-1.13-10,2-13.89,1.51-1.85,3.22-3.49,4.67-5.39a32.29,32.29,0,0,0,3.7-6.15,35.87,35.87,0,0,0,3.25-13.7l-3,3a2,2,0,0,1,1.58.78A7.19,7.19,0,0,1,877,140.5a24.52,24.52,0,0,1,1.33,7.59q.84,10.74,1.2,21.5c.06,1.74,1.9,3.66,3.8,2.89,5.17-2.11,6.29,6.59,6.81,9.72,1.08,6.47,2.16,12.94,2.94,19.45a163.06,163.06,0,0,1,1.3,19.75A162.84,162.84,0,0,1,893,241c-.8,6.5-1.75,13-2.3,19.5a122.66,122.66,0,0,0-.06,19.64c.51,6.58,1.32,13.13,1.71,19.71s.5,13.27.46,19.91c0,3.27-.07,6.53-.13,9.8a84.3,84.3,0,0,1-.31,9.41c-.35,2.68-1.78,4.18-3.54,6.07a13,13,0,0,0-3.76,7.1c-.41,2.78,0,5.64-1.07,8.3s-2.7,5.18-3.62,8c-1.84,5.67-1.85,11.78-1.5,17.66.56,9.53,2.27,20.16-2.77,28.87a15.63,15.63,0,0,1-3.69,4.4c-2.07,1.65-4.72,2.32-6.76,4-2.21,1.85-2.88,4.49-4.06,7a15.75,15.75,0,0,1-4.7,5.59,51.38,51.38,0,0,1-14.31,7.5c-5.13,1.8-10.71,2.79-16,1-2.7-.91-5-2.72-7.68-3.65-3.13-1.07-6.48-.75-9.68-.15a57.19,57.19,0,0,1-8.52,1.43,26.31,26.31,0,0,1-15.47-4.29c-3.26-2.1-6.27,3.09-3,5.18a32.39,32.39,0,0,0,17.2,5.13,43.56,43.56,0,0,0,9.43-1.25c3-.64,6.08-1.31,9-.07s5.19,2.93,8.15,3.76a25,25,0,0,0,8.91.75c6.23-.59,12.11-2.86,17.64-5.71,5-2.59,10.15-5.68,13.3-10.53a21,21,0,0,0,1.81-3.72,9.61,9.61,0,0,1,1.71-3.26,11.33,11.33,0,0,1,3.11-1.8,19.19,19.19,0,0,0,3.3-2c8.22-6.26,10.17-17.61,9.82-27.34-.23-6.17-1.1-12.32-.84-18.51a31.12,31.12,0,0,1,1.5-8.67c1-2.87,2.73-5.38,3.72-8.24s.45-5.89,1.06-8.83c.49-2.37,2.58-3.83,4-5.6,4.29-5.16,3.49-12.16,3.61-18.47a357.56,357.56,0,0,0-1.42-41.53,150.7,150.7,0,0,1-1-20.59c.27-6.84,1.15-13.64,2-20.42s1.76-13.59,2-20.43a144.44,144.44,0,0,0-.8-20.38c-.72-7-1.78-13.87-2.91-20.77-1-5.87-1.36-13.06-6.8-16.72a8.8,8.8,0,0,0-8.05-1.1l3.8,2.89c-.28-8.26-.6-16.58-1.48-24.79-.61-5.76-3-12.86-9.85-13.13a3,3,0,0,0-3,3,28.57,28.57,0,0,1-3.47,12.74,28,28,0,0,1-3.67,5.24,42,42,0,0,0-4.53,5.44c-2.77,4.42-2.17,9.8-2,14.77l.48,16.83L859,223l.47,16.52c.08,2.72,0,5.5.31,8.21s1.42,5,2.69,7.45a13.73,13.73,0,0,1,1.06,6.44c0,2.75-.09,5.5-.14,8.25l-.28,16.47-.57,33.27c-.09,5.58-.17,11.15-.28,16.73,0,1.89,0,4.08-1.26,5.64-1.39,1.74-3.3,2.88-4.39,4.91-2.31,4.25-1.56,9.42-1.18,14s.88,9.27,1,13.92a46.47,46.47,0,0,1-1.2,13.35c-1,3.59-2.7,8.48-6.21,10.34-2.15,1.14-4.49,1.56-6.47,3.09a27.64,27.64,0,0,0-4.34,4.82,13.88,13.88,0,0,1-9.09,5.19,29.61,29.61,0,0,1-11.27-.94,52.89,52.89,0,0,1-11.3-4.11c-3.39-1.73-6.23-4-6.9-7.93-.72-4.24,0-8.59-2.11-12.55-1.06-2-2.81-3.34-4.42-4.84a7.92,7.92,0,0,1-2.5-4.81c-.68-4.21.15-8.52-.54-12.76s-3.43-7.8-5.62-11.52a11.24,11.24,0,0,1-1.3-9.87c2.3-7.17,8.24-13.33,7.32-21.35-.29-2.49-1.3-4.92-1.31-7.43a20.79,20.79,0,0,1,1.76-7.2,102.07,102.07,0,0,0,4.47-14.6c1.1-5.17,1.82-10.42,2.45-15.67a126.83,126.83,0,0,0,1.39-15.8,42.91,42.91,0,0,0-.9-8.15,39.27,39.27,0,0,1-1.09-7.06c-.08-5.21,1.7-10.41,2.71-15.48a244.37,244.37,0,0,0,4.26-63.75q-.51-7.75-1.51-15.45a3.08,3.08,0,0,0-3.8-2.89,113.92,113.92,0,0,1-28.52.63,3,3,0,0,0-3,3,3.06,3.06,0,0,0,3,3Z"/><path d="M781.32,437.05c-7.28-1.58-11.86-8-14.78-14.41-3.84-8.48-5.09-17.77-5.35-27a37.69,37.69,0,0,0-.84-7.71,46.22,46.22,0,0,0-2.22-6.44A36.55,36.55,0,0,1,755,368.26c-.09-5.06.3-10.15.52-15.21l.64-15.34.66-15.62A121.61,121.61,0,0,1,758,307.2c.8-4.8,2.22-9.46,3.28-14.2a142.9,142.9,0,0,0,2.35-14.54c2.23-19.39,1.09-39.12,4.78-58.34.93-4.81,2.35-9.47,3.57-14.21a56.13,56.13,0,0,0,1.64-15.28c-.22-10.32-1.16-20.66-1.78-31l-.47-7.73a3.07,3.07,0,0,0-3-3,3,3,0,0,0-3,3q1,15.88,1.93,31.77c.3,5.09.64,10.26,0,15.34s-2.42,9.67-3.58,14.51c-4.68,19.5-3.8,39.7-5.53,59.56-.43,4.89-1,9.77-1.93,14.61s-2.3,9.59-3.35,14.41c-2.22,10.14-2.1,20.71-2.53,31s-1,20.9-1.31,31.36a40.18,40.18,0,0,0,1.81,14.78c1.52,4.32,3.73,8.47,4.14,13.1.45,5.11.33,10.18,1.1,15.28a71.25,71.25,0,0,0,3.65,14.15c2.76,7.39,7.18,15,14.31,18.87a20.67,20.67,0,0,0,5.64,2.12,3.07,3.07,0,0,0,3.69-2.09,3,3,0,0,0-2.1-3.69Z"/><path d="M781.51,203.62a48.27,48.27,0,0,1-1.61,7,58.46,58.46,0,0,0-1.7,8.07,88.45,88.45,0,0,0-.13,16.11,3.07,3.07,0,0,0,3,3,3,3,0,0,0,3-3c-.29-5.29-.65-10.68.11-16s2.71-10,3.33-15.23c.19-1.61-1.52-3-3-3a3.07,3.07,0,0,0-3,3Z"/><path d="M777.35,251.34a137.46,137.46,0,0,1-.44,22.5,3,3,0,0,0,3,3,3.06,3.06,0,0,0,3-3,137.46,137.46,0,0,0,.44-22.5,3.07,3.07,0,0,0-3-3,3,3,0,0,0-3,3Z"/><path d="M770.23,294.29v7a3.09,3.09,0,0,0,.88,2.12,3,3,0,0,0,5.12-2.12v-7a3.15,3.15,0,0,0-.88-2.13,3,3,0,0,0-5.12,2.13Z"/><path d="M772,299.9c-3.9,1.73-5.19,6.28-5.72,10.13H772a63.44,63.44,0,0,1-1.47-7.28,11.92,11.92,0,0,1-.09-1.46c0-.22,0-.19,0,.11l.07-.26a3.48,3.48,0,0,1-.35.48c-.18.23-.35.14,0,.08s.59-.12.87-.2a8.85,8.85,0,0,0,1.64-.64c4.12-2.1,5.53-7.41,3.6-11.44a3,3,0,0,0-5.18,3c-.27-.55,0-.08,0,.08s.1.39.14.59c-.13-.66,0-.13,0,.05s0,.41,0,.61c0-.42,0-.27-.06,0s-.11.39-.18.59c.14-.39.09-.19-.06.06l-.32.53c.21-.34.14-.16-.07.05l-.44.43c.3-.27.17-.14-.08,0s-.64.26,0,.07a12.33,12.33,0,0,0-3.14,1.1c-2.46,1.61-2.45,4.46-2.11,7.05a67,67,0,0,0,1.56,7.91,3,3,0,0,0,5.78,0,22.25,22.25,0,0,1,1.05-4.55c-.19.51.16-.32.25-.49s.62-.9.25-.46c.11-.13.22-.25.34-.37s.57-.49.27-.26.17-.1.22-.13l.59-.29c1.48-.65,1.83-2.81,1.07-4.1a3.06,3.06,0,0,0-4.1-1.08Z"/><path d="M782.91,270.3c0-.1-.5-1.12-.25-.52l-.3-.75c-.22-.59-.43-1.18-.62-1.79a30.4,30.4,0,0,1-.85-3.54l-.15-.93c.1.68,0-.21,0-.28-.07-.62-.11-1.25-.14-1.88a28.08,28.08,0,0,1,.11-3.78,3,3,0,0,0-3-3,3.08,3.08,0,0,0-3,3,32.17,32.17,0,0,0,3,16.5,3,3,0,0,0,4.1,1.07,3.08,3.08,0,0,0,1.08-4.1Z"/><path d="M785.94,227.29a45.07,45.07,0,0,0,1.86-24.21c-.59-3.07-4.95-2.63-5.79,0a43.24,43.24,0,0,0,.71,28.08,3.08,3.08,0,0,0,3.69,2.1,3,3,0,0,0,2.09-3.69,37.88,37.88,0,0,1-.7-24.89H782a39.1,39.1,0,0,1-1.85,21,3,3,0,0,0,2.09,3.69,3.05,3.05,0,0,0,3.69-2.09Z"/><path d="M767.29,375c.9,3.73,3.86,6,6.49,8.54a14.2,14.2,0,0,1,4.45,9.17c.18,2.19.15,4.39.39,6.58a62.54,62.54,0,0,0,1.21,6.94,69.91,69.91,0,0,0,3.47,11.59c1.58,3.72,4.12,6.86,8.05,8.19a3,3,0,0,0,3.69-3.69c-1.09-4-3.39-7.33-5.71-10.67A61.63,61.63,0,0,1,783.44,401c-3.48-8-7-16.17-8.62-24.82a3,3,0,0,0-3.69-2.09,3.06,3.06,0,0,0-2.1,3.69c1.7,8.86,5.33,17.17,8.87,25.42A62.8,62.8,0,0,0,783.68,414c2.14,3.12,4.56,6.2,5.58,9.91l3.69-3.69a5.76,5.76,0,0,1-2.56-1.91,17.18,17.18,0,0,1-1.81-3.29,75.49,75.49,0,0,1-3.07-10.86,42.6,42.6,0,0,1-1-5.82c-.18-2.11-.14-4.23-.37-6.33a20.5,20.5,0,0,0-4.45-10.88,38.25,38.25,0,0,0-4-3.95c-1.3-1.23-2.25-2.18-2.63-3.77-.9-3.76-6.69-2.17-5.79,1.59Z"/><path d="M778.16,387.78c3.86,0,3.87-6,0-6s-3.87,6,0,6Z"/><path d="M775.2,384.79a38.93,38.93,0,0,0,.43,9.52A3.05,3.05,0,0,0,777,396.1a3,3,0,0,0,4.11-1.08,3.47,3.47,0,0,0,.3-2.31c-.06-.33-.1-.66-.15-1l.11.8a35.59,35.59,0,0,1-.18-7.72,3,3,0,0,0-3-3,3,3,0,0,0-2.12.87,3.45,3.45,0,0,0-.88,2.13Z"/><path d="M769.7,340.3a38.61,38.61,0,0,0-1.1-10.87,3,3,0,0,0-3.69-2.1,3.07,3.07,0,0,0-2.09,3.69,36.82,36.82,0,0,1,.71,3.77l-.11-.8a36,36,0,0,1,.28,6.31,3,3,0,0,0,3,3,3.07,3.07,0,0,0,3-3Z"/><path d="M876.39,225.14a113,113,0,0,0,1.66,27.72c1.44,8.54,3.14,17.1,2.61,25.81a35.81,35.81,0,0,1-3,12.81,3.09,3.09,0,0,0,1.08,4.11,3,3,0,0,0,4.1-1.08c3.69-8,4.4-16.82,3.63-25.5-.82-9.34-3.17-18.47-4-27.8a93.74,93.74,0,0,1-.07-16.07,3,3,0,0,0-3-3,3.06,3.06,0,0,0-3,3Z"/><path d="M954.73,182.79h-6a3.09,3.09,0,0,0-2.12.87,3,3,0,0,0,0,4.25,3.08,3.08,0,0,0,2.12.88h6a3.12,3.12,0,0,0,2.12-.88,3,3,0,0,0,0-4.25,3.16,3.16,0,0,0-2.12-.87Z"/><path d="M948.23,239.29v3a2.19,2.19,0,0,0,.26,1.15,2.7,2.7,0,0,0,1.58,1.59,2.41,2.41,0,0,0,1.16.26l.79-.11a3,3,0,0,0,1.33-.77,3.12,3.12,0,0,0,.88-2.12v-3a2.3,2.3,0,0,0-.26-1.16,2.34,2.34,0,0,0-.62-1,3.3,3.3,0,0,0-2.12-.87l-.8.1a2.94,2.94,0,0,0-1.32.77,3.13,3.13,0,0,0-.88,2.13Z"/><path d="M941.23,287.29v4a3.09,3.09,0,0,0,.88,2.12,2.25,2.25,0,0,0,1,.62,2.41,2.41,0,0,0,1.16.26,3.06,3.06,0,0,0,2.12-.88,3.12,3.12,0,0,0,.88-2.12v-4a3.15,3.15,0,0,0-.88-2.13,3.3,3.3,0,0,0-2.12-.87,3,3,0,0,0-2.12.87,3.13,3.13,0,0,0-.88,2.13Z"/><path d="M995.21,199.32a28.42,28.42,0,0,0,9.33,10,16.09,16.09,0,0,1,2,1.53c.26.25.76.78.83.88l.43.74c.75,1.83.2,4-.25,6a3.06,3.06,0,0,0,2.09,3.69,3,3,0,0,0,3.69-2.09,19.38,19.38,0,0,0,.54-8.15,10.73,10.73,0,0,0-4.08-6.14c-1.82-1.43-3.67-2.49-5.27-4a19.74,19.74,0,0,1-4.13-5.43,3,3,0,1,0-5.18,3Z"/><path d="M985.12,168.79c-.79-7.94-8-12.44-13.76-17l-20.81-16.55-5.07-4a20.53,20.53,0,0,0-5.28-3.42,9,9,0,0,0-2.62-.58,7.87,7.87,0,0,1-1.61,0c-.55-.2-.08.06-.05.1-.77-1-.56-3.37-.68-4.53a242,242,0,0,1-1.13-26.24,244.9,244.9,0,0,1,2.09-29.39l-5.12,2.12,15.2,17.06c4.3,4.82,8.67,10.15,14.73,12.83,3.1,1.38,6.41,1.9,9.63,2.9A25,25,0,0,1,979,107a118.5,118.5,0,0,1,14.13,13.85q3.33,3.83,6.29,8c1.88,2.61,3.54,5.38,5.53,7.91,4,5.14,9.55,6.84,15.77,7.74a43.66,43.66,0,0,1,8.26,1.66,12.86,12.86,0,0,1,6.28,4.89,56,56,0,0,1,4.3,7.86c1.52,3.14,3,6.31,4.35,9.53a100.85,100.85,0,0,1,6.24,19.93,110.55,110.55,0,0,1,1.51,21.73c-.06,7.47-.3,14.94-.48,22.41-.17,7.25-.22,14.51-.73,21.74a80.91,80.91,0,0,1-3.87,20.74c-2.3,6.69-5.71,12.94-9,19.18-3.54,6.67-7,13.41-10.62,20-3.23,5.86-9,9.71-13.2,14.81a72.41,72.41,0,0,0-10.37,16.39c-2.81,6.2-4.68,12.73-6.78,19.19C993,375.37,987.62,388,975.85,392a18,18,0,0,1-7.67.86l2.89,2.2-3.21-14.8c-1-4.38-1.74-8.85-3.05-13.14a26.45,26.45,0,0,0-5.76-10.66c-1.61-1.68-3.75-3-6.16-2.39a5.27,5.27,0,0,0-3.82,5.05l3.8-2.89a9.61,9.61,0,0,1-4.7-4.71c-1-2.1-.93-4.2-.76-6.46.33-4.42.28-10-4.93-11.46-2.07-.57-3.56,1-3.8,2.9a10.86,10.86,0,0,1-7.92,8.77l3.38,1.38c-5.83-13.32-1.94-28.69-.91-42.56a47.41,47.41,0,0,0,0-10.65c-.56-3.71-2.67-6.12-4.7-9.09-3.89-5.67-.9-13.47.69-19.47,3.95-14.82,9-29.73,8.81-45.26-.11-7.72-1.7-15.31-3.07-22.87s-2.22-15-1.39-22.65c1.73-15.77,8.11-32.92-1.08-47.67-2-3.27-7.23-.27-5.18,3,7.79,12.51,2.55,28,.68,41.36a77.46,77.46,0,0,0,.45,23.25c1.2,7.49,3,14.9,3.47,22.48,1,15.43-4,30.28-8,45-1.82,6.69-4.53,14.38-2.67,21.34.9,3.38,3.22,5.61,5,8.51s1.34,6.58,1.18,9.81c-.81,16.27-5.29,32.91,1.54,48.52a3,3,0,0,0,3.39,1.38,17,17,0,0,0,12.33-14.56l-3.79,2.89c.43.12.31,0,.48.57a8.64,8.64,0,0,1,.19,2.63c-.06,2.4-.46,4.74-.11,7.15A15.89,15.89,0,0,0,951.27,362c1.9.8,3.73-1.17,3.8-2.9,0,.5-1.06.8-1.06.79s.09,0,.26.27c.38.53,1,.95,1.37,1.47a18.06,18.06,0,0,1,2.26,3.93,46.45,46.45,0,0,1,2.52,8.66c1.65,7.46,3.24,14.95,4.86,22.42a3.07,3.07,0,0,0,2.9,2.2c12.41,1.2,23.12-8.38,28.54-18.72,6.44-12.3,8.16-26.43,15.27-38.45a67.51,67.51,0,0,1,12.31-15.19,37.52,37.52,0,0,0,6.89-7.78c2-3.23,3.63-6.7,5.4-10,6.91-13.05,15.11-26.12,18.06-40.78a133.12,133.12,0,0,0,2.16-22.1c.24-7.67.38-15.35.56-23,.35-14.91.81-29.81-3.5-44.28a144.09,144.09,0,0,0-8.12-20.47c-2.7-5.7-5.39-11.91-10.79-15.58-5.07-3.44-11.34-3.25-17.09-4.54a13.64,13.64,0,0,1-7.33-3.79c-2.21-2.34-3.79-5.26-5.64-7.87a125.86,125.86,0,0,0-13.23-15.74q-3.54-3.56-7.37-6.82a39.66,39.66,0,0,0-8.64-6c-3.27-1.54-6.78-2.07-10.19-3.15a21,21,0,0,1-7.92-4.89c-5.28-4.89-9.85-10.66-14.63-16L935.32,65c-1.94-2.17-4.82-.21-5.12,2.12A245.12,245.12,0,0,0,929,119.59c.18,2.13.37,4.26.62,6.38a9.79,9.79,0,0,0,1.62,5,6,6,0,0,0,4.78,2.26,6.18,6.18,0,0,1,2.39.27,11.65,11.65,0,0,1,2.37,1.58c7,5.43,13.87,11,20.81,16.54,3.81,3,7.65,6,11.43,9.1,2.48,2,5.81,4.64,6.15,8.08a3.08,3.08,0,0,0,3,3,3,3,0,0,0,3-3Z"/><path d="M975.9,322.57l-7.82-26.45c-1.21-4.09-2.66-8.27-2.85-12.57-.21-4.63.46-9.32.56-13.95.21-9.17.34-18.28,1.16-27.42.4-4.52.84-9,1.35-13.54a43.48,43.48,0,0,1,2.82-12.12c1.9-4.5,4.22-8.69,4.46-13.68.24-5.18-1.58-10.21-3.4-15a3,3,0,0,0-5.89.8A60.75,60.75,0,0,0,971,220.84a12.2,12.2,0,0,0,2,3.41c1,1.17,2.32,1.56,3.63,2.28,0,0,.65.41.37.2s.39.39.35.35.38.42.09.07a5.48,5.48,0,0,1,.35.49c.53.81,1,1.67,1.46,2.5a9.34,9.34,0,0,0,4.75,4.42,16.94,16.94,0,0,0,3.76.51,2.7,2.7,0,0,1,.81.21c.45.24-.27-.21.14.08l.34.34c-.11-.16-.1-.15,0,0,1.1,1.51,1.43,3.93,1.9,6l2,8.68,2,8.67c.64,2.81,1.39,5.63,1.81,8.48.79,5.46-1.13,10.27-3.37,15.14s-4.43,9.73-7.66,14c-3.1,4.08-7,7.48-9.81,11.8a19.34,19.34,0,0,0-2.87,6.89c-.23,1.31-.25,2.62-.35,3.94,0,.07-.09.7,0,.36s-.14.51-.17.61c-.1.33.24-.13,0,0s-.09.15.08-.12c.78-.37.91-.48.4-.32-3.74.95-2.15,6.74,1.6,5.78,2.8-.71,3.82-3.28,4.1-5.88.22-2.09.13-3.52.94-5.51,1.52-3.74,4.9-7,7.72-10.2a58.57,58.57,0,0,0,8.94-13.4c2.49-5.08,5.42-10.49,6.35-16.12,1-6.11-.75-12.08-2.09-18l-4-17.83A16.87,16.87,0,0,0,994,232.3a7.5,7.5,0,0,0-2.79-2.42,12.22,12.22,0,0,0-4.44-.86c-.57-.05.31.07-.61-.08-.11,0-.64-.27-.2,0a4.8,4.8,0,0,1-.48-.3c.42.32,0-.08-.13-.18s-.42-.5-.22-.25-.31-.47-.27-.41c-.28-.43-.52-.87-.77-1.31a12.65,12.65,0,0,0-4.07-4.92c-1.07-.65-2.28-.78-2.95-1.88a21.24,21.24,0,0,1-1.61-3.61,56.74,56.74,0,0,1-2.62-9,55.49,55.49,0,0,1-.56-18.36l-5.9.8c1.52,4,3.18,8.13,3.2,12.45,0,4-1.87,7.54-3.45,11.13-3.71,8.41-4.11,17.66-5,26.7S960,258,959.84,267.15c-.07,4.58-.46,9.13-.62,13.7a42.77,42.77,0,0,0,2,13.38c2.9,10,5.9,20,8.85,29.93,1.09,3.7,6.88,2.12,5.78-1.59Z"/><path d="M1001,159.16l7.9,6.45c1.93,1.58,4.1,3.2,5.42,5.35,1.53,2.49,1.28,5.61,1.42,8.42l.5,10a27.79,27.79,0,0,0,.41,4.64,9.8,9.8,0,0,0,2.45,4.31,49.33,49.33,0,0,1,5.15,5.85,40.57,40.57,0,0,1,5.89,15.23c1.36,7.29,1.2,14.79,1.11,22.18-.06,3.86,5.94,3.86,6,0,.17-13,.12-26.58-6.43-38.19a35.4,35.4,0,0,0-5.28-7.13c-.79-.82-1.79-1.61-2.45-2.45-.85-1.07-.75-2.38-.81-3.7l-.51-10.28c-.16-3.25,0-6.77-1.25-9.84-1.3-3.24-3.75-5.66-6.39-7.85-2.95-2.44-5.92-4.84-8.88-7.26a3.1,3.1,0,0,0-4.25,0,3,3,0,0,0,0,4.24Z"/><path d="M1018.5,257.78c2.08,1,3,2.43,3.51,4.83a10.36,10.36,0,0,1,.21,3.17,6.58,6.58,0,0,1-.12,1.18,17.84,17.84,0,0,1-.67,2.51,57.15,57.15,0,0,1-4.26,8.54,44.89,44.89,0,0,0-4,9.58c-1.9,6.88-2.13,14.08-2.82,21.14a13.1,13.1,0,0,1-.6,3.59c0-.05-.49.79-.35.62,0,0-.74.64-.38.38a3.35,3.35,0,0,1-1.38.63c-2.73.81-5.57.88-8.11,2.32-7.29,4.13-7.69,13.17-7.3,20.55a3,3,0,0,0,6,0c-.19-3.51-.45-7.14.67-10.53.72-2.21,2.34-4.45,4.39-5.19,2.79-1,5.86-.88,8.48-2.43,3.35-2,4.11-5.47,4.49-9.05.72-7,.87-14.07,2.81-20.86s6.68-12.18,8.51-18.92c1.67-6.14.17-14.23-6.06-17.25a3.1,3.1,0,0,0-4.11,1.08,3,3,0,0,0,1.08,4.11Z"/><path d="M977.69,351.46l-1.24,6.82a3.2,3.2,0,0,0,.3,2.31,3,3,0,0,0,4.11,1.08,3,3,0,0,0,1.38-1.8l1.24-6.82a3.25,3.25,0,0,0-.3-2.31,3,3,0,0,0-4.11-1.08,3,3,0,0,0-1.38,1.8Z"/><path d="M1052.06,171.8c3.94-2.7,7.8-5.6,11.86-8.11.66-.41.7-.57,1.37-.29a13.9,13.9,0,0,0,3,1.15,9.11,9.11,0,0,0,6-1.15c3.27-1.8,5.48-5,8.59-7a23.12,23.12,0,0,1,10-3.26,73.33,73.33,0,0,1,12,0c3,.17,6,.47,8.42,2.1a2.78,2.78,0,0,1,1.25,2.12c.07,1-.13,2-.11,3a9.23,9.23,0,0,0,.93,3.89c.87,1.84,2.26,3.37,3.14,5.21a20.94,20.94,0,0,1,1.58,5.56c.69,4.14.46,8.44.42,12.62l-.13,15a43.26,43.26,0,0,1-.15,6.64c-.33,1.93-1.84,3.41-2.86,5-2.36,3.72-3.27,8.11-3.62,12.45a101.51,101.51,0,0,0,0,13.51,52.48,52.48,0,0,0,2.79,14.13,55.19,55.19,0,0,1,3,13.3c.41,4.83.53,9.69,1.43,14.46.44,2.33,1.2,4.57,1.67,6.89a9.71,9.71,0,0,1-.56,5.61c-1.53,3.93-4,7.27-4.8,11.5-1.42,7.71,1.2,16.6-3,23.2a8.1,8.1,0,0,1-3.06,2.79l4.41,1.8c-2-5.64-4.93-12.24-11.29-13.92-7.25-1.92-13.6,3.77-16.77,9.73-1.68,3.16-2.86,6.56-4.63,9.67-.58,1-1.26,2.44-2.38,2.94a6.32,6.32,0,0,1-1.74.27,13.85,13.85,0,0,0-3.27.58c-3.3,1.16-5.05,4.1-6.14,7.24-.87,2.52-1.12,5.16-3,7a3.92,3.92,0,0,1-1.23.78c.36-.2-.34-.08,0,0a1.22,1.22,0,0,1-.65-.3c.55.37-.07-.1-.16-.19s-.23-.26-.34-.4q.3.39,0,0c-.33-.55-.67-1.09-1-1.65-1.45-2.56-3.35-5.22-6.66-5a3.09,3.09,0,0,0-3,3,6.6,6.6,0,0,1-1.74,3.72,6.53,6.53,0,0,1-4,2.12,7.17,7.17,0,0,0-.86,0c-.56,0-1.12,0-1.68,0a8.06,8.06,0,0,0-4,1.07,12.35,12.35,0,0,0-1.84,1.47c-.15.15-.49.14-.19.06s0,.06-.17-.05c.27.17-.22-.12-.22-.12a2.59,2.59,0,0,1-.41-.29c-1.47-1.25-2.18-3.24-2.77-5a27.84,27.84,0,0,1-1.38-6.38c-.43-5,.92-9.79,1.25-14.77.32-4.76-.87-10.21-4.82-13.29a3.11,3.11,0,0,0-4.24,0c-1,1-1.28,3.25,0,4.25a7.61,7.61,0,0,1,2.85,4.75,19.54,19.54,0,0,1,0,6.56c-.4,2.83-1,5.63-1.1,8.49a35,35,0,0,0,.66,8.11c.92,4.68,2.86,10.92,7.58,13.08a6.46,6.46,0,0,0,3.92.55,8.63,8.63,0,0,0,3.76-2.08,3.24,3.24,0,0,1,2.24-.38,14.76,14.76,0,0,0,3.75-.34,12.83,12.83,0,0,0,9.51-11.49l-3,3c.36,0,.69.18.12-.05.69.28-.62-.17.07.05l-.26-.21a2.5,2.5,0,0,1,.33.32c.49.24-.19-.36.13.14.58.9,1.08,1.85,1.63,2.76,1.51,2.52,3.76,4.67,6.9,4.54,3.31-.13,6-2.75,7.52-5.51a21.16,21.16,0,0,0,1.62-4.36,25.45,25.45,0,0,1,1.17-3.47c.53-1,.79-1.51,1.61-1.93-.43.23.69-.21.67-.21a6.64,6.64,0,0,1,.88-.12,19.1,19.1,0,0,0,3.28-.49c3.53-1,5.49-4.49,7-7.58,2.51-5.09,4.5-12.65,10.49-14.59,2.63-.86,4.7.12,6.39,2a9.48,9.48,0,0,1,1.13,1.58,20.37,20.37,0,0,1,1,1.83,34,34,0,0,1,1.69,4.13,3.05,3.05,0,0,0,4.41,1.79c7.8-4.15,8.55-13.8,8.46-21.62,0-4.45,0-8.8,2-12.87s4.47-8,4.09-12.74a46.48,46.48,0,0,0-1.58-7.46,44.62,44.62,0,0,1-1.08-6.9c-.45-5.06-.54-10.15-1.52-15.15-.92-4.71-3-9.09-4-13.77s-1-9.6-1-14.39c0-4.15.09-8.39,1.56-12.33a27.17,27.17,0,0,1,3.16-5.31,12.69,12.69,0,0,0,2-6.83c.16-5.08.09-10.19.14-15.28,0-4.81.25-9.66,0-14.46-.29-4.5-1.11-9.06-3.4-13-.87-1.5-2.5-3-2.58-4.8-.06-1.08.17-2.15.1-3.23a9.3,9.3,0,0,0-.85-3.36c-1.56-3.37-5.28-5.11-8.72-5.89a55.79,55.79,0,0,0-11.62-1,45.76,45.76,0,0,0-12.61,1.34,25.56,25.56,0,0,0-10.75,6,33.45,33.45,0,0,1-4,3.51,5.52,5.52,0,0,1-1.85.89c-.62.15-.28,0-.15,0a3.42,3.42,0,0,1-.64,0c.42.05-.44-.14-.56-.19a11.31,11.31,0,0,0-3.82-1.26,7.32,7.32,0,0,0-3.81,1.06c-2.1,1.17-4,2.72-6,4.08l-6.19,4.24a3.07,3.07,0,0,0-1.07,4.1,3,3,0,0,0,4.1,1.08Z"/><path d="M1004.19,349.92c5.86,3.43,7.25,10.69,7.58,17,.2,4-.38,8,0,12,.49,5.36,4,9.11,7.24,13.14l11,13.8c1.4,1.76,4.55.73,5-1.33.74-3.25,1.41-7,3.67-9.58,1.92-2.21,4.62-3.21,7.22-1.61,3.42,2.09,6.53,4.85,9.72,7.28l10.55,8a3,3,0,0,0,3.64-.47,3.1,3.1,0,0,0,.47-3.64c-2-3.72,1.23-8.12,3.86-10.58,3.46-3.24,7.74-5.54,10.79-9.24a21.68,21.68,0,0,0,3.79-7c.7-2,1.38-4.47,2.68-6,2.25-2.63,5.62-4.09,8.64-5.87,3.75-2.21,7.38-5.1,8.28-9.6l-5.89-.8a62.08,62.08,0,0,0,12.13,31.54,3.07,3.07,0,0,0,4.1,1.08c2.69-1.63,3.75-4.37,4.19-7.35.3-2,.22-5,1.91-6.42a23.69,23.69,0,0,1,4.09-2.21,21,21,0,0,0,4.16-3,25.37,25.37,0,0,0,5.74-8.16c3.08-6.85,3.65-14.21,4-21.63a81.55,81.55,0,0,1,1.26-12.67c.81-3.9,2.1-7.67,3.25-11.47,2.48-8.13,3.56-16.48,4.31-24.92s1.44-17,2.16-25.54,1.28-17,2.18-25.48a35.89,35.89,0,0,1,2.95-11,108.58,108.58,0,0,0,4.63-10.68c2.92-8.84.9-18.19.68-27.26a112.85,112.85,0,0,1,2.79-27.6c.73-3.22-3.77-5.38-5.49-2.31a4.15,4.15,0,0,0,4.22,6.07c3.23-.46,4.68-4,5.33-6.83,1.36-5.81-.27-11.76-2.5-17.12-2.46-5.94-5.39-11.7-8.13-17.51-2.63-5.55-5-11.3-8.1-16.62-2.74-4.74-6.42-9.08-11.56-11.25-4.77-2-10.63-2.16-14.94,1a18.92,18.92,0,0,0-5,5.92,33.7,33.7,0,0,1-3.64,5.83c-3.33,3.69-8.9,3.83-13.42,4.92a26.94,26.94,0,0,0-20.41,24.49l5.12-2.12c-3.67-4.14-7.23-8.4-11-12.43a9.63,9.63,0,0,0-6.25-3.41c-2.68-.16-5,1.33-7,2.84Q1050.55,134,1037,143.89a3.09,3.09,0,0,0-1.08,4.11,3,3,0,0,0,4.1,1.07q12.4-9,24.79-18l2.91-2.12a8.53,8.53,0,0,1,2.61-1.57c1.53-.37,2.63,1.21,3.54,2.23,3.49,3.9,6.94,7.84,10.41,11.76,1.83,2.07,5,.3,5.12-2.13A20.82,20.82,0,0,1,1102,121.54c4-1.6,8.35-1.74,12.38-3.13a17.91,17.91,0,0,0,10-8.53c1.78-3,3.34-6.94,7-8,3.53-1,7.58.35,10.32,2.66,3.53,3,5.73,7.14,7.72,11.23,2.36,4.85,4.62,9.75,6.92,14.63,2.51,5.32,5.35,10.59,7.35,16.13a26.7,26.7,0,0,1,1.79,7.67,13.7,13.7,0,0,1-.27,3.73,12.5,12.5,0,0,1-.52,1.71c-.08.22-.24.45-.3.68a1.26,1.26,0,0,0-.13.26c-.4,1,.47,1.46,2.62,1.49l-.41,1.51.15-.26-5.48-2.32a120,120,0,0,0-3,24.82c-.06,4.07.13,8.12.45,12.17a75.35,75.35,0,0,1,.33,11.92c-.62,7.66-5.4,13.9-7.56,21.1a59.66,59.66,0,0,0-1.84,12.18q-.54,6.34-1.07,12.67l-2.14,25.34c-.69,8.17-1.16,16.41-2.82,24.45s-4.92,15.46-6,23.56c-1,7.74-.42,15.71-2.27,23.33a27.47,27.47,0,0,1-4.13,9.53c-2,2.75-4.47,4.32-7.43,5.82a10.87,10.87,0,0,0-6.24,8.19c-.28,1.56-.36,2.95-.67,4.41a6.93,6.93,0,0,1-.46,1.53c-.31.6-.29.54-.72.8l4.1,1.08a56.44,56.44,0,0,1-11.31-28.52,3,3,0,0,0-2.6-2.94,3,3,0,0,0-3.29,2.15,6,6,0,0,1-2.15,3.68,25.25,25.25,0,0,1-4.33,2.88c-3.46,2-7.1,3.88-9.58,7.1-3.1,4-3.16,9.44-6.7,13.18s-8.06,5.93-11.34,9.71c-3.92,4.51-6.34,10.7-3.34,16.35l4.1-4.11-12-9.1-6-4.55a15,15,0,0,0-5.7-3.08,12,12,0,0,0-11.23,4.16c-3,3.39-4.1,7.79-5.06,12.07l5-1.32-9.86-12.4c-1.51-1.89-3.09-3.74-4.51-5.71a10.1,10.1,0,0,1-2.17-6.28c0-7.71.66-15.48-2.37-22.8a19.41,19.41,0,0,0-8.1-9.63c-3.34-1.95-6.36,3.23-3,5.18Z"/><path d="M1137.08,184.8a146.52,146.52,0,0,1,2.32,23.36c0,1.94,0,3.89,0,5.83a42.88,42.88,0,0,1-.23,5.67,3.6,3.6,0,0,1-.19.39c.06-.39.42-.16,0-.1s.11,0-.39.18l-.9.28a9.93,9.93,0,0,0-4.32,2.26c-2.73,2.74,1.51,7,4.25,4.24.26-.24.28-.28.08-.1a3.39,3.39,0,0,1,.53-.29c-.44.2.41-.13.44-.14.65-.21,1.31-.38,1.94-.63a6.58,6.58,0,0,0,4.22-4.1,23.41,23.41,0,0,0,.54-6.2c.06-2.11.08-4.21.05-6.32a156.55,156.55,0,0,0-2.54-25.92,3,3,0,0,0-3.69-2.1,3.08,3.08,0,0,0-2.1,3.69Z"/><path d="M618.72,194.93a41.59,41.59,0,0,0,1.74,14,50.62,50.62,0,0,0,6.32,12.68,19.68,19.68,0,0,1,2.76,5.54c.6,2.26.3,4.65.43,7,.25,4.52,1.7,8.78,3.19,13s3.27,8.87,2.6,13.43a3.11,3.11,0,0,0,2.1,3.69c1.41.38,3.45-.49,3.69-2.1A29.51,29.51,0,0,0,640,248.67c-1.36-4.19-3.15-8.32-3.84-12.7-.37-2.29-.15-4.63-.31-6.94a18.56,18.56,0,0,0-2-7.21c-2-4-4.94-7.41-6.59-11.62a36.58,36.58,0,0,1-2.53-15.27,3,3,0,0,0-6,0Z"/></svg>