<svg id="Capa_1" data-name="Capa 1" xmlns="http://www.w3.org/2000/svg" viewBox="0 0 350 350"><defs><style>.cls-1{fill:#fff;}</style></defs><title>varidades</title><path class="cls-1" d="M293.09,177a3.18,3.18,0,0,0,0-4A107.36,107.36,0,0,0,274.7,153.5a117.17,117.17,0,0,0,10-25.27,3.07,3.07,0,0,0-1.32-3.35A101.7,101.7,0,0,0,260.19,115c.49-4.43.77-9,.83-13.72a104.3,104.3,0,0,0-.49-12.62,3,3,0,0,0-2.23-2.8,99.58,99.58,0,0,0-27.15-.15,117.35,117.35,0,0,0-9.91-25.92A2.88,2.88,0,0,0,218,58.37a102.18,102.18,0,0,0-23.22,10.55A105.38,105.38,0,0,0,176.8,49.78a2.85,2.85,0,0,0-3.93,0,105.25,105.25,0,0,0-18.26,19.6A103.12,103.12,0,0,0,130.8,58.75a2.87,2.87,0,0,0-3.28,1.41,114.92,114.92,0,0,0-9.34,24.64,116.26,116.26,0,0,0-12.84-.87,88.14,88.14,0,0,0-11.91.52,2.89,2.89,0,0,0-2.68,2.33,118.24,118.24,0,0,0-.16,28.69A103.8,103.8,0,0,0,66,126a3.07,3.07,0,0,0-1.31,3.36,116,116,0,0,0,10.06,24.85A124,124,0,0,0,62.8,165.82c-.43.48-1,1-1.56,1.6-1.81,1.79-4.06,4-4.83,6.23-1,2.8,1.69,5.69,3.45,7.6.32.36.62.68.86,1a109.73,109.73,0,0,0,14.33,14.2,124,124,0,0,0-7.74,17.83c-.13.39-.31.86-.52,1.4-1,2.5-2.33,5.93-1.41,8.15.85,2,3.82,3.23,6,4.1.53.22,1,.41,1.36.58A119.17,119.17,0,0,0,89.49,235a127.54,127.54,0,0,0-.85,14.79c0,.69,0,1.47,0,2.3-.1,3.24-.23,7.26.92,10s4.24,2.64,6.54,2.68l1.17,0a110.81,110.81,0,0,0,21.27-.55,117.3,117.3,0,0,0,10,26.26,2.85,2.85,0,0,0,3.28,1.4,102.65,102.65,0,0,0,23.33-10.62,104.78,104.78,0,0,0,17.77,18.91,2.84,2.84,0,0,0,3.93,0A105.65,105.65,0,0,0,195,280.75a103.64,103.64,0,0,0,24,10.71,2.86,2.86,0,0,0,3.29-1.4,116.07,116.07,0,0,0,9.31-24.56,116.46,116.46,0,0,0,13.28.87,87.61,87.61,0,0,0,11.55-.52,2.9,2.9,0,0,0,2.68-2.33,118.83,118.83,0,0,0,.15-28.7,103.79,103.79,0,0,0,24.45-10.51,3.08,3.08,0,0,0,1.3-3.36,115.2,115.2,0,0,0-10-24.79A105,105,0,0,0,293.09,177ZM147.4,255c10.65-6.35,18.73-16.12,24.06-29.12l-.19,24.22a5.06,5.06,0,0,0-2,4,51.25,51.25,0,0,0-13.95,17c-1.23-2-2.39-4-3.43-5.94h0A73.63,73.63,0,0,1,147.4,255Zm-5.29,2.77.12,0c.77,2.13,1.63,4.23,2.57,6.26a101.06,101.06,0,0,0,6.92,12.44,99.44,99.44,0,0,1-19.31,9,112.07,112.07,0,0,1-8.19-22.09A78.7,78.7,0,0,0,142.11,257.77ZM72.55,216.59c.24-.61.47-1.18.64-1.67A114.74,114.74,0,0,1,79.72,200,82.14,82.14,0,0,0,96,209.25a89.87,89.87,0,0,0-5.69,19.8A97.09,97.09,0,0,1,71.08,221,32.07,32.07,0,0,1,72.55,216.59Zm6.79-66a111.75,111.75,0,0,1-8.48-20.49,98.47,98.47,0,0,1,20.61-8.63,87.76,87.76,0,0,0,5.52,19A79.82,79.82,0,0,0,79.34,150.56ZM180.23,95.22a51.67,51.67,0,0,0,14-16.55c1.4,2.23,2.69,4.48,3.85,6.7h0a72.86,72.86,0,0,1,4.31,9.94,54.87,54.87,0,0,0-20.7,21.54,71.78,71.78,0,0,0-3.69,8.21l.2-25.56a5.06,5.06,0,0,0,2-4.08Zm73.63,45.57A90.19,90.19,0,0,0,259.37,121a98.33,98.33,0,0,1,19.17,8,110.93,110.93,0,0,1-8.52,21A79.81,79.81,0,0,0,253.86,140.79Zm-21.45,19.34c-8,6-18.45,10-31,11.67H182.73c-.1-.26-.21-.52-.33-.77l9.88-10.31a4.92,4.92,0,0,0,.41-.31c13.61-11.82,27.17-17.92,40.26-18.13a48.18,48.18,0,0,1,12.8,2A48.34,48.34,0,0,1,232.41,160.13Zm-27.08-41.06c-1.33,11.92-6.65,23.86-16.26,36.5l-10.79,11.28-.61-.25.11-14.43a3.23,3.23,0,0,0,.21-.88c1.53-14.91,5.25-26.68,11.35-36a47,47,0,0,1,14.74-14.21A52.13,52.13,0,0,1,205.33,119.07Zm-27.91,80.74.12-16.38a7.27,7.27,0,0,0,.91-.38l10.37,11c10,13,15.55,25.77,16.63,37.92a52.77,52.77,0,0,1-1.69,18.17,47.21,47.21,0,0,1-13.37-12.09c-6.8-9.15-11.06-21.69-12.67-37.26A3.14,3.14,0,0,0,177.42,199.81Zm51.29,7.75c-11.49-1.15-23.57-7.15-35.89-17.81l-.06,0-10.27-10.94a9.49,9.49,0,0,0,.38-1h12.67a2.56,2.56,0,0,0,1.72.5c14,1.62,25.09,5.55,33.85,12a48,48,0,0,1,13.5,15.81A43.6,43.6,0,0,1,228.71,207.56Zm20.13-37.69a4.8,4.8,0,0,0-2.55,1.93h-22.6c10.76-4.7,19.13-11.71,24.95-20.89,1-1.5,1.86-3.09,2.72-4.73A72.28,72.28,0,0,1,265,153.61,50.8,50.8,0,0,0,248.84,169.87ZM118.41,142.26c11.78.39,24.25,5.88,37.06,16.33l11.9,12.66c-.09.18-.17.37-.24.55H150.87c-13.82-1.82-24.67-5.93-33.19-12.55A48.09,48.09,0,0,1,105.05,144,44.3,44.3,0,0,1,118.41,142.26Zm-14.25,63.55a49.22,49.22,0,0,1,16.56-18h0c8.32-5.3,18.46-8.54,31-9.88a3.58,3.58,0,0,0,.53-.11H167c.07.21.14.42.22.61l-13.66,14.27c-10.27,8.17-20.43,13.08-30.18,14.58A44.39,44.39,0,0,1,104.16,205.81Zm-4-25.9h.15a4.6,4.6,0,0,0,4.06-2.13h23.12c-11.72,4.88-20.74,12.41-26.87,22.44-.67,1.09-1.34,2.28-2,3.63a64.49,64.49,0,0,1-7.41-3.57c-2.12-1.2-4.29-2.56-6.47-4.07A50.94,50.94,0,0,0,100.18,179.91Zm71.73-13.15a4.37,4.37,0,0,0-.49.23L160,154.85l-.13-.2c-9.76-13.14-15.07-26-15.78-38.19A52.7,52.7,0,0,1,145.85,100a47.16,47.16,0,0,1,14.25,13.14c6.38,9.07,10.4,21.24,11.94,36.18Zm-67.52,5a4.66,4.66,0,0,0-4.14-2.12,50.05,50.05,0,0,0-16.5-15c1.81-1.3,3.63-2.51,5.42-3.62a68.29,68.29,0,0,1,10.37-5.25,55.16,55.16,0,0,0,19.39,21.49,63.09,63.09,0,0,0,8.62,4.48Zm39.82,60.28c1.06-12,6.55-24.68,16.32-37.58h0a3.31,3.31,0,0,0,.61-1.27l10-10.39a7.33,7.33,0,0,0,.69.34l-.15,20c-3.36,22.08-12.1,37.56-26,46A52.56,52.56,0,0,1,144.21,232.08Zm76.3-54.29h25.78a4.75,4.75,0,0,0,3.22,2.08A50.44,50.44,0,0,0,266,195.47c-2,1.45-4.09,2.79-6.13,4a66.09,66.09,0,0,1-9.74,4.81c-5.08-9.56-11.91-16.95-20.32-22A64.46,64.46,0,0,0,220.51,177.79Zm33.77-61.45a3.87,3.87,0,0,0-.12.83,104.8,104.8,0,0,1-3,13.64,73.42,73.42,0,0,1-2.84,8,54.18,54.18,0,0,0-15.4-2.52,56.18,56.18,0,0,0-22.36,5.3l16.74-17.48a4.61,4.61,0,0,0,4.2-1.4,5.36,5.36,0,0,0,0-7.22A4.93,4.93,0,0,0,228,114a4.64,4.64,0,0,0-3.39,1.5,5.26,5.26,0,0,0-1.31,4.37l-16.89,17.63a67.19,67.19,0,0,0,4.19-14.41,59.24,59.24,0,0,0-1.29-24.83,61.4,61.4,0,0,1,8-3.18,91.78,91.78,0,0,1,27.21-4c3.12,0,6.18.07,9.1.3l1.43.13A109.42,109.42,0,0,1,254.28,116.34ZM207.53,92.55c-.72-2-1.54-4-2.43-6a98,98,0,0,0-7-12.72,99.91,99.91,0,0,1,19.22-9,111.72,111.72,0,0,1,8.11,21.8A76.31,76.31,0,0,0,207.53,92.55ZM176.7,90.48a4.93,4.93,0,0,0-1.33-.21,4.4,4.4,0,0,0-2.53.74,45.46,45.46,0,0,1-14.17-17.18,103,103,0,0,1,16.17-18,101.36,101.36,0,0,1,15.67,17.32A45.67,45.67,0,0,1,176.7,90.48Zm-4.27,9-.19,25c-4.52-12-11.38-21.29-20.47-27.63-1.27-.89-2.61-1.74-4.08-2.59a76.21,76.21,0,0,1,4.42-9.77c.9-1.67,1.87-3.35,2.9-5A51.16,51.16,0,0,0,170.6,96.67,5,5,0,0,0,172.43,99.44ZM145.05,85.5c-.92,1.94-1.76,4-2.52,6a77.36,77.36,0,0,0-18.61-5.79,112,112,0,0,1,7.55-20.47,98.79,98.79,0,0,1,19.8,9.09A101,101,0,0,0,145.05,85.5Zm-6.37,34.67a66.23,66.23,0,0,0,4.36,16.6l-16.36-17.41a5.22,5.22,0,0,0-1.3-4.41,4.8,4.8,0,0,0-3.48-1.51h0a4.83,4.83,0,0,0-3.49,1.5,5.36,5.36,0,0,0,0,7.21,4.61,4.61,0,0,0,4.18,1.43l17.08,18.18a56.54,56.54,0,0,0-23.3-5.34,48,48,0,0,0-13.94,2.06,70.8,70.8,0,0,1-3-8.7A109.75,109.75,0,0,1,95.76,101c0-3.16.08-6.27.29-9.25,0-.53.07-1,.12-1.58a93.12,93.12,0,0,1,36.49,3.92,64.71,64.71,0,0,1,8,3.15A58.68,58.68,0,0,0,138.68,120.17Zm-42.9,53.28a5.56,5.56,0,0,0-.19,1.34,5,5,0,0,0,.14,1.19,45.34,45.34,0,0,1-16.12,16.45A105.83,105.83,0,0,1,70,183.66c-2.33-2.38-4.34-4.63-6.14-6.86-.2-.25-.39-.53-.59-.82s-.44-.62-.67-.92a99.94,99.94,0,0,1,16-16.4A44,44,0,0,1,95.78,173.45Zm-.3,60a1.68,1.68,0,0,0,0-.32,86.78,86.78,0,0,1,6-21.87c11.89,3.62,24.22,2.76,36.71-2.53l-16.08,16.79a4.63,4.63,0,0,0-4.21,1.4,5.36,5.36,0,0,0-.34,6.82,2.74,2.74,0,0,0,2.73,2.26,2.82,2.82,0,0,0,1.41-.36,4.6,4.6,0,0,0,3.14-1.49,5.23,5.23,0,0,0,1.32-4.37l17.6-18.39a68,68,0,0,0-4.91,17A59,59,0,0,0,140.44,252c-10.31,4.9-22.92,7.27-37.55,7.05h0c-2.23,0-4.42-.13-6.51-.29-.21,0-.52-.09-.88-.16l-.63-.12c0-.93-.12-1.86-.21-2.77s-.17-1.63-.2-2.4A117.67,117.67,0,0,1,95.48,233.42Zm77,25.59a4.64,4.64,0,0,0,1.58.32,4.83,4.83,0,0,0,1.54-.26,45.11,45.11,0,0,1,15.2,17.36,102.44,102.44,0,0,1-16,17.76A100.68,100.68,0,0,1,159,276.64,45.67,45.67,0,0,1,172.5,259Zm4.53-8.85.19-25.17c4.58,12.66,11.71,22.35,21.25,28.87,1,.7,2.16,1.41,3.44,2.16a74.46,74.46,0,0,1-4.09,9.1c-1,1.92-2.15,3.87-3.36,5.82A51,51,0,0,0,179,254.21,5,5,0,0,0,177,250.16ZM204.87,264c.8-1.73,1.54-3.49,2.2-5.24a77.84,77.84,0,0,0,18.72,5.88A111.83,111.83,0,0,1,218.26,285a98.8,98.8,0,0,1-19.93-9.16A101.86,101.86,0,0,0,204.87,264Zm5.91-35.75A66.7,66.7,0,0,0,206.56,213l16.22,17.26a5.2,5.2,0,0,0,1.3,4.41,4.76,4.76,0,0,0,3.47,1.5h0a4.75,4.75,0,0,0,3.48-1.5,5.34,5.34,0,0,0,0-7.21,4.64,4.64,0,0,0-4.18-1.42l-16.5-17.57a57.64,57.64,0,0,0,14.73,4.64,49.67,49.67,0,0,0,22.14-1.54,71.92,71.92,0,0,1,3,8.44A109.32,109.32,0,0,1,254,248.91c0,3.32-.08,6.57-.29,9.66l-.12,1.57a91.68,91.68,0,0,1-23.46-.81,2.69,2.69,0,0,0-.7-.11,92.25,92.25,0,0,1-11.85-2.84A65.42,65.42,0,0,1,209,253,59.06,59.06,0,0,0,210.78,228.23Zm48.13-21.42a91.82,91.82,0,0,0,11.33-7.05,112.93,112.93,0,0,1,8.51,20.52,98.69,98.69,0,0,1-20.44,8.58,88.11,88.11,0,0,0-5.63-19.19C254.79,208.82,256.88,207.86,258.91,206.81ZM254.59,177a5.37,5.37,0,0,0,.49-2.16,5.07,5.07,0,0,0-.75-2.7,44.37,44.37,0,0,1,15.87-14.65A103.26,103.26,0,0,1,287.31,175a100,100,0,0,1-16.15,16.51A44.15,44.15,0,0,1,254.59,177Z"/></svg>