<svg xmlns="http://www.w3.org/2000/svg" viewBox="0 0 1140.08 477.04"><title>ChinchudoLogo</title><g id="Capa_2" data-name="Capa 2"><g id="Capa_1-2" data-name="Capa 1"><path d="M116.73,127.74c-6.86,1.6-12.37-5.36-14.39-11.09C100,110,99.62,102.58,96,96.33,90.15,86.19,77.65,83.6,70.3,75c-3.75-4.38-4-10.06-6.17-15.17s-7.27-8.15-12.51-5.43c-5.42,2.82-7.88,9.38-9.78,14.77q-4.22,12-8.1,24A921.39,921.39,0,0,0,8.29,190.09q-2.52,12.27-4.71,24.6-1.08,6.09-2.07,12.19C.88,230.74-.08,234.76,0,238.69a15.27,15.27,0,0,0,3.87,9.52,41.1,41.1,0,0,1,5.76,8.45c2.71,5.83,3.35,12.4,3.51,18.74.34,13.26-1.48,27,3.82,39.59s15.73,21.66,26.35,29.55c2.68,2,5.41,3.93,8.15,5.84a1.5,1.5,0,0,0,2-.53c1.64-3.54,4.36-8.14,8.35-9.33,5.46-1.62,6.86,6.2,7.07,9.91.55,9.58-2.91,19.17.92,28.44a15.12,15.12,0,0,0,8.82,8.89,1.51,1.51,0,0,0,1.84-1.85c-2.69-7.86,3.6-17.28,12-17.53a1.51,1.51,0,0,0,1.44-1.9c-1.7-7.28,1.11-14.4,4.1-20.94,3.19-7,6.58-13.8,7.65-21.5,1.18-8.47.22-17-.57-25.49l-2.51-26.88c-.81-8.68-.65-18.45-5-26.28-.93-1.69-3.52-.18-2.59,1.51,3.94,7.16,3.76,16.19,4.5,24.11L102,297.24c.8,8.53,1.9,17.22.83,25.78-1,7.72-4.43,14.51-7.6,21.5-3.25,7.18-6,14.81-4.17,22.76l1.45-1.9c-10.24.31-18.24,11.57-14.89,21.33l1.85-1.85c-9.47-3.35-8.86-16.08-8.06-24.05.56-5.63,1.24-11.64-.69-17.11-1.44-4.09-5.08-7.41-9.65-6.07-4.8,1.4-8.17,6.42-10.15,10.7l2-.54c-10.82-7.57-22.15-15.6-29.46-26.85a44,44,0,0,1-6.7-17.75c-1-6.65-.74-13.42-.65-20.11.08-6.47.09-13-1.18-19.38a35.92,35.92,0,0,0-8-16.37,20.83,20.83,0,0,1-3.14-4.49A12.06,12.06,0,0,1,3.05,237c.25-3.94,1.12-7.89,1.76-11.78q2-12.21,4.38-24.34a923.17,923.17,0,0,1,23.73-95q3.59-11.67,7.48-23.24,2-5.86,4-11.69a42.19,42.19,0,0,1,4-9.2c1.41-2.19,3.44-4.65,6.14-5.2s4.91,1.06,6.16,3.28c2.65,4.69,2.6,10.39,5.59,15,6.12,9.37,18.19,12,25.2,20.41,4.47,5.4,5.17,12.64,6.94,19.16,1.63,6.06,4.88,12.33,10.73,15.28a12,12,0,0,0,8.29,1c1.88-.44,1.09-3.34-.79-2.89Z"/><path d="M89.77,248.49c1.88,10.28-1.26,20.61-4.43,30.3Q80.36,294,75,309.13q-3,8.53-6.16,17c-.67,1.81,2.23,2.6,2.9.8q5.66-15.41,11-30.92,2.66-7.77,5.22-15.56a129,129,0,0,0,4.29-15.29,46.67,46.67,0,0,0,.43-17.51c-.35-1.89-3.24-1.09-2.89.8Z"/><path d="M68.11,326.57c-4.64-2.94-5-9.62-6.35-14.41a18.89,18.89,0,0,0-3.5-7.34A11.87,11.87,0,0,0,50.92,301c-3-.5-6-.35-9-.73-2.82-.35-5.51-1.42-6.3-4.43a18.83,18.83,0,0,1-.17-5.95c.14-2.1.37-4.2.67-6.29.6-4.14,1.44-8.23,2.36-12.31C42,255.5,47.33,239,43.69,222.78a78.34,78.34,0,0,0-4-11.72c-1.44-3.65-2.94-7.5-3-11.46-.09-4.13,1.77-7.29,4.37-10.34a43,43,0,0,0,6.27-9.08c6.53-13.57,4.24-29.55,1.22-43.73q-.57-2.67-1.19-5.34c-.44-1.88-3.33-1.09-2.9.79,3.3,14.22,6.69,30.26,1.3,44.4a32.72,32.72,0,0,1-5.62,9.43c-2.5,3-5.12,5.86-6,9.75-1.88,8.06,2.8,15.84,5.35,23.19,5.56,16,.58,32.94-3.14,48.78-1.93,8.17-3.8,16.56-4,25-.07,3.56.83,7.13,4,9.14,2.45,1.55,5.54,1.73,8.36,1.87s6,.07,8.72,1.34a9.78,9.78,0,0,1,4.74,5.81c1.9,5.19,2,11.26,5.45,15.8a11.36,11.36,0,0,0,3,2.76c1.63,1,3.14-1.55,1.51-2.59Z"/><path d="M46.49,125.42c.11-.09.27,0,.29-.1s-.31-.49-.34-.57a1.11,1.11,0,0,1,.29-1.38c1.37-1.24,3.79-1.27,5.44-2,3.48-1.54,5.29-5.17,6-8.73.87-4.17.21-8.74,1.93-12.72,1.11-2.59,5.06-5.79,7.84-3.46l-.44-1.06a124,124,0,0,0,1,30.73c.29,1.91,3.18,1.1,2.89-.79A119,119,0,0,1,70,103.6c0-1.61.12-3.22.23-4.83s.86-3.71-.71-4.87a6.92,6.92,0,0,0-6.67-.56C57,95.7,56.18,102,55.79,107.63c-.19,2.73-.45,5.56-1.79,8a7.14,7.14,0,0,1-2.12,2.48,14.12,14.12,0,0,1-4.06,1.48c-2.65.81-5.12,2.61-4.34,5.71.61,2.4,3,4,5.13,2.23,1.5-1.21-.63-3.32-2.12-2.12Z"/><path d="M74,126.46c1.84.58,1.53,3.31,1.49,5-.07,2.49-.26,5.17.87,7.47,1.59,3.23,5.12,3.49,8.31,3.52,1.28,0,3.48,0,4.29,1.21.29.45.4,1.86-.35,1.86a1.5,1.5,0,0,0,0,3c2.83,0,4.18-3.19,3.3-5.6-1.14-3.11-4.9-3.46-7.73-3.47-1.47,0-3.29.07-4.47-1A4.07,4.07,0,0,1,78.59,136c-.35-2.19,0-4.43-.07-6.63-.13-2.58-1-4.94-3.69-5.77-1.85-.57-2.64,2.32-.8,2.89Z"/><path d="M87.8,152.42c-1.23,5.38-2,12.62,1.91,17.13,2.21,2.55,5.14,2.67,8.26,3.12,1.5.21,3,.79,3.19,2.47s-.53,3.54-1.2,5c-.79,1.75,1.79,3.28,2.59,1.52,1.33-2.95,2.69-6.86.42-9.72-2.4-3-6.26-1.65-9.33-3.13-2.43-1.16-3.36-3.92-3.65-6.42a27,27,0,0,1,.71-9.21c.43-1.88-2.46-2.68-2.9-.8Z"/><path d="M101,183c3.26-5.85-1.4-11.72-3.11-17.23a11,11,0,0,1-.58-4.29,10.49,10.49,0,0,1,1.9-4.68c2-3,4.61-5.53,6.13-8.85a21.84,21.84,0,0,0,1.62-12.83c-.32-1.9-3.21-1.09-2.89.8a18.27,18.27,0,0,1-1.5,10.9c-1.52,3.14-4,5.58-6,8.47a12.44,12.44,0,0,0-2.15,9c.47,3,1.89,5.75,3.08,8.51s2.42,5.87.86,8.66c-.93,1.69,1.66,3.21,2.59,1.52Z"/><path d="M108.61,135a16.38,16.38,0,0,0,2.56,11.87,1.51,1.51,0,0,0,2.79-.76q-.09-7.49-.19-15a1.5,1.5,0,0,0-3,0q.11,7.5.19,15l2.8-.75a13.36,13.36,0,0,1-2.26-9.56,1.55,1.55,0,0,0-1-1.84,1.5,1.5,0,0,0-1.84,1Z"/><path d="M22.23,199.49a232.14,232.14,0,0,1,.62,34.28c-.11,1.93,2.89,1.92,3,0a232.14,232.14,0,0,0-.62-34.28c-.17-1.9-3.17-1.92-3,0Z"/><path d="M29,180.08c-2-4.35.35-10,4.78-12a1.51,1.51,0,0,0,.54-2.05,1.53,1.53,0,0,0-2-.54c-6,2.66-8.51,10.31-5.86,16.13a1.53,1.53,0,0,0,2.06.54,1.55,1.55,0,0,0,.53-2.06Z"/><path d="M38.92,161.05l-.29-27c0-3.38-.3-6.86.47-10.19.58-2.48,1.72-5,4.42-5.58,1.88-.42,1.09-3.31-.8-2.89-7,1.56-7.18,10.5-7.12,16.17l.32,29.48c0,1.93,3,1.93,3,0Z"/><path d="M54.21,94.39a21.82,21.82,0,0,1,8.45-13.76l-2.06-.54a59.35,59.35,0,0,0,21.2,24.4c3.16,2.08,6.56,3.88,9.26,6.58s4.83,7,3.2,10.73c-.76,1.75,1.83,3.28,2.59,1.51a11.82,11.82,0,0,0-.73-10.45c-1.84-3.45-5-5.91-8.18-8A98,98,0,0,1,78.1,98a58.45,58.45,0,0,1-8-8.25A56.65,56.65,0,0,1,63.2,78.58,1.52,1.52,0,0,0,61.14,78a24.8,24.8,0,0,0-9.82,15.55c-.34,1.89,2.55,2.7,2.89.8Z"/><path d="M178.36,214.55a584.68,584.68,0,0,1-3.57-59.89c0-5.22-.6-10.94,1.4-15.88.72-1.79-2.18-2.57-2.89-.8-1.78,4.4-1.54,9.31-1.52,14q0,7.53.24,15.06.45,15.18,1.68,30.33.69,8.61,1.66,17.21c.21,1.9,3.21,1.92,3,0Z"/><path d="M174.49,137.43c-3.1,0-6.21,0-9.31,0-.68,0-1,.15-1.06-.57s-.11-1.27-.14-1.9a12,12,0,0,1,.32-4,17.16,17.16,0,0,1,1.91-3.42,11.67,11.67,0,0,0,1.37-3.62,26.62,26.62,0,0,0,0-8.31c-.22-1.9-3.22-1.92-3,0,.35,3,.78,6.28-.33,9.19-.54,1.42-1.59,2.56-2.25,3.92a11.2,11.2,0,0,0-1,4.52c-.1,2.51-.29,6.58,2.88,7.16a28.21,28.21,0,0,0,5.2.06l5.45,0a1.5,1.5,0,0,0,0-3Z"/><path d="M165.4,113.2l-3.81,2.48a14.64,14.64,0,0,0-3,2.2,5.08,5.08,0,0,0-1.16,3.24c-.08,1.13,0,2.08-.91,2.86s-1.79,1.21-2.61,1.92a15.73,15.73,0,0,0-5.14,9c-.34,1.89,2.55,2.7,2.89.8a13.19,13.19,0,0,1,2.51-5.79,12.78,12.78,0,0,1,2.23-2.24c.8-.62,1.72-1.1,2.47-1.8a4.76,4.76,0,0,0,1.42-2.79c.13-.91-.09-2.1.33-2.94s1.89-1.5,2.7-2l3.63-2.36c1.62-1,.12-3.65-1.51-2.6Z"/><path d="M150.68,135.56l.34-14.84c.12-4.92.43-9.89.31-14.81a12.69,12.69,0,0,0-1.63-6.14,27.57,27.57,0,0,1-2.6-6.28c-1-3.7-2.4-7.87-6.22-9.53-1.76-.77-3.29,1.82-1.52,2.59,3.65,1.58,4.26,5.88,5.28,9.27a29.13,29.13,0,0,0,2.58,5.65,11.67,11.67,0,0,1,1.1,6.17c-.19,9.3-.43,18.61-.64,27.92-.05,1.93,2.95,1.93,3,0Z"/><path d="M137.34,84.85c-.05,4.26-.06,9.42-3.08,12.79a7.86,7.86,0,0,0-1.83,2.35,11.45,11.45,0,0,0-.27,4l0,8.86a1.5,1.5,0,0,0,3,0l0-8.61c0-1.16-.33-2.76.48-3.67A18.83,18.83,0,0,0,137.72,98c2.41-3.88,2.57-8.7,2.62-13.13,0-1.93-3-1.93-3,0Z"/><path d="M133.68,118.89a1.5,1.5,0,0,0,0-3,1.5,1.5,0,0,0,0,3Z"/><path d="M131.66,109.16l2,120.34c.17,10,.32,20,.52,30a238.89,238.89,0,0,0,1.92,28.79c.69,4.83,1.9,9.66,1.64,14.57-.24,4.67-2,9.1-3.47,13.5-3,9.08-4.27,18.7-5.47,28.15a311.86,311.86,0,0,0-1.36,65.93,1.57,1.57,0,0,0,1.1,1.45l4.71,1.38c1.85.55,2.64-2.35.79-2.89l-4.7-1.38,1.1,1.44a311.58,311.58,0,0,1,.54-58.9,208,208,0,0,1,4.61-28.95c1.14-4.52,2.91-8.84,4.1-13.35a33.91,33.91,0,0,0,.59-13.68c-.7-4.92-1.59-9.78-2.06-14.73s-.72-9.86-.88-14.8c-.31-9.76-.39-19.54-.55-29.3l-1-60.13-1.14-67.43c0-1.92-3-1.93-3,0Z"/><path d="M134,411.83a11.45,11.45,0,0,0,3.32,7.66c1.16,1.15,4.85,3.22,3.54,5.19-1.07,1.61,1.53,3.11,2.59,1.51a4.47,4.47,0,0,0,.29-4.13,8.93,8.93,0,0,0-2.92-3.5,10.71,10.71,0,0,1-2.75-3,8.37,8.37,0,0,1-1.07-3.75c-.07-1.93-3.07-1.94-3,0Z"/><path d="M141.27,427.15a14,14,0,0,0,7.69,6.26c.52.17,1.5.24,1.84.73s.18,1.52.18,2.08v6.32a1.5,1.5,0,0,0,3,0v-6.63c0-1.92-.31-3.83-2.24-4.72-.79-.37-1.64-.53-2.45-.84a10.88,10.88,0,0,1-5.43-4.71,1.5,1.5,0,0,0-2.59,1.51Z"/><path d="M152.48,445a1.5,1.5,0,0,0,0-3,1.5,1.5,0,0,0,0,3Z"/><path d="M153.51,439.79a250.73,250.73,0,0,1-.55-56.91l-1.9,1.45a10,10,0,0,1,6.46,4.85,9.4,9.4,0,0,1,1.21,3.93,10.8,10.8,0,0,0,.82,4.43c1.46,2.75,5,2.76,7.48,4.06a15.22,15.22,0,0,1,6.35,6.29c.78,1.44,2.64.6,2.8-.75a142.88,142.88,0,0,0-1.09-41.24,1.53,1.53,0,0,0-1.85-1c-2,.38-4.22.66-5.47-1.23-1-1.54-1.28-3.46-2.16-5.08-1.42-2.63-5.81-5-8.12-2.05l2.51.66c-.74-3.38-.13-6.79.73-10.09s1.81-6.29,2.59-9.47a134.23,134.23,0,0,0,3.26-19.53,140,140,0,0,0-2.23-39.81c-1.22-6.28-2.3-14.17,3.36-18.71l-2.51-.66a27.78,27.78,0,0,1,1.34,8.73c0,1.94,2.9,1.92,3,0,0-.82.84-1.32,1.57-1.49a5,5,0,0,1,3.51.91c2.3,1.31,4.47,2.88,6.69,4.33,3.65,2.38,8.51,6.22,13.13,4.22a11.33,11.33,0,0,0,2.63-1.84c.21-.17.94-.9,1.29-.81s.55,1,.64,1.19a7.14,7.14,0,0,0,3.83,3.62c3.83,1.59,8,.36,11.2-2a65.18,65.18,0,0,0,5.86-5.41,8.15,8.15,0,0,1,3.29-2.29c.82-.2,2.17,0,2.19,1.1,0,1.92,3,1.93,3,0a4.44,4.44,0,0,0-4.48-4.19c-2.72-.06-4.89,2.06-6.69,3.82-3.24,3.16-7,7.65-12.12,6.57a5.16,5.16,0,0,1-2.3-1c-.91-.74-1.12-1.82-1.73-2.76-1.58-2.44-4.11-1.53-6,0-1,.81-1.84,1.59-3.2,1.61a8.35,8.35,0,0,1-3.77-1.06,81.43,81.43,0,0,1-7.72-4.87c-2.54-1.66-5.37-4.08-8.56-4.14a5,5,0,0,0-5.3,4.57h3a30.77,30.77,0,0,0-1.44-9.53,1.52,1.52,0,0,0-2.51-.66c-4.81,3.86-5.72,10.47-5,16.24.42,3.53,1.25,7,1.84,10.52s1,6.84,1.28,10.28a132.19,132.19,0,0,1-2.94,41c-1.69,7.28-5.3,14.93-3.64,22.52a1.5,1.5,0,0,0,2.5.66c.85-1.09,2.38,0,3,.86,1,1.27,1.3,3.12,2,4.58a6.62,6.62,0,0,0,3.56,3.62,10.65,10.65,0,0,0,5.87.08l-1.84-1.05a140.54,140.54,0,0,1,1,40.44l2.79-.76a18.18,18.18,0,0,0-6.6-6.91,19.06,19.06,0,0,0-4.33-1.86c-1.57-.46-2.9-.79-3.18-2.62a33.3,33.3,0,0,0-.58-4.55,12.76,12.76,0,0,0-1.94-3.95,13,13,0,0,0-7.48-5.06,1.54,1.54,0,0,0-1.9,1.45,250.73,250.73,0,0,0,.55,56.91c.24,1.89,3.24,1.91,3,0Z"/><path d="M225.51,270.6a62.52,62.52,0,0,0,0,14.34,25.66,25.66,0,0,0,1.77,6.37c.95,2.23,2.19,4.33,3.11,6.57a40.34,40.34,0,0,1,1.29,26.83c-.56,1.85,2.34,2.64,2.89.79a43.23,43.23,0,0,0-.81-27.21c-1.68-4.5-4.37-8.48-5.22-13.27s-.39-9.65,0-14.42c.16-1.92-2.84-1.91-3,0Z"/><path d="M232,325.36c-1,4-2,8-3,12a50.94,50.94,0,0,0-1.75,11.31c0,3.78,1,7.35,1.8,11a34.78,34.78,0,0,1,.62,11c-.72,7.42-3.47,14.56-6.41,21.35-1.41,3.27-3.21,6.62-2.78,10.3a39.52,39.52,0,0,0,1.25,5.24q.69,2.74,1.14,5.55c1.39,8.62,1.14,17.42.92,26.12,0,1.93,3,1.93,3,0,.19-7.59.38-15.22-.47-22.78a70.41,70.41,0,0,0-2.06-11.06,12.93,12.93,0,0,1-.78-5.36,20.36,20.36,0,0,1,1.82-5.22c3-6.76,5.79-13.7,7-21a39.7,39.7,0,0,0,.36-10.83c-.43-3.68-1.67-7.19-2.18-10.85-.62-4.35.22-8.73,1.22-13s2.13-8.65,3.2-13c.46-1.87-2.43-2.67-2.9-.79Z"/><path d="M226.44,440.07l3.67.88a10.62,10.62,0,0,1,3,.76c.64.41.61,1.47.86,2.16a10.07,10.07,0,0,0,1,2.08c1.63,2.54,4.51,4.58,4.93,7.74.19,1.44.22,3.06,1.32,4.16a3.36,3.36,0,0,0,2.33.92c1,0,1.26-.07,1.67.88a23.39,23.39,0,0,0,2.16,4.65,13.5,13.5,0,0,0,4.26,3.84,1.5,1.5,0,0,0,1.51-2.59,10.3,10.3,0,0,1-4-4.07c-.8-1.49-1-3.38-2.18-4.64a3.49,3.49,0,0,0-2.05-1c-.65-.09-1.36.23-1.72-.36a7.17,7.17,0,0,1-.39-2.46,8.33,8.33,0,0,0-.63-2.19c-1.29-2.89-4.21-4.77-5.35-7.72-.72-1.89-.76-3.5-3-4.26s-4.49-1.1-6.69-1.64c-1.88-.45-2.68,2.44-.8,2.9Z"/><path d="M254.17,468.11c2.49-7.75-.38-16.14,2.65-23.77a27.43,27.43,0,0,0,1.95-5.77,36.63,36.63,0,0,0,.31-6.1,96,96,0,0,1,.81-13.34c.11-.81-.77-1.49-1.5-1.5a1.54,1.54,0,0,0-1.5,1.5,92.44,92.44,0,0,0-.81,12.88,33.06,33.06,0,0,1-.28,6.21,35.59,35.59,0,0,1-2,5.74c-2.87,7.54-.05,15.77-2.5,23.36-.59,1.84,2.31,2.63,2.9.79Z"/><path d="M258.46,418.75l4,6.88c.6,1,1.26,2.07,1.77,3.16a8.49,8.49,0,0,1,.5,3.78c0,4.34,3.35,7.25,4.4,11.24a1.51,1.51,0,0,0,2.9-.8,23.31,23.31,0,0,0-2.63-5.55,15.32,15.32,0,0,1-1.34-2.8,11.29,11.29,0,0,1-.31-3.53c0-2.5-1.24-4.47-2.45-6.59l-4.2-7.3a1.5,1.5,0,0,0-2.59,1.51Z"/><path d="M273.32,443.79a144.7,144.7,0,0,1-1.06-23.45c.27-7.59,1.49-15,2.21-22.57a53.74,53.74,0,0,0,.07-11.27,43.37,43.37,0,0,0-2.83-10.6,61.06,61.06,0,0,1-3.19-10.07,58,58,0,0,1-.91-11.24c0-7.63.58-15.27.94-22.88.19-3.94.42-7.88.56-11.82.12-3.16-.42-6-3.2-7.87-1.16-.78-2.29-1.27-2.75-2.7a34.08,34.08,0,0,1-.93-5.34l-.93-5.91a11.77,11.77,0,0,0-1.3-4.74c-.43-.67-.87-1-.89-1.8a23.2,23.2,0,0,1,.18-2.36l.52-6.43c.3-3.76.49-7.54.91-11.28a3.3,3.3,0,0,1,1.07-2.35c.61-.55,1.34-1,1.94-1.55a6.71,6.71,0,0,0,1.94-4.47c.41-4.07.69-8.13,1.22-12.19,1.12-8.53,2.28-17.05,1-25.63-.28-1.9-3.18-1.09-2.89.8,1.15,7.61.15,15.34-.85,22.92-.48,3.65-1,7.31-1.26,11-.12,1.48.11,3.49-.71,4.81s-2.31,1.82-3.22,3a7.26,7.26,0,0,0-1.27,4.11c-.17,2-.31,3.95-.47,5.93l-1,11.86c-.12,1.54-.37,3,.53,4.36a7.08,7.08,0,0,1,1.1,1.85,25.45,25.45,0,0,1,.53,3c.56,3.59.85,7.36,1.75,10.88a6.33,6.33,0,0,0,2.11,3.45c1.18,1,2.86,1.47,3.48,3a9.91,9.91,0,0,1,.35,4.09c-.09,2-.19,4-.29,6-.37,7.8-.8,15.6-1.09,23.4-.27,7.36-.14,14.87,2.2,21.93,1.1,3.32,2.57,6.5,3.56,9.86a36.18,36.18,0,0,1,1.31,11.15c-.19,8.48-2,16.84-2.43,25.31a146.52,146.52,0,0,0,1,25.9c.24,1.89,3.24,1.92,3,0Z"/><path d="M266.16,222.49c-2.21.45-5,1-7.1-.16-2.41-1.32-2.63-5.34-2.8-7.76a27,27,0,0,1,.94-9.2c.57-2,1.7-6.42,4.46-6.29a1.54,1.54,0,0,0,1.5-1.5,181.76,181.76,0,0,0,.44-28.86c-.12-1.92-3.12-1.93-3,0a181.76,181.76,0,0,1-.44,28.86l1.5-1.5c-3.82-.18-5.75,3.75-6.83,6.81A29.34,29.34,0,0,0,253.3,215c.29,3.45.83,7.88,4.11,9.83,2.84,1.69,6.48,1.17,9.55.55,1.89-.39,1.09-3.28-.8-2.9Z"/><path d="M261.88,165.93A25.2,25.2,0,0,1,267,155.09c2.72-3.3,5.8-6.35,8.72-9.49l18.64-20.06c1-1,0-3-1.46-2.51a179.1,179.1,0,0,0-29.64,13.41l2.25,1.3a156.58,156.58,0,0,1-.16-26.52c.55-7.85,1.19-15.74.08-23.57a39,39,0,0,0-3.92-12.5,1.51,1.51,0,0,0-1.69-.68c-2.73.58-4.22,2.9-5.32,5.27-1.22,2.63-2.15,5.29-5,6.48a27,27,0,0,0-4.9,2.13,13,13,0,0,0-3.43,3.44,30.49,30.49,0,0,0-3.81,9.25l2.95.4A162.82,162.82,0,0,0,235.58,61c-.71-2.87-1.26-6.16-2.86-8.7a16.81,16.81,0,0,0-2.83-3.07,9.53,9.53,0,0,1-2.35-3.4c-1-2.43-1.41-5.06-2.48-7.47s-2.93-4.86-5.73-5c-3.22-.12-4.9,3-6.16,5.46L207.84,49.3l2.35-.3c-2.32-2.87-12.13-10.14-13.68-3-.69,3.14,2.21,5.94,3.71,8.39a46.62,46.62,0,0,1,4.39,9.18c2.4,7,3,14.6,3.79,21.91s1.38,14.72,1.75,22.11.55,15.1.49,22.66q0,5.67-.25,11.34c-.12,3.36-.46,6.76-.37,10.13.08,2.69.51,5.56,2.1,7.8a13.8,13.8,0,0,0,3,2.82,4.54,4.54,0,0,1,1.73,3.94c.16,7-1.57,13.89-2.94,20.7a97,97,0,0,0-1.77,11.62,52.55,52.55,0,0,0,.4,11.07c.94,7.14,2.94,15.1-.41,21.91h2.59c-1.76-3.06-4.08-6.38-7.49-7.71a6.93,6.93,0,0,0-5.05,0c-1.68.65-3,1.9-4.47,2.83-3.78,2.34-7.68-.89-10.44-3.37-3.64-3.27-7.26-6.57-10.89-9.86-1.43-1.29-3.56.82-2.13,2.12,3.52,3.18,7,6.36,10.54,9.53,2.85,2.58,6.38,5.61,10.49,5.43a9,9,0,0,0,5-2c1.34-1,2.73-2.22,4.49-2.17,3.43.1,5.86,4.12,7.36,6.73a1.51,1.51,0,0,0,2.59,0c2.89-5.88,2.38-12.31,1.51-18.6-.45-3.19-1-6.37-1.17-9.59a49.58,49.58,0,0,1,.48-10c.94-6.78,2.77-13.4,3.7-20.19a41.31,41.31,0,0,0,.54-9.68,6.94,6.94,0,0,0-1.54-3.94c-.94-1.07-2.26-1.69-3.2-2.75-1.77-2-2-4.88-2-7.42,0-3.46.3-6.92.42-10.37.24-7.22.29-14.46.13-21.68a385.48,385.48,0,0,0-3.4-43.6,67.54,67.54,0,0,0-2.38-11.71,48.66,48.66,0,0,0-4.52-10c-.89-1.52-1.89-3-2.86-4.41a4.57,4.57,0,0,1-1-2.19,2.06,2.06,0,0,1,.17-.78.72.72,0,0,1,.29-.33c-.33,0-.28,0,.17.11a21.16,21.16,0,0,1,4.3,1.77,15,15,0,0,1,3.74,3.36,1.51,1.51,0,0,0,2.36-.3l4.33-8.47c.64-1.25,1.24-2.54,2-3.75.47-.81,1.12-1.91,2.11-2.14,2.4-.56,3.75,3.54,4.26,5.19a38.4,38.4,0,0,0,2.33,6.69,11,11,0,0,0,2.05,2.75,15.07,15.07,0,0,1,2.87,3.1c1.36,2.39,1.83,5.46,2.48,8.1a157.49,157.49,0,0,1,3.35,18.28,161.84,161.84,0,0,1,1.16,20.87,1.5,1.5,0,0,0,2.94.4,27.66,27.66,0,0,1,3.51-8.54A9.33,9.33,0,0,1,247,90.4c1.5-.78,3.19-1.13,4.7-1.91,2.51-1.3,3.8-3.69,4.92-6.17.86-1.91,1.71-4.47,4-5l-1.7-.69c3.55,6.85,4.26,14.6,4.11,22.2-.15,7.94-1.14,15.83-1.21,23.78a138.31,138.31,0,0,0,.69,15.09,1.53,1.53,0,0,0,2.26,1.3,174.35,174.35,0,0,1,28.93-13.12l-1.46-2.51L273,144.2c-3,3.2-6.17,6.3-8.84,9.77A27.85,27.85,0,0,0,259,165.14c-.4,1.88,2.49,2.68,2.89.79Z"/><path d="M166.24,236.53l2.33,3.18a1.67,1.67,0,0,0,.9.69,1.5,1.5,0,0,0,1.85-1.05,1.47,1.47,0,0,0-.16-1.16L168.83,235a1.72,1.72,0,0,0-.9-.69,1.54,1.54,0,0,0-1.15.16,1.47,1.47,0,0,0-.69.89,1.43,1.43,0,0,0,.15,1.16Z"/><path d="M159.22,164.78l-2.57,11.41-1.28,5.71a19.22,19.22,0,0,0-.76,5.32,8.49,8.49,0,0,0,1.65,4.38c1,1.55.72,3.25.63,5a11.67,11.67,0,0,0,3.33,8.89c1.35,1.38,3.47-.74,2.12-2.13a8.47,8.47,0,0,1-2.18-3.72,14.19,14.19,0,0,1-.17-4.6,8.29,8.29,0,0,0-.84-4.49c-.81-1.47-1.63-2.37-1.55-4.17a29.17,29.17,0,0,1,.93-4.88l1.18-5.23,2.4-10.7c.42-1.88-2.47-2.68-2.89-.8Z"/><path d="M168.39,163.25q-.07,9.18.57,18.34c.13,1.92,3.13,1.93,3,0q-.66-9.15-.57-18.34a1.5,1.5,0,0,0-3,0Z"/><path d="M149.62,215.07l-.57,22.35a37.07,37.07,0,0,0,.07,5.27,19.14,19.14,0,0,0,1.31,4.75,19.52,19.52,0,0,1,1.4,10.32c-.3,1.89,2.59,2.7,2.89.8a21.34,21.34,0,0,0-.77-10.25,44.13,44.13,0,0,1-1.68-4.85,22.81,22.81,0,0,1-.23-5.54q.28-11.43.58-22.85c0-1.93-3-1.93-3,0Z"/><path d="M242,177.47a237.39,237.39,0,0,0-.06-27.85q-.21-3.45-.53-6.89c-.1-1.14-.22-2.29-.34-3.43-.06-.58-.13-1.15-.19-1.72,0-.31-.24-1.06-.09-1.36.27-.52,1.38-1,1.87-1.37a12.18,12.18,0,0,0,1.91-1.82,14.34,14.34,0,0,0,2.61-4.77c.59-1.85-2.31-2.63-2.89-.8a10.51,10.51,0,0,1-3,4.67c-1.25,1.12-3,1.61-3.42,3.43a9.47,9.47,0,0,0,.14,3c.13,1.14.24,2.29.35,3.43.23,2.38.41,4.76.57,7.13a237.3,237.3,0,0,1,.09,28.35c-.11,1.93,2.89,1.92,3,0Z"/><path d="M253.63,126.5c-1.64-1.24-2.37-3.42-2.68-5.37-.42-2.65-.14-5.37-.37-8a1.54,1.54,0,0,0-1.5-1.5,1.51,1.51,0,0,0-1.5,1.5c.26,3.09,0,6.21.56,9.27a10.73,10.73,0,0,0,4,6.72,1.5,1.5,0,0,0,2-.54,1.54,1.54,0,0,0-.54-2.05Z"/><path d="M249.2,149.89a105.88,105.88,0,0,1,2.56,32.62c-.14,1.92,2.86,1.91,3,0a108.59,108.59,0,0,0-2.67-33.42c-.45-1.88-3.34-1.08-2.89.8Z"/><path d="M241.77,214.79v9a1.5,1.5,0,0,0,3,0v-9a1.5,1.5,0,0,0-3,0Z"/><path d="M300,184.32,301,224c.29,11.76.9,24.1-4.43,35-2.18,4.45-5.76,10.21-3.72,15.33,1,2.57,3.46,3,5.59,4.36a16,16,0,0,1,5,5.27c3,4.87,3.59,10.63,3.64,16.22,0,6.46-.27,12.92-.43,19.37l-.28,11.09-.14,5.66a19.3,19.3,0,0,0,.2,5,12,12,0,0,0,2.27,4.05,21.78,21.78,0,0,1,2.24,4.07,21.54,21.54,0,0,1,1.54,9.49l2.8-.75c-2.17-4.46,4-8.84,8-7.44,2.39.84,3,3.51,3.82,5.63.9,2.34,2.24,4.45,4.62,5.5a4.48,4.48,0,0,0,6-2c1.19-2.41.81-5.68.91-8.28.26-6.88.49-13.77.78-20.66a19.4,19.4,0,0,1,.52-4.36,40.19,40.19,0,0,1,1.64-4c1.15-3,.45-5.75-.63-8.62a19.72,19.72,0,0,1-1.43-8.88,46.15,46.15,0,0,1,1.83-8.61,77.47,77.47,0,0,0,2.17-9.09,41.47,41.47,0,0,0,.21-9.77c-.57-6.46-2.19-12.75-3.07-19.17a62.83,62.83,0,0,1,.67-21.75c.62-2.85,1.82-5.41,4.71-6.5,2.71-1,5.76-.83,8.59-.63a1.51,1.51,0,0,0,1.5-1.5l-.25-15.74c-.08-4.49.31-9.67-2.25-13.62a9.71,9.71,0,0,0-4.44-3.77,7.31,7.31,0,0,0-2.66-.51c-.66,0-2.33.51-2.77-.09s-.14-2.09-.12-2.74l.11-4.22.19-7.69c.13-5.29.28-10.57.4-15.85.09-4-.56-8.87-5-10.25a4.93,4.93,0,0,0-4.91,1.14,8.07,8.07,0,0,0-2,4.91c-.21,1.68-.16,3.54-1.2,5-1.24,1.71-3-.1-4.44-.53-2.46-.72-4.94.38-7,1.69a43.24,43.24,0,0,0-6.26,5c-4.27,4-8.42,8.13-12.62,12.19-1.39,1.35.73,3.47,2.12,2.12q5.32-5.16,10.66-10.31c1.62-1.57,3.25-3.14,5-4.56s3.71-3,5.87-3.35c2-.3,3.45,1.48,5.42,1.51a4.7,4.7,0,0,0,3.9-2.41,10.72,10.72,0,0,0,1.36-4.82c.13-1.39.16-3.44,1.33-4.41s3.13.11,3.86,1.31c1.11,1.8.92,4.2.87,6.22q-.19,7.56-.38,15.14l-.19,7.44a64.9,64.9,0,0,0-.13,7,3.67,3.67,0,0,0,3.16,3.67c1.87.25,3.46-.43,5.2.66,4.28,2.69,3.8,8.8,3.87,13.17l.27,16.72,1.5-1.5c-5-.35-11-.25-14.19,4.3-1.73,2.45-2.2,5.64-2.62,8.54a68.74,68.74,0,0,0-.77,9.93c0,6.86,1.3,13.52,2.51,20.24s2,13.36.49,20c-1.37,6.07-3.95,12.12-3.58,18.45.18,3.15,1.41,5.8,2.32,8.77a6.78,6.78,0,0,1,.1,4.38c-.5,1.5-1.33,2.87-1.78,4.39-.92,3.12-.74,6.57-.86,9.78l-.4,10.6c-.13,3.48-.2,7-.4,10.45,0,.94-.09,2.42-1.09,2.88s-2.28-.54-2.94-1.22c-1.94-2-2.06-5.2-3.67-7.46a7.91,7.91,0,0,0-8-3c-5.32,1-9.59,6.9-7.07,12.08.69,1.43,2.72.61,2.79-.76a24.42,24.42,0,0,0-4.69-15.77,6.66,6.66,0,0,1-1.61-4c0-1.59.06-3.2.1-4.79l.25-9.85c.16-6.55.34-13.1.49-19.65.14-5.94.19-12.14-1.84-17.81-1.65-4.62-4.63-9-9-11.38-1-.53-2.31-.81-3.08-1.63s-.82-2.33-.74-3.46c.2-2.82,1.51-5.45,2.76-7.93a51.88,51.88,0,0,0,5.3-16.21,109.93,109.93,0,0,0,.7-17.68c-.32-14.79-.73-29.58-1.1-44.37,0-1.93-3-1.93-3,0Z"/><path d="M334.77,274.79v-33a1.5,1.5,0,0,0-3,0v33a1.5,1.5,0,0,0,3,0Z"/><path d="M325.08,231.59a13.52,13.52,0,0,0-1.67-6.7,1.51,1.51,0,0,0-2.05-.54,1.53,1.53,0,0,0-.54,2.05c.12.22.24.44.34.67,0,.07.26.51.07.13,0,.09.08.2.12.29a14.72,14.72,0,0,1,.44,1.43c.06.24.11.48.16.73,0,.1,0,.21.05.31s0,.15,0-.08l0,.21a12.54,12.54,0,0,1,.06,1.5,1.5,1.5,0,0,0,3,0Z"/><path d="M305,85.35l-1.28,10.9c-.37,3.09-1.08,6.34-.88,9.46.15,2.28.92,4.66,3.09,5.78,1.31.67,2.81.48,4.12,1.07a4.66,4.66,0,0,1,2.27,2.78c1.12,3.13-.06,6.64-.32,9.82a23.48,23.48,0,0,0,.8,8.83c1.62,5.22,6,9.59,11.63,9.94a8.36,8.36,0,0,0,7-2.79,7.25,7.25,0,0,0,1.32-3.73c.14-1.22.16-2.56,1.07-3.49,1.44-1.48,4-1.67,5.87-2.28a8.67,8.67,0,0,0,5.55-4.37c1.19-2.51,1.21-5.37,1.35-8.09l.56-10.93c.36-6.91.48-13.88,1.32-20.74.44-3.51,1-7.41,2.57-10.62A7.24,7.24,0,0,1,354,73.64c1.31-.76,2.53-1.54,3-3.08a9.48,9.48,0,0,0-.19-4.55l-1.17-5.77-2.43-12-2.75,1.15,1.76,2.86,1.7-2.21a9.94,9.94,0,0,1-6.69-9c-.06-2.44,1.07-4.67,1.57-7a16.84,16.84,0,0,0-.26-7.47,45.42,45.42,0,0,0-2.8-7.44c-1.18-2.65-2.37-5.29-3.56-7.94-1.08-2.4-2-4.92-3.3-7.23A6.91,6.91,0,0,0,334.2.09a4.37,4.37,0,0,0-5,2.4c-.93,2.08-1,4.75-1.33,7A103.61,103.61,0,0,0,326.61,24a45.82,45.82,0,0,0,2,14.39c1.48,4.51,4.08,8.24,6.56,12.23a19.87,19.87,0,0,1,3.05,7c.51,2.89-.27,5.81-1.27,8.52C334.79,72,332,77.67,329.52,83.38l2.74.36a132.69,132.69,0,0,0-9.44-31.5c-.56-1.27-2.37-.74-2.74.36a2.86,2.86,0,0,1-4.3,1.2,1.51,1.51,0,0,0-2.5.66c-1.34,5.57,1.21,11.11.18,16.67a17,17,0,0,1-8,11.52,1.5,1.5,0,0,0,1.51,2.6A20,20,0,0,0,316.12,73a22.87,22.87,0,0,0,.3-8.37c-.37-3.11-1-6.29-.25-9.4l-2.51.66A5.88,5.88,0,0,0,323,53.4l-2.74.36a129.09,129.09,0,0,1,9.13,30.77,1.52,1.52,0,0,0,2.75.36c2.19-5,4.41-10,6.57-15,1.89-4.43,3.47-9.13,2.24-14-1.14-4.45-4.11-8.08-6.44-11.94A33.28,33.28,0,0,1,330,31.11a61.38,61.38,0,0,1,0-14.4c.23-2.36.54-4.72.89-7.07.17-1.12.35-2.25.53-3.37.14-.86.14-2.48.91-3C334,2,335.79,4.57,336.4,5.77c1.23,2.38,2.23,4.89,3.33,7.33,2.15,4.8,4.89,9.69,6,14.87a15.76,15.76,0,0,1-.75,8.27,14.08,14.08,0,0,0-.51,7.22,13,13,0,0,0,8.59,9.46,1.51,1.51,0,0,0,1.69-2.2L353,47.87A1.51,1.51,0,0,0,350.24,49l2.05,10.09a91.45,91.45,0,0,1,1.83,9.24c.15,1.53-.46,2-1.68,2.69a9.55,9.55,0,0,0-2.86,2.58,19.88,19.88,0,0,0-3,7.47c-1.43,6.29-1.66,12.77-2,19.19-.35,6.8-.67,13.59-1,20.38-.13,2.3-.23,5.18-2.11,6.81-1.53,1.33-3.79,1.59-5.66,2.17s-3.91,1.5-5,3.34c-1.21,2.1-.28,5.4-2.35,6.93s-4.89,1.2-7,.2a10.78,10.78,0,0,1-5.08-5.18,18.07,18.07,0,0,1-1.44-8.53c.13-3.09,1-6.16.79-9.27-.21-2.72-1.4-5.58-3.85-7-1.28-.75-2.66-.69-4-1.11a2.94,2.94,0,0,1-1.93-2.72,14.07,14.07,0,0,1,.06-3.61c.22-2,.46-4,.7-6L308,85.35c.22-1.91-2.78-1.9-3,0Z"/><path d="M320.22,79.78a93.89,93.89,0,0,0,.63,11.73,64.37,64.37,0,0,0,2.23,10.61,45.75,45.75,0,0,1,1.24,5c.28,1.72.18,3.47.46,5.19s1.42,3,2,4.62a12.48,12.48,0,0,1,.34,5c-.08,1.41,1.64,1.83,2.56,1.06a5.13,5.13,0,0,0,1.64-5.12c-.4-1.89-3.29-1.09-2.89.8a2.17,2.17,0,0,1-.87,2.2l2.56,1.06a18.35,18.35,0,0,0-.22-5c-.38-1.71-1.62-3-2.08-4.6s-.26-3.31-.47-4.91a37.78,37.78,0,0,0-1.15-5.27,67.47,67.47,0,0,1-2.37-10.68,93.89,93.89,0,0,1-.63-11.73,1.5,1.5,0,0,0-3,0Z"/><path d="M327.48,94.42a35.19,35.19,0,0,1-.38,28.3c-.8,1.75,1.78,3.27,2.59,1.52a38.47,38.47,0,0,0,.38-31.33c-.76-1.77-3.35-.25-2.59,1.51Z"/><path d="M372.5,115.55c-.3,4.16-2.12,8-3.29,11.94a25.51,25.51,0,0,0-.38,12.81,61.89,61.89,0,0,0,4.07,12.59,17.41,17.41,0,0,0,3.3,4.89,26.11,26.11,0,0,1,3.92,4.29c2.07,3.44,1.8,7.82,1.86,11.68l.19,14.34c.13,9.58.28,19.16.35,28.74.06,9.21.08,18.44-.38,27.64-.42,8.61-1.42,17.26-4.15,25.48-1.38,4.16-3.53,8-5,12.09s-1.69,8.54-1.6,12.89c.07,3.42,0,7.43,2.38,10.16,1.22,1.37,2.9,1.66,4.38,2.59s1.46,3,1.37,4.64c-.56,9.54-1.45,19.07-2.19,28.6a24.1,24.1,0,0,1-1,6c-.66,1.92-2.19,3.4-2.76,5.36-.62,2.13,0,4.34.47,6.43l1.57,6.88,1.57,6.88a1.51,1.51,0,0,0,2.89,0c1.73-5.82,6.33-9.95,11-13.49,4.94-3.72,10.3-7.07,14.44-11.73,5-5.66,7-12.81,8.31-20.1.67-3.77,1.24-7.57,2.15-11.3a54.4,54.4,0,0,1,4.48-11.55c4.11-8.14,8.75-17.24,4.88-26.39l-1.3,2.26c3.66-.23,6,3.35,7.3,6.34,1.4,3.28,2.32,6.8,4.72,9.55,2.66,3,6.75,3.25,9.94,5.43,2.84,2,4.85,4.91,7.07,7.48a23.31,23.31,0,0,0,9,6.57,37.48,37.48,0,0,1,5.61,2.59,20.47,20.47,0,0,1,4.4,3.91c5,5.66,8.82,13.56,16.83,15.46,4.6,1.1,8.55-.92,12.45-3.13,3.1-1.74,8-4.14,11.06-1.08a1.5,1.5,0,0,0,2.13-2.12c-2.68-2.65-6.65-2.71-10-1.59-3.82,1.26-6.94,4.17-10.89,5.06s-7.62-1.22-10.42-3.79c-3-2.75-5.15-6.21-7.67-9.36a24.21,24.21,0,0,0-9.44-7.52,53.19,53.19,0,0,1-5.82-2.6,18,18,0,0,1-4.07-3.42c-2.43-2.63-4.44-5.66-7.22-7.95a16.57,16.57,0,0,0-4.66-2.74c-1.89-.75-3.95-1.23-5.48-2.67-3-2.81-3.61-7.24-5.43-10.75s-5.05-6.94-9.34-6.67a1.52,1.52,0,0,0-1.29,2.25c3.32,7.84-1.29,16.28-4.78,23.16a58.8,58.8,0,0,0-4.57,11.26c-1,3.64-1.57,7.37-2.21,11.07C410,332,408.46,339.37,403.54,345c-4,4.58-9.25,7.85-14.08,11.49-5.3,4-10.32,8.61-12.27,15.18h2.89l-3.14-13.76a18.56,18.56,0,0,1-.62-3.39,5.14,5.14,0,0,1,1-3,16.64,16.64,0,0,0,2.4-5.43c.93-4.31.92-8.9,1.26-13.28L382,318.49c.17-2.25.42-4.5.5-6.75a8.35,8.35,0,0,0-1.13-5c-1.06-1.56-2.7-2-4.28-2.8a5.11,5.11,0,0,1-2.44-4,34.3,34.3,0,0,1-.32-5.73,41.09,41.09,0,0,1,.31-6.65c.64-4.37,2.76-8.14,4.45-12.16,6.87-16.23,6.42-34.71,6.42-52,0-9.47-.15-18.94-.28-28.41l-.19-14.34c-.06-4.41.14-8.91-.34-13.3a18,18,0,0,0-1.37-5.54,14.94,14.94,0,0,0-3.41-4.56,20.07,20.07,0,0,1-3.79-4.53A33.22,33.22,0,0,1,373.9,147c-1.43-4.32-2.91-8.78-2.76-13.39.14-4.22,2-8.13,3.2-12.11a27.83,27.83,0,0,0,1.16-6c.13-1.93-2.87-1.92-3,0Z"/><path d="M371.71,117.48c2.85,5.55,9.82,6.31,15.35,5.78,6.19-.61,13-2.67,18.74.72a7.48,7.48,0,0,1,4,6.54c0,3.19-1.06,6.33-.08,9.48a7.28,7.28,0,0,0,1.87,3.15,8.1,8.1,0,0,0,4.35,1.74c2.32.46,3.49,2.06,4.28,4.19s1.29,4.52,2.17,6.7a13.64,13.64,0,0,0,1.86,3.36c1,1.32,2.32,2.39,3.45,3.63,4.12,4.52,4.2,11.12,4.1,16.89a141.62,141.62,0,0,0,.95,21.49c1,7.46,2.48,14.85,4,22.23q1.29,6.48,2.59,13c.76,3.82,1.58,7.68,3.5,11.11s4.56,6.12,7.09,8.91q4.27,4.69,8.79,9.16a1.5,1.5,0,0,0,2.5-.66c2.13-11.17.68-22.51,1.62-33.77a51.5,51.5,0,0,1,2.87-13.66,30.77,30.77,0,0,1,7.44-11.29c1.5-1.48,3-3.21,3.15-5.4.19-2.47-1.46-4.58-1.68-7-.45-4.82,1.73-9.47,2-14.25.32-5.24-2.64-9.56-3.67-14.54-1.12-5.44-.56-11.1-.05-16.58a47.45,47.45,0,0,1,1.46-9.09,25.84,25.84,0,0,1,3.64-7.25c3-4.37,6.71-8.27,9-13.1l-2.36.3c2,1.73,2.49,4.35,2.85,6.87.41,2.74.67,5.56,2,8s3.95,4.08,6.49,5.42a17.8,17.8,0,0,1,3.78,2.37,7.86,7.86,0,0,1,2.26,4.13,36.4,36.4,0,0,1,.43,11.22,46,46,0,0,1-2.59,11.58c-1.32,3.62-3,7.1-4.14,10.8a37.22,37.22,0,0,0-1.46,11.64c.17,7.92,2,15.78,3.29,23.56,1.39,8.15,2.74,16.32,3.88,24.52,2.27,16.32,3.69,32.84,2.89,49.33-.19,4-.53,8-1,12.05a36.91,36.91,0,0,0-.18,10.39,14.14,14.14,0,0,0,1.59,4.63c.84,1.51,2.11,2.68,3,4.13,1.8,2.85.8,6.48.94,9.65a11.48,11.48,0,0,0,1.12,4.57c.86,1.73,3.45.21,2.59-1.51-1.45-2.95-.37-6.53-.65-9.67a10.09,10.09,0,0,0-1.4-4.56c-.92-1.45-2.2-2.62-3-4.12-1.69-3-1.63-6.68-1.36-10,.31-3.88.85-7.74,1.12-11.63,1.15-16.44,0-32.94-2.13-49.25-1-8.18-2.34-16.32-3.7-24.46s-3.18-16.16-3.83-24.32A39.64,39.64,0,0,1,498,183c.84-3.86,2.5-7.45,3.95-11.1A49.76,49.76,0,0,0,505.45,149c-.3-3.34-1-6.77-3.57-9.13-2.18-2-5-2.93-7.41-4.59-4.87-3.34-3.24-10.23-5.42-15a8.72,8.72,0,0,0-2.3-3.08,1.51,1.51,0,0,0-2.35.3c-2.06,4.35-5.27,7.95-8.08,11.81A30.41,30.41,0,0,0,470.51,143a94.35,94.35,0,0,0-1.18,16.27,35,35,0,0,0,1.08,8.08c.68,2.51,1.87,4.82,2.63,7.3,1.5,4.88-.43,9.61-1.17,14.45a17,17,0,0,0,.1,7c.3,1.14.86,2.18,1.18,3.31a3.42,3.42,0,0,1-.75,3.16c-1.36,1.8-3.22,3.22-4.62,5a31.13,31.13,0,0,0-3.55,5.71,46.46,46.46,0,0,0-3.92,13.52c-1.76,12.37.35,25-2,37.31l2.51-.67q-4-4-7.84-8.12a68.62,68.62,0,0,1-6.67-7.88,27.2,27.2,0,0,1-3.64-9.63c-.82-3.84-1.55-7.69-2.31-11.54-1.49-7.44-3.06-14.87-4.19-22.37a124.16,124.16,0,0,1-1.4-21.87c.16-5.92.37-12.22-2.35-17.66a16.16,16.16,0,0,0-2.29-3.39c-1.09-1.27-2.44-2.3-3.47-3.62-1.52-1.94-2.09-4.45-2.78-6.76a16.57,16.57,0,0,0-2.82-6.13,7.17,7.17,0,0,0-2.39-1.84c-1.41-.66-3.12-.5-4.46-1.25-2.63-1.47-1.89-5.61-1.6-8,.37-3.08.28-6.1-1.61-8.69-4-5.46-11.26-6-17.4-5.28-5.81.72-15.85,3.29-19.3-3.43-.88-1.72-3.47-.2-2.59,1.51Z"/><path d="M409,254.08a27.91,27.91,0,0,1-.07,8.51c-.64,2.85-2.14,5.37-1.56,8.39.37,1.89,3.27,1.09,2.9-.8a7.46,7.46,0,0,1,.61-3.78,24.08,24.08,0,0,0,1.11-3.9,33.89,33.89,0,0,0,0-8.42,1.54,1.54,0,0,0-1.5-1.5,1.52,1.52,0,0,0-1.5,1.5Z"/><path d="M408.77,204.79v2a1.54,1.54,0,0,0,.44,1.07,1.21,1.21,0,0,0,.48.31,1.14,1.14,0,0,0,.58.12,1.51,1.51,0,0,0,1.06-.43,1.59,1.59,0,0,0,.44-1.07v-2a1.58,1.58,0,0,0-.44-1.06,1.21,1.21,0,0,0-.49-.31,1.22,1.22,0,0,0-.57-.13,1.54,1.54,0,0,0-1.06.44,1.58,1.58,0,0,0-.44,1.06Z"/><path d="M415.14,181.6a18,18,0,0,0,3.15,12.13c1.21,1.64,2.67,3,3.14,5.05s.16,4.28.11,6.39a15.89,15.89,0,0,0,.95,6.23,16.91,16.91,0,0,0,3.24,4.94c.74.85.64,1.63,1,2.65a3.8,3.8,0,0,0,1.62,2c2,1.33,4.32,2.33,6.44,3.46,1.7.91,3.22-1.68,1.52-2.59-2-1.07-4.22-2-6.12-3.26-.86-.56-.65-1.33-.93-2.24a5.88,5.88,0,0,0-1.38-2.14,12.19,12.19,0,0,1-2.86-4.77,18.07,18.07,0,0,1-.38-6,18.85,18.85,0,0,0-.38-5.9,13.27,13.27,0,0,0-2.84-4.74,15.38,15.38,0,0,1-3.25-11.25c.17-1.92-2.83-1.91-3,0Z"/><path d="M414.88,240.31c2.65,2.56,5.64,5.34,9.39,6a12.71,12.71,0,0,0,1.51.19c.16,0,.33,0,.5,0,.58.08-.14-.09.17,0-.16-.07-.06-.14,0,.09-.13-.33,0,0,0,.1s0,.17,0,0c0,.1,0,.19,0,.28s0,.29,0,.43c0,1.57,0,3.07,1,4.34a1.5,1.5,0,0,0,2.12-2.12c.24.27-.16-.38,0,0a2.85,2.85,0,0,1-.11-.39c-.09-.32,0,.15,0-.17s0-.39,0-.59a16.86,16.86,0,0,0,0-1.88,3.63,3.63,0,0,0-.92-2.17,4.08,4.08,0,0,0-2.89-.95c-3.49-.23-6.31-3-8.68-5.33-1.39-1.34-3.51.78-2.12,2.12Z"/><path d="M476,275.62a41.63,41.63,0,0,1,2.09,7.92,81.88,81.88,0,0,1,.44,8.86c.17,5,.94,10,4.09,14,1.19,1.52,3.29-.61,2.12-2.12-3-3.89-3.16-9.17-3.26-13.88a60.14,60.14,0,0,0-.54-7.93,42.77,42.77,0,0,0-2.05-7.69c-.63-1.8-3.53-1-2.89.8Z"/><path d="M481.43,224.11a25.05,25.05,0,0,1,5.71,8.78c1.43,3.83,1.77,7.93,2.27,12,1.07,8.54,2.07,17.1,2.6,25.69.12,1.92,3.12,1.94,3,0-.56-9.08-1.65-18.13-2.78-27.16-.51-4.09-.93-8.19-2.5-12a28.39,28.39,0,0,0-6.18-9.35c-1.36-1.38-3.48.74-2.12,2.12Z"/><path d="M488.77,211.79v-8a1.5,1.5,0,1,0-3,0v8a1.5,1.5,0,0,0,3,0Z"/><path d="M507.47,143.38a82.88,82.88,0,0,1,8.84-14,80.1,80.1,0,0,1,5.28-6.08c1.8-1.89,3.77-3.62,5.54-5.53a18.48,18.48,0,0,0,4.12-6.58c.84-2.48,1.08-5.18,2.37-7.5,2.41-4.31,7-7,10.14-10.77A38.09,38.09,0,0,0,551,79.51c.59-2,.7-4.67,2.06-6.28.78-.93,2.06-1,3.18-1.14a7.3,7.3,0,0,0,3.2-1.29c3.43-2.55,3.81-7.22,4-11.13a14.58,14.58,0,0,1,1.33-6.26c1.06-1.9,3-2.4,4.83-3.21,2.16-1,3.73-2.52,3.56-5a5.89,5.89,0,0,1,.05-2.33,8.25,8.25,0,0,1,1-1.84q1.13-1.7,2.31-3.36c3.08-4.33,6.77-8.7,11.91-10.58l-1.9-1.45c.4,3,.85,6.18,2.39,8.88,1.81,3.2,4.89,4.51,8.17,5.77l5.71,2.18,2.75,1a7.4,7.4,0,0,1,2.54,1.14c.57.57.29,1.46.09,2.16-.31,1.06-.7,2.12-1.05,3.17l-2,5.92c-.64,1.92-1.25,3.84-1.91,5.74a11.82,11.82,0,0,1-2.55,4.58c-2.29,2.3-5.49,3.8-8.25,5.44-5.25,3.12-10.77,6.61-13.71,12.18-3.09,5.85-2.58,13.15-7,18.34-3.58,4.22-9.14,7.58-10.22,13.42-.25,1.34-.28,2.71-.4,4.07-.09,1.08-.19,2.52-1,3.32-1.09,1-3.21.51-4.58.75a7.46,7.46,0,0,0-3.28,1.44c-2.11,1.6-3.4,4-4.6,6.27a27.17,27.17,0,0,1-4.78,6.94,14.72,14.72,0,0,0-4.53,8.6c-.52,3.62-.12,7.29.13,10.92.5,7.31.8,15.21-3.16,21.71a17,17,0,0,1-3.12,3.74c-1.44,1.3.69,3.42,2.12,2.12,5.25-4.75,7.16-11.91,7.42-18.77a123.68,123.68,0,0,0-.51-12.47c-.21-3.31-.43-6.94,1-10s4.31-4.84,6-7.59c1.43-2.28,2.45-4.81,4-7a7.52,7.52,0,0,1,2.47-2.42c1.32-.71,2.73-.49,4.16-.62,3.15-.29,4.74-2.56,5.15-5.51.4-2.78.21-5.41,1.73-7.9s3.76-4.33,5.79-6.32a23.19,23.19,0,0,0,5.42-7.32c1.37-3.21,1.9-6.65,2.84-10a19.16,19.16,0,0,1,4.67-8.33,38.05,38.05,0,0,1,7.46-5.65c2.74-1.69,5.58-3.22,8.24-5A15.09,15.09,0,0,0,604,66.92a18,18,0,0,0,2.22-4.71c1.36-4,2.65-8,4-11.93.57-1.72,1.44-3.59,1.2-5.45a4.4,4.4,0,0,0-2.95-3.43C604.7,39.8,600.82,38.48,597,37a11.09,11.09,0,0,1-4.6-2.75,10.21,10.21,0,0,1-2-4,32.36,32.36,0,0,1-.9-4.71c-.12-.87-.88-1.82-1.9-1.44-4.6,1.68-8.22,4.93-11.25,8.7-1.53,1.92-2.94,3.93-4.31,6a11.72,11.72,0,0,0-1.81,3.4,6,6,0,0,0-.22,1.84,5.22,5.22,0,0,1,.06,2.08c-.57,1.47-3.4,1.92-4.66,2.56a8.42,8.42,0,0,0-4,4.74c-1.51,4.06-.43,8.62-2.14,12.61a5.72,5.72,0,0,1-1.61,2.26,6.58,6.58,0,0,1-3.16,1,6.18,6.18,0,0,0-5.07,4.17c-.88,2.25-1.19,4.69-2,7a34.83,34.83,0,0,1-8.37,13c-1.78,1.74-3.74,3.3-5.44,5.12a16.8,16.8,0,0,0-3.87,6.37c-.84,2.59-1.12,5.33-2.54,7.7-1.58,2.63-4,4.64-6.14,6.77A82.15,82.15,0,0,0,515,126.2a85.52,85.52,0,0,0-10.12,15.66c-.86,1.72,1.73,3.24,2.59,1.52Z"/><path d="M531.19,183.89c-.74,21-1.65,42-2.23,63-.49,17.72.2,36.42,10.4,51.63a45.41,45.41,0,0,1,3.56,5.81,23.11,23.11,0,0,1,1.77,7.37c.55,5,1.13,9.95,1.87,14.9a300.09,300.09,0,0,0,6.11,30.11q1.89,7.36,4.17,14.64A122.9,122.9,0,0,0,561.62,385a25.36,25.36,0,0,0,3.59,5.83c1.59,1.91,3.46,3.56,4.92,5.58,2.92,4,5.11,8.69,7.52,13l15.65,28.25c2.48,4.48,5.17,8.74,5.41,14s-.11,10.5-.21,15.72l-.16,8.1,1.5-1.5c-6.35-.84-12.73-1.56-19.06-2.55-5.37-.85-10.11-2.64-14-6.59a42.5,42.5,0,0,1-7.74-12.06c-2.37-5.13-4.35-10.46-6.4-15.72-4.32-11.05-8.6-22.15-14-32.74C536,399.08,532.94,394,529.77,389s-6.32-10-8.31-15.63c-2.32-6.55-3.24-13.49-4.35-20.32l-3.49-21.58c-.3-1.9-3.19-1.09-2.89.8L514,352.17c1,6.25,1.83,12.57,3.56,18.67,3.33,11.78,11.28,21.33,17,32,5.87,10.95,10.38,22.54,14.89,34.09,2.1,5.37,4.14,10.78,6.47,16a51,51,0,0,0,7.57,12.67,25.38,25.38,0,0,0,15,8.47c7.07,1.33,14.31,2,21.44,2.93.82.11,1.49-.77,1.5-1.5l.31-15.91c.1-5.09.52-10.29-1.44-15.11-1.91-4.66-4.71-9-7.14-13.4l-7.75-14-7.9-14.26c-2.35-4.24-4.63-8.26-8-11.81a27,27,0,0,1-4.38-5.77,44.91,44.91,0,0,1-2.58-6.31q-2.54-7.31-4.67-14.75a298.55,298.55,0,0,1-6.93-29.65c-.92-5.13-1.72-10.29-2.37-15.47-.59-4.77-.57-10-2.27-14.51-1.59-4.28-4.69-7.76-6.87-11.73a53.67,53.67,0,0,1-4.79-12.24c-2.31-8.74-2.78-17.83-2.75-26.83,0-10,.57-20,.93-29.93L533.91,192l.28-8.11c.07-1.93-2.93-1.93-3,0Z"/><path d="M535,351.81l6.86,19.51c1.11,3.15,2.14,6.34,3.33,9.46a3.93,3.93,0,0,0,2.33,2.57,6.94,6.94,0,0,0,1.36.34c.25.05.54.14.8.17s.32.28.2,0c.69,1.79,3.59,1,2.89-.79a3.18,3.18,0,0,0-2.17-2c-.8-.25-2-.12-2.46-.87a10.07,10.07,0,0,1-.77-2.18l-.9-2.56-1.72-4.88L537.91,351c-.64-1.81-3.54-1-2.9.8Z"/><path d="M561.24,421.72c1.17,2.7,3.94,4,6.38,5.3a9.76,9.76,0,0,1,3.2,2.3c1.12,1.43.66,3.29.69,5,.13,7.12,7.27,11.11,8.53,17.78.36,1.9,3.25,1.09,2.89-.8-.64-3.39-2.72-6.17-4.7-8.9-2.14-3-3.84-5.67-3.68-9.43a7.89,7.89,0,0,0-1.14-5.14,10.06,10.06,0,0,0-3.17-2.74c-2.25-1.35-5.29-2.26-6.41-4.85-.77-1.77-3.35-.24-2.59,1.51Z"/><path d="M520.3,278.75a130.37,130.37,0,0,1,1.27,26.19c-.1,1.93,2.9,1.92,3,0a133.91,133.91,0,0,0-1.38-27c-.29-1.9-3.18-1.1-2.89.8Z"/><path d="M525.33,141.31a6.32,6.32,0,0,0,.58,3.73c.48,1,1.15,2,1.7,3a8.57,8.57,0,0,1,.65,6.51c-.54,1.86,2.36,2.65,2.9.8a11.56,11.56,0,0,0-.33-7.46,25.06,25.06,0,0,0-1.73-3.23,4.27,4.27,0,0,1-.88-2.54,1.56,1.56,0,0,0-1.05-1.85,1.51,1.51,0,0,0-1.84,1.05Z"/><path d="M550.77,105.79v8a1.5,1.5,0,0,0,3,0v-8a1.5,1.5,0,1,0-3,0Z"/><path d="M583.34,57.31A33.85,33.85,0,0,1,571.2,79.84c-1.49,1.23.64,3.35,2.12,2.12a36.81,36.81,0,0,0,13-24.65c.19-1.92-2.81-1.91-3,0Z"/><path d="M573.12,109.59a144,144,0,0,1,2.28,17.18c.35,5,1,10.69-1.66,15.17-2.11,3.49-5.76,5.72-9.36,7.43-2,.93-4,1.58-6,2.44s-1.65,4.59-1.48,6.34c.46,4.63,2.57,8.82,4,13.17a23.18,23.18,0,0,1,1.36,7.18c0,2.64-.41,5.26-.59,7.89a19.29,19.29,0,0,0,.75,7.48,19.07,19.07,0,0,0,3.15,5.55c2.6,3.33,6,6,8.34,9.54,2.8,4.15,3.69,9.16,4.18,14,.57,5.65,1,11.33,1.45,17l.73,8.65c.18,2.15,1,5.17-.67,6.9-3.34,3.45-9.27,1-13.37,1.39a12.4,12.4,0,0,0-10,7.09,14.44,14.44,0,0,0,.5,12.87c2.05,3.93,5.63,6.37,9.24,8.73,3,2,6.47,4.15,7.44,7.82,1.31,5-2.63,9.71-5.73,13.13-1.67,1.84-3.08,3.7-2.84,6.33a47.78,47.78,0,0,0,1.79,8,168.25,168.25,0,0,0,11.19,30.28c1.17,2.41,2.39,4.8,3.67,7.15.78,1.43,2.65.61,2.8-.75a57,57,0,0,1,26.38-41.54,54.24,54.24,0,0,1,5.66-3.06,60.1,60.1,0,0,0,5.92-2.76,10.94,10.94,0,0,0,4.48-4.94c1-2.17,1.43-4.51,2.23-6.74,3.31-9.13,10.08-16.53,14.59-25,2.58-4.88,4.8-10.18,8.61-14.27,3.4-3.66,8.44-6.52,13.57-5.4l-.36-2.75c-5.19,2.51-11.3,6.26-10.6,12.94a7.44,7.44,0,0,0,1.38,3.71c.89,1.18,2.17,1.7,3.24,2.66s.68,2.88.53,4.26l-.68,6.41-5,46.88-2.86,26.71a1.52,1.52,0,0,0,1.1,1.44c5.49,1.88,9.79-3.44,11.54-7.94,1-2.61,1.64-5.44,3.24-7.78s4.18-3.66,6.19-5.54c3.3-3.09,5.63-7.06,7.9-10.92s4.36-7.6,7.65-10.46a12.54,12.54,0,0,1,6.27-3.06,4.79,4.79,0,0,1,4.12,1,2.55,2.55,0,0,1,.44,3.21c-1.08,1.61,1.52,3.12,2.59,1.52a5.6,5.6,0,0,0-1.15-7.08c-2.14-1.92-5.28-2-7.93-1.3-4.53,1.25-7.93,4.57-10.59,8.29-2.79,3.88-4.87,8.21-7.59,12.13a26.54,26.54,0,0,1-4.53,5.16c-2.42,2.07-5,3.67-6.58,6.54s-2.12,6.2-3.64,9.1c-1.32,2.51-4,5.29-7.13,4.23l1.1,1.45,4.91-46L661.75,286,663,274.66a9.71,9.71,0,0,0-.16-4.58c-.55-1.46-1.76-2.23-3-3.06-2.51-1.69-2.51-5-1-7.41,1.76-2.94,5.22-4.49,8.18-5.93a1.51,1.51,0,0,0-.36-2.74,16.43,16.43,0,0,0-13.22,3.28c-4.06,3-6.82,7.23-9.18,11.64s-4.69,9.09-7.51,13.41-5.69,8.34-8,12.81a44.64,44.64,0,0,0-2.93,6.86c-.72,2.25-1.12,4.81-2.6,6.73s-3.74,2.78-5.82,3.66a62.94,62.94,0,0,0-6,2.91A59.93,59.93,0,0,0,591.8,330a59,59,0,0,0-10.47,27.63l2.79-.76a165,165,0,0,1-10.8-24.41q-2.16-6.18-3.82-12.53c-.56-2.13-1.15-4.29-1.54-6.47-.44-2.4,1-3.69,2.45-5.34,2.59-2.93,5.2-6.31,6-10.23a11.24,11.24,0,0,0-2.52-9.68c-4.26-5.09-11.52-6.76-14.64-12.95a11.14,11.14,0,0,1,0-10.45,9.47,9.47,0,0,1,8.9-4.86c3.85.13,7.57,1.07,11.24-.59a7.35,7.35,0,0,0,3.45-3c1-1.84.8-3.88.63-5.89-.78-9.27-1.39-18.56-2.36-27.8a39.86,39.86,0,0,0-2.71-11.77A31,31,0,0,0,572,202c-2.33-2.44-4.82-4.87-6.24-8-1.78-3.9-.93-8.28-.58-12.37a28,28,0,0,0-1.58-11.89c-1.25-3.54-2.87-7-3.53-10.71a12.61,12.61,0,0,1,.19-5.4l-1,1.05c5.75-2.13,12-4.59,15.92-9.56,4.87-6.17,3.67-14.71,3-22-.46-4.82-1.17-9.6-2.09-14.35-.37-1.89-3.26-1.09-2.89.8Z"/><path d="M703.42,317c1.84-6.58,1.59-13.42,1.24-20.17-.18-3.5-.38-7-.28-10.52a34.3,34.3,0,0,1,.37-4.75,9.51,9.51,0,0,1,2-4.39c2-2.64,2.37-6,2.89-9.19.56-3.46,1-7,1.19-10.45a106.69,106.69,0,0,0-.82-21.28c-.95-7-2.47-13.81-3.46-20.75a87.28,87.28,0,0,1-.4-21.12c.7-7.06,1.93-14.06,2.45-21.14.21-2.78.59-5.74-.56-8.37-.92-2.09-3-3.54-5.29-2.49-1.18.55-1.92,2-3.2,2.27-1.47.31-3-.91-4-1.9-2.15-2.28-3.6-5-6.76-6.08-1.69-.55-3.51-.46-5.23-.87a10.87,10.87,0,0,1-4.39-2.71l-9.29-7.91a1.52,1.52,0,0,0-2.56,1.06A23.84,23.84,0,0,1,661,163.71c-2.34,2.46-5.17,4.26-6.31,7.62-1,3.1-.5,6.47-.06,9.63s.74,6.09-.23,9.11A15.88,15.88,0,0,1,649.8,197a15,15,0,0,1-7.4,3.66c-3.22.55-6.47,0-9.48,1.57-2.46,1.31-4.29,3.52-6.19,5.5-1.69,1.75-3.56,3.6-6.16,3.47l1.5,1.5a107.17,107.17,0,0,0-1.58-25.79,105.47,105.47,0,0,0-3.1-12.49c-1-3.13-1.87-8.24-5.84-8.74-1.67-.21-3.16.18-4.65-.82a9.06,9.06,0,0,1-2.82-3.6c-1.71-3.47-2.33-7.67-2.65-11.49a50.19,50.19,0,0,1,.71-13.12,10.1,10.1,0,0,0-.11-5.48c-.68-1.78-2.28-2.88-3.17-4.53-1.09-2-1.43-4.55-2-6.77l-1.82-7.52-3.7-15.28a1.51,1.51,0,0,0-1.44-1.1L584,96a6.25,6.25,0,0,0-2.73.23c-.73.43-1.15,1.6-1.57,2.28a78.69,78.69,0,0,1-6.43,9c-1.22,1.48.89,3.62,2.12,2.12a85.21,85.21,0,0,0,7.94-11.38l-1.3.74,7.89-.1-1.45-1.1c2.14,8.84,4.17,17.72,6.42,26.53a13.58,13.58,0,0,0,2.39,5.27,21.71,21.71,0,0,1,1.63,2,4.37,4.37,0,0,1,.52,2.75c-.15,2-.67,4-.89,6a48.53,48.53,0,0,0-.29,6.6,48,48,0,0,0,1.93,12.54c.9,3,2.42,6.06,5.06,7.88a7.5,7.5,0,0,0,4.39,1.28c.89,0,1.87-.2,2.53.53a6.77,6.77,0,0,1,1.05,2.28,102,102,0,0,1,3.57,12.36,103.87,103.87,0,0,1,2.27,28.89,1.52,1.52,0,0,0,1.5,1.5c5.47.26,8.4-5.09,12.09-8.17a8.36,8.36,0,0,1,3.33-1.79,35.3,35.3,0,0,1,5.54-.47,17.49,17.49,0,0,0,8.44-3.09A18.53,18.53,0,0,0,658,185.36c-.08-3.47-1.06-6.88-1-10.36a8.18,8.18,0,0,1,1.55-4.83,37,37,0,0,1,3.77-3.64,26.79,26.79,0,0,0,8-20.3l-2.56,1.06,8.17,7c2.41,2.05,4.63,4.11,7.87,4.62a23.61,23.61,0,0,1,4.19.67,7.58,7.58,0,0,1,3.18,2.54c1.79,2.17,3.39,4.49,6.24,5.33a5.34,5.34,0,0,0,3.57-.12,5.65,5.65,0,0,0,1.63-1.06c.41-.36.89-1.06,1.45-1.18,1.78-.4,1.73,3.84,1.69,4.79-.26,7-1.41,14-2.24,20.92a92.71,92.71,0,0,0-.48,20.86c.71,6.79,2.12,13.48,3.25,20.21a114.14,114.14,0,0,1,1.71,20.63c-.06,3.53-.29,7.06-.7,10.57a60.2,60.2,0,0,1-1.75,10c-.54,1.79-1.91,3-2.74,4.57a13.56,13.56,0,0,0-1.23,4.81,72.55,72.55,0,0,0-.13,11.13c.34,7.56,1.09,15.26-1,22.65a1.5,1.5,0,0,0,2.89.8Z"/><path d="M610.74,250.33a39.61,39.61,0,0,1,28.1-18.39c3.2-.45,6.42-.71,9.44-1.95a25.22,25.22,0,0,0,7.14-4.64c4.32-3.86,7.65-8.67,11.81-12.69C672.09,208,678.12,204,685,203.2l-1.44-1.9c-.47,3.18-2.52,5.67-4.13,8.34s-2.67,5.54-2.18,8.67c.88,5.65,6.07,9.43,9.48,13.58a16,16,0,0,1,3.69,9c.42,4.33.58,8.7.86,13l.85,13.3.2,3.2a9,9,0,0,1,.14,2.92c-.2.58-.94.6-1.48.8a5.45,5.45,0,0,0-1.65,1c-2.06,1.75-2.37,4.65-2.69,7.15-.27,2.08-.36,5-2.54,6-1.75.8-.23,3.39,1.52,2.59,4.79-2.19,3.06-8.39,4.86-12.32a3.18,3.18,0,0,1,2.28-1.77,3.63,3.63,0,0,0,2.7-3.48,54.92,54.92,0,0,0-.36-6.27l-.44-6.89-.86-13.55c-.26-4.05-.23-8.34-1.9-12.12-2.41-5.44-7.84-8.65-10.68-13.77-1.63-2.94-1.27-5.91.35-8.78,1.79-3.19,4.32-6.07,4.87-9.81.12-.84-.37-2-1.45-1.9a33.05,33.05,0,0,0-16.81,7.65c-4.79,3.9-8.39,8.88-12.67,13.28a28.16,28.16,0,0,1-6.68,5.32c-3,1.62-6.33,2-9.68,2.45a43,43,0,0,0-16.83,5.83,42.4,42.4,0,0,0-14.13,14.09c-1,1.65,1.58,3.16,2.59,1.51Z"/><path d="M740.43,141.15a118.67,118.67,0,0,0,29.71-.79l-1.89-1.45a241.06,241.06,0,0,1-.37,65.06q-1.15,8.13-2.88,16.16c-1.11,5.17-2.68,10.4-2,15.74.3,2.49.92,4.91,1.35,7.38a37.09,37.09,0,0,1,.42,8.29c-.27,5.42-1,10.85-1.73,16.22a126,126,0,0,1-3,15.8,77.1,77.1,0,0,1-2.37,7.42,54.71,54.71,0,0,0-2.5,7.34,16.86,16.86,0,0,0,0,7.48c.49,2.22,1.11,4.34.83,6.63-.45,3.78-2.46,7.21-4.18,10.53s-3.46,6.82-3.79,10.63c-.38,4.27,1.59,8,3.82,11.44a30.58,30.58,0,0,1,3.19,5.69,18.46,18.46,0,0,1,.94,6.35c0,4.16-.48,8.56,1.35,12.45a15.55,15.55,0,0,0,4.1,4.78,9,9,0,0,1,3.13,5.45c.73,4.2,0,8.55,2.07,12.47,1.94,3.64,5.67,5.95,9.33,7.6a62.41,62.41,0,0,0,11.61,4c7.58,1.74,16.47,1.81,22.39-4,1.57-1.54,2.72-3.45,4.24-5,1.73-1.82,3.91-2.35,6.14-3.32,4.2-1.82,6.55-6.08,8.15-10.16,3.42-8.73,2.6-18.46,1.8-27.58-.21-2.35-.42-4.7-.59-7.06a23.11,23.11,0,0,1,.15-7.19c.61-2.43,2.36-3.64,4-5.36a10,10,0,0,0,2.65-5.69,58,58,0,0,0,.31-7.46l.15-8.71.29-16.79.58-34.2.15-8.39a39.89,39.89,0,0,0-.28-7.41c-.45-2.63-2-4.56-2.94-7s-.66-5.51-.74-8.16l-1-34-1-34c-.15-5.18-1-10.68,2.49-14.95,1.44-1.74,3.06-3.3,4.43-5.09a31.49,31.49,0,0,0,3.7-6.15,33.88,33.88,0,0,0,3-12.94l-1.5,1.5c5.07.2,5.35,8.36,5.63,11.92q.84,10.74,1.2,21.5c0,.87.95,1.83,1.9,1.44,2.5-1,5,.44,6.37,2.62,1.48,2.43,1.83,5.39,2.29,8.15,1.1,6.6,2.19,13.2,3,19.85a162.93,162.93,0,0,1,1.3,19.75,162.84,162.84,0,0,1-1.47,19.6c-.8,6.5-1.75,13-2.3,19.5a122.66,122.66,0,0,0-.06,19.64c.51,6.58,1.32,13.13,1.71,19.71s.5,13.27.46,19.9c0,3.27-.07,6.54-.13,9.81a90.49,90.49,0,0,1-.33,9.61c-.4,3-2,4.8-4,6.93a11.58,11.58,0,0,0-3.37,6.44c-.39,2.8,0,5.61-1.07,8.3s-2.7,5.18-3.62,8c-1.81,5.54-1.79,11.5-1.45,17.26.57,9.84,2.22,20.65-3,29.63a16.79,16.79,0,0,1-4.22,4.93c-2,1.53-4.52,2.2-6.46,3.8-2.11,1.74-2.7,4.33-3.82,6.69a17,17,0,0,1-4.94,5.9,52.36,52.36,0,0,1-15,7.88c-5.37,1.88-11.27,2.88-16.78,1-2.7-.91-5-2.72-7.68-3.64a17.24,17.24,0,0,0-8.88-.15,61.25,61.25,0,0,1-8.92,1.48,27.73,27.73,0,0,1-16.23-4.5c-1.63-1.05-3.13,1.55-1.51,2.59a30.83,30.83,0,0,0,16.44,4.93,41.12,41.12,0,0,0,9-1.2c3.22-.69,6.6-1.36,9.77-.07,2.8,1.14,5.21,2.93,8.16,3.76a23.47,23.47,0,0,0,8.51.69c6-.55,11.61-2.78,16.88-5.49,4.8-2.47,9.77-5.38,12.77-10,1.46-2.25,1.85-5.35,3.75-7.28a11.91,11.91,0,0,1,3.42-2,19.63,19.63,0,0,0,3.3-2c7.72-5.95,9.4-16.89,9.07-26-.23-6.17-1.1-12.32-.84-18.51a32.86,32.86,0,0,1,1.55-9.07c1-2.87,2.73-5.38,3.72-8.24s.42-5.89,1.06-8.83c.58-2.67,2.78-4.27,4.44-6.26,4-4.76,3.06-11.62,3.17-17.41a357.56,357.56,0,0,0-1.42-41.53,150.7,150.7,0,0,1-1-20.59c.27-6.84,1.15-13.64,2-20.42s1.76-13.59,2-20.44a144.55,144.55,0,0,0-.8-20.38c-.71-6.82-1.75-13.6-2.86-20.36-.88-5.36-1.13-12.45-6.11-15.82a7.43,7.43,0,0,0-6.89-1l1.9,1.45c-.28-8.26-.59-16.58-1.48-24.79-.52-4.88-2.48-11.4-8.35-11.63a1.51,1.51,0,0,0-1.5,1.5,30.31,30.31,0,0,1-3.67,13.49,29.54,29.54,0,0,1-3.91,5.55,40.36,40.36,0,0,0-4.29,5.13c-2.62,4.17-2,9.34-1.83,14l.48,16.83,1,33.35.47,16.52c.08,2.72,0,5.5.31,8.21.27,2.55,1.34,4.46,2.48,6.69a15.31,15.31,0,0,1,1.27,7.2c0,2.75-.09,5.5-.14,8.25l-.28,16.47-.57,33.27c-.09,5.58-.17,11.15-.28,16.73,0,2.32-.13,4.83-1.7,6.7-1.35,1.59-3.14,2.72-4.16,4.6-2.15,4-1.33,9-1,13.28.39,4.64.88,9.27,1,13.92a47.71,47.71,0,0,1-1.26,13.74c-1.05,4-3,9.2-6.89,11.24-2.09,1.11-4.41,1.49-6.32,3a27.57,27.57,0,0,0-4.19,4.7,15.28,15.28,0,0,1-10,5.6,31.22,31.22,0,0,1-11.85-1,55.47,55.47,0,0,1-11.67-4.26c-3.72-1.91-6.83-4.54-7.59-8.83-.71-4.07.06-8.41-2-12.19-1-1.88-2.66-3.12-4.18-4.54a9.32,9.32,0,0,1-2.89-5.48c-.72-4.2.15-8.52-.54-12.75s-3.34-7.56-5.47-11.16a12.74,12.74,0,0,1-1.45-11c2.25-7,8.16-13.15,7.27-21-.29-2.5-1.3-4.9-1.31-7.43a22,22,0,0,1,1.81-7.6,99.58,99.58,0,0,0,4.47-14.6c1.07-5,1.78-10.16,2.4-15.27a127,127,0,0,0,1.39-15.8,41.14,41.14,0,0,0-.85-7.75,41,41,0,0,1-1.14-7.46c-.09-5.34,1.73-10.68,2.77-15.88a243,243,0,0,0,4.2-63.35q-.51-7.76-1.51-15.45a1.55,1.55,0,0,0-1.9-1.45,115.23,115.23,0,0,1-28.92.69c-1.92-.19-1.91,2.81,0,3Z"/><path d="M751,427c-7.65-1.65-12.6-8.32-15.67-15.1-4-8.73-5.3-18.24-5.56-27.74a35.19,35.19,0,0,0-.79-7.31,47.64,47.64,0,0,0-2.21-6.45,37.27,37.27,0,0,1-3.15-13.63c-.09-5.06.3-10.15.52-15.21l.64-15.34.66-15.62a124.22,124.22,0,0,1,1.23-15.29c.79-4.8,2.22-9.46,3.27-14.2A138.33,138.33,0,0,0,732.2,267c2.24-19.52,1.12-39.38,4.84-58.74.92-4.81,2.34-9.47,3.56-14.21a54,54,0,0,0,1.59-14.88c-.22-10.32-1.16-20.66-1.78-31l-.47-7.73c-.12-1.92-3.12-1.94-3,0q1,15.88,1.93,31.77a81.39,81.39,0,0,1,0,15.53c-.66,5-2.43,9.81-3.61,14.71-4.64,19.38-3.76,39.45-5.47,59.17-.44,5-1,10-2,15s-2.3,9.59-3.36,14.41c-2.19,10-2,20.44-2.47,30.63-.44,10.45-1,20.9-1.31,31.36a38.87,38.87,0,0,0,1.76,14.38c1.57,4.47,3.77,8.71,4.19,13.49.44,5,.3,9.93,1,14.89A70.57,70.57,0,0,0,731.27,410c2.62,7,6.84,14.25,13.61,18a19.64,19.64,0,0,0,5.29,2c1.88.4,2.68-2.49.79-2.9Z"/><path d="M753.05,192.13c-.61,5.12-2.65,10-3.31,15.07a87.56,87.56,0,0,0-.13,16.11c.11,1.92,3.11,1.93,3,0-.29-5.36-.62-10.81.13-16.15.73-5.1,2.7-9.91,3.31-15,.23-1.91-2.77-1.9-3,0Z"/><path d="M748.89,239.85a137.46,137.46,0,0,1-.44,22.5c-.19,1.92,2.81,1.9,3,0a137.46,137.46,0,0,0,.44-22.5c-.12-1.92-3.12-1.94-3,0Z"/><path d="M741.77,282.79v7a1.5,1.5,0,0,0,3,0v-7a1.5,1.5,0,1,0-3,0Z"/><path d="M742.78,289.71c-3.55,1.57-4.55,5.75-5,9.23h2.89a62.82,62.82,0,0,1-1.52-7.68c-.07-.6-.36-1.85.18-2.31.34-.28,1-.27,1.42-.38a6.66,6.66,0,0,0,1.28-.5,7.21,7.21,0,0,0,3.06-9.38c-.84-1.74-3.43-.22-2.59,1.52a4.06,4.06,0,0,1-.54,4.05,3.85,3.85,0,0,1-1.53,1.27c-.92.39-1.93.36-2.78.94-1.86,1.26-1.66,3.61-1.39,5.56a65.25,65.25,0,0,0,1.52,7.71c.35,1.33,2.68,1.52,2.89,0,.38-2.7.87-6.2,3.66-7.44a1.51,1.51,0,0,0,.54-2.05,1.53,1.53,0,0,0-2.05-.54Z"/><path d="M751.65,259.57a27.75,27.75,0,0,1-2.42-14.23,1.5,1.5,0,0,0-3,0,30.71,30.71,0,0,0,2.83,15.74,1.5,1.5,0,1,0,2.59-1.51Z"/><path d="M754.53,215.4A43.43,43.43,0,0,0,756.39,192c-.29-1.54-2.47-1.32-2.89,0a41.89,41.89,0,0,0,.7,27.28c.68,1.79,3.58,1,2.9-.79a39.23,39.23,0,0,1-.71-25.69H753.5a40.64,40.64,0,0,1-1.86,21.81c-.67,1.81,2.23,2.6,2.89.8Z"/><path d="M738.78,363.15c.83,3.45,3.67,5.55,6.1,7.88a15.78,15.78,0,0,1,4.89,10.23c.18,2.19.15,4.39.39,6.58a58.11,58.11,0,0,0,1.15,6.54,68.6,68.6,0,0,0,3.32,11.23c1.42,3.35,3.6,6.3,7.16,7.5a1.51,1.51,0,0,0,1.85-1.84c-1.06-3.85-3.33-7.09-5.57-10.32a61.13,61.13,0,0,1-5.88-10.7c-3.54-8.15-7.1-16.41-8.78-25.18-.36-1.89-3.25-1.09-2.89.8,1.67,8.73,5.22,16.93,8.72,25.06A62.07,62.07,0,0,0,755,401.79c2.23,3.24,4.67,6.42,5.73,10.27l1.85-1.84c-2.79-.94-4.39-3.65-5.41-6.25a72.7,72.7,0,0,1-3.08-10.86,46.64,46.64,0,0,1-1-6.22c-.19-2.11-.14-4.23-.37-6.33a18.65,18.65,0,0,0-4-9.82c-2.22-2.77-6.14-4.74-7-8.38-.45-1.88-3.34-1.09-2.89.79Z"/><path d="M748.2,374.79a1.5,1.5,0,0,0,0-3,1.5,1.5,0,0,0,0,3Z"/><path d="M746.74,373.3a37.14,37.14,0,0,0,.38,9.12,1.5,1.5,0,0,0,1.84,1.05,1.54,1.54,0,0,0,1-1.85c-.12-.73-.17-1.14-.25-1.94s-.11-1.4-.13-2.1a35.93,35.93,0,0,1,.11-4.28,1.5,1.5,0,0,0-1.5-1.5,1.54,1.54,0,0,0-1.5,1.5Z"/><path d="M738.24,328.81a37.64,37.64,0,0,0-1-10.47,1.5,1.5,0,0,0-2.9.79,34.21,34.21,0,0,1,.94,9.68,1.5,1.5,0,0,0,3,0Z"/><path d="M847.93,213.65A110.74,110.74,0,0,0,849.54,241c1.46,8.66,3.2,17.37,2.66,26.21a37.84,37.84,0,0,1-3.2,13.57c-.81,1.74,1.78,3.27,2.59,1.51,7.8-16.92,1-35.11-.59-52.54a93.74,93.74,0,0,1-.07-16.07c.15-1.92-2.85-1.91-3,0Z"/><path d="M924.77,172.79h-6a1.5,1.5,0,0,0,0,3h6a1.5,1.5,0,0,0,0-3Z"/><path d="M919.77,227.79v3a1.54,1.54,0,0,0,.44,1.07,1.49,1.49,0,0,0,1.06.43,1.51,1.51,0,0,0,1.06-.43,1.59,1.59,0,0,0,.44-1.07v-3a1.58,1.58,0,0,0-.44-1.06,1.56,1.56,0,0,0-1.06-.44,1.54,1.54,0,0,0-1.06.44,1.58,1.58,0,0,0-.44,1.06Z"/><path d="M912.77,275.79v4a1.5,1.5,0,0,0,3,0v-4a1.5,1.5,0,1,0-3,0Z"/><path d="M966.54,187.07a26.84,26.84,0,0,0,8.8,9.42c1.53,1.06,3.25,2.23,3.95,4,.83,2.16.23,4.63-.26,6.79-.42,1.88,2.48,2.69,2.9.8a17.75,17.75,0,0,0,.53-7.35,9.42,9.42,0,0,0-3.7-5.48c-1.73-1.37-3.64-2.48-5.26-4a22,22,0,0,1-4.37-5.73c-.91-1.71-3.5-.19-2.59,1.51Z"/><path d="M953.66,157.3c-.73-7.37-8-11.73-13.32-15.92l-20.81-16.55-5.07-4a18.85,18.85,0,0,0-4.62-3,7.65,7.65,0,0,0-2.22-.52c-.82-.06-2,.25-2.72-.35-1.21-1.08-1-4.14-1.12-5.59a242,242,0,0,1-1.13-26.24,244.75,244.75,0,0,1,2.09-29.39l-2.56,1.06,15.2,17.05c4.23,4.74,8.48,10,14.42,12.61,3,1.32,6.19,1.78,9.28,2.75a26.77,26.77,0,0,1,9,5.29,118.5,118.5,0,0,1,14.13,13.85q3.45,4,6.53,8.25c1.8,2.51,3.39,5.18,5.29,7.61a16.89,16.89,0,0,0,6.81,5.38,33.81,33.81,0,0,0,8.3,2,44.62,44.62,0,0,1,8.26,1.66,14.57,14.57,0,0,1,7.17,5.59,55.36,55.36,0,0,1,4.31,7.85c1.58,3.26,3.1,6.55,4.5,9.89a101.73,101.73,0,0,1,6.24,19.93,113.09,113.09,0,0,1,1.56,22.13c-.06,7.47-.3,14.94-.48,22.41-.17,7.24-.22,14.51-.73,21.74a82.47,82.47,0,0,1-3.92,21.13c-2.35,6.83-5.81,13.19-9.17,19.54-3.54,6.68-7,13.42-10.63,20-3.29,6-9.11,9.91-13.43,15.11a70.65,70.65,0,0,0-10.13,16.08c-2.76,6.08-4.58,12.51-6.63,18.84-3.71,11.4-9.43,24.33-21.76,28.51a19,19,0,0,1-8.06.92l1.44,1.1-3.21-14.8c-1-4.39-1.74-8.85-3.05-13.14A24.68,24.68,0,0,0,928,346c-1.21-1.26-2.85-2.48-4.7-2a3.74,3.74,0,0,0-2.72,3.6l1.9-1.44a11.13,11.13,0,0,1-5.59-5.4,13.31,13.31,0,0,1-1-7.22c.28-3.66.6-8.79-3.83-10a1.53,1.53,0,0,0-1.9,1.45,12.39,12.39,0,0,1-9,10.22l1.69.69c-6-13.66-2.18-29.09-1.12-43.32a46.23,46.23,0,0,0,.06-10.25c-.53-3.57-2.58-5.86-4.55-8.73-4.15-6.07-1.16-14.2.55-20.63,3.91-14.69,9-29.46,8.75-44.86s-6.15-30-4.46-45.52,8.12-32.48-.88-46.92c-1-1.63-3.61-.13-2.59,1.52,8.05,12.91,2.76,28.68.84,42.5a74.91,74.91,0,0,0,.45,22.47c1.21,7.61,3,15.16,3.52,22.87,1,15.56-4,30.55-8.05,45.36-1.74,6.4-4.45,13.87-2.67,20.54.86,3.23,3.15,5.38,4.83,8.15,1.91,3.14,1.56,7.05,1.39,10.57-.79,15.91-5.34,32.5,1.34,47.76a1.5,1.5,0,0,0,1.69.69A15.48,15.48,0,0,0,913.22,325l-1.89,1.44c1.93.54,1.81,3,1.77,4.65-.06,2.25-.47,4.49-.17,6.75a14.36,14.36,0,0,0,8.78,11.23c.95.4,1.86-.59,1.9-1.45.09-2.05,3,1.32,3.36,1.77a19.69,19.69,0,0,1,2.27,3.93,47.94,47.94,0,0,1,2.67,9c1.65,7.47,3.24,15,4.86,22.42a1.53,1.53,0,0,0,1.45,1.1c11.91,1.16,22-8.07,27.24-18,6.45-12.3,8.16-26.43,15.27-38.46a69.16,69.16,0,0,1,12.55-15.49,36.05,36.05,0,0,0,6.65-7.47c2-3.24,3.63-6.7,5.41-10.06,6.85-12.94,15-25.88,17.9-40.42a129.38,129.38,0,0,0,2.11-21.7c.24-7.67.38-15.35.56-23,.34-14.78.82-29.54-3.44-43.88a142.57,142.57,0,0,0-8-20.11c-2.57-5.42-5.12-11.55-10.26-15.05-4.93-3.34-11.13-3.13-16.73-4.38a15,15,0,0,1-8-4.18c-2.3-2.43-3.95-5.46-5.88-8.17a122.74,122.74,0,0,0-13-15.44q-3.54-3.55-7.37-6.82a38.1,38.1,0,0,0-8.34-5.8c-3.14-1.47-6.55-2-9.83-3a22.84,22.84,0,0,1-8.59-5.28c-5.27-4.89-9.84-10.66-14.62-16l-7.6-8.53c-1-1.09-2.41-.1-2.56,1.06a245.12,245.12,0,0,0-1.25,52.43c.18,2.13.37,4.26.62,6.38a8,8,0,0,0,1.29,4.08,4.48,4.48,0,0,0,3.61,1.66,8.44,8.44,0,0,1,2.79.33,12.52,12.52,0,0,1,3,2c7,5.49,13.87,11,20.81,16.54,3.81,3,7.65,6,11.43,9.1,2.88,2.34,6.2,5.2,6.59,9.14.19,1.91,3.19,1.93,3,0Z"/><path d="M944.49,311.47,936.67,285c-1.25-4.23-2.7-8.52-2.9-13-.21-4.64.46-9.32.56-13.95.21-9.17.34-18.28,1.16-27.42.4-4.52.84-9,1.35-13.54a45.34,45.34,0,0,1,2.95-12.7c1.81-4.28,4.1-8.35,4.32-13.1.25-5-1.57-9.94-3.34-14.58a1.5,1.5,0,0,0-2.94.4,59.32,59.32,0,0,0,4.51,31.42,11.26,11.26,0,0,0,1.81,3.11,10.59,10.59,0,0,0,3.33,2.05c1.58.85,2.29,2.68,3.15,4.15a7.88,7.88,0,0,0,3.86,3.72c2,.76,4.53-.14,6,1.85,1.28,1.79,1.57,4.26,2,6.34l2,8.68c1.29,5.68,2.9,11.39,3.77,17.15a20.19,20.19,0,0,1-.41,8.37,51.21,51.21,0,0,1-3.1,7.92c-2.27,4.93-4.56,10-7.9,14.27-3.05,3.95-6.85,7.29-9.57,11.5a18,18,0,0,0-2.72,6.53c-.2,1.18-.2,2.35-.3,3.54-.06.67-.1,1.82-.84,2-1.87.48-1.08,3.37.8,2.9,2.09-.53,2.79-2.5,3-4.44a21.52,21.52,0,0,1,1-5.91c1.68-4.22,5.14-7.54,8.11-10.86A57.41,57.41,0,0,0,965,278.37c2.43-5,5.28-10.26,6.19-15.77,1-5.81-.81-11.58-2.09-17.2l-4.05-17.83a15.52,15.52,0,0,0-2.3-6c-1.53-2-3.54-2.38-5.94-2.54-2.15-.14-3-1.58-4-3.31a11.31,11.31,0,0,0-3.54-4.38c-1.31-.82-2.64-1-3.49-2.42a26.06,26.06,0,0,1-1.76-4,57.8,57.8,0,0,1-2.62-9,56.82,56.82,0,0,1-.61-18.76l-3,.4c1.57,4.11,3.23,8.39,3.25,12.85,0,4.3-2,8.05-3.66,11.88-3.58,8.14-3.93,17.2-4.76,25.94-.86,9.15-1.2,18.25-1.33,27.42-.07,4.58-.46,9.13-.62,13.7a41.48,41.48,0,0,0,2,13c2.9,10,5.9,20,8.85,29.93.55,1.85,3.44,1.06,2.89-.8Z"/><path d="M972.11,146.61l7.9,6.45c2,1.67,4.26,3.37,5.66,5.65,1.67,2.74,1.47,6.09,1.62,9.18l.5,10a25.11,25.11,0,0,0,.36,4.24,8.12,8.12,0,0,0,2.06,3.65A53.45,53.45,0,0,1,995.6,192a41.67,41.67,0,0,1,6,15.59c1.39,7.43,1.26,15,1.17,22.58,0,1.93,3,1.93,3,0,.16-12.67.19-26.06-6.23-37.43a33.77,33.77,0,0,0-5-6.83,30.2,30.2,0,0,1-2.68-2.75c-1-1.32-1-2.9-1-4.46l-.51-10.28c-.16-3.12,0-6.51-1.19-9.44s-3.59-5.19-6-7.19c-3-2.44-5.92-4.84-8.88-7.26-1.49-1.21-3.62.9-2.13,2.12Z"/><path d="M989.3,245c4.91,2.38,5.16,8.84,3.61,13.39a58.36,58.36,0,0,1-4.41,8.89,44.11,44.11,0,0,0-3.84,9.23c-1.86,6.75-2.09,13.81-2.76,20.74a13.94,13.94,0,0,1-.8,4.34,4.41,4.41,0,0,1-3,2.32c-2.59.78-5.35.81-7.75,2.17-6.78,3.84-6.92,12.46-6.56,19.26.1,1.92,3.1,1.93,3,0-.31-5.79-.62-14.72,6.16-17.17,2.66-1,5.64-.81,8.12-2.27,2.85-1.68,3.43-4.73,3.75-7.77.73-7.1.88-14.34,2.87-21.25a46,46,0,0,1,4.25-9.6,43.35,43.35,0,0,0,4.26-9.32c1.5-5.53.25-12.82-5.38-15.55-1.73-.84-3.25,1.75-1.51,2.59Z"/><path d="M949.18,340.37l-1.24,6.82a1.53,1.53,0,0,0,1,1.84,1.52,1.52,0,0,0,1.85-1l1.24-6.82a1.53,1.53,0,0,0-1.05-1.84,1.51,1.51,0,0,0-1.84,1.05Z"/><path d="M1021.34,159c3.94-2.69,7.8-5.6,11.86-8.1a2.64,2.64,0,0,1,2.89-.29,10.59,10.59,0,0,0,2.67,1,7.56,7.56,0,0,0,4.89-1c3.27-1.8,5.47-5,8.59-7a24.6,24.6,0,0,1,10.75-3.46,73.33,73.33,0,0,1,12,0c3.08.18,6.57.47,9.18,2.31a4.39,4.39,0,0,1,2,3.41c.11,2.18-.35,4.08.62,6.15.85,1.85,2.25,3.37,3.13,5.21a22.16,22.16,0,0,1,1.74,5.92c.71,4.28.51,8.69.47,13l-.13,15a41.34,41.34,0,0,1-.2,7c-.4,2.09-1.91,3.63-3,5.37a25.53,25.53,0,0,0-3.41,11.7,103.23,103.23,0,0,0,0,13.51,51.51,51.51,0,0,0,2.75,13.73,57.38,57.38,0,0,1,3,13.7c.4,4.7.5,9.42,1.38,14.06.44,2.33,1.21,4.57,1.66,6.89a11.31,11.31,0,0,1-.56,6.41c-1.5,3.94-4,7.27-4.8,11.5-1.41,7.7,1.3,16.56-3.14,23.55a9.55,9.55,0,0,1-3.6,3.34l2.2.89c-1.82-5.11-4.45-11.34-10.24-12.87-6.57-1.74-12.24,3.71-15.08,9-1.67,3.16-2.85,6.57-4.63,9.68-.72,1.26-1.54,2.83-2.91,3.47-1.65.78-3.66.38-5.37,1-6.08,2.21-4.5,10-8.49,13.87-1,1-2.39,1.7-3.65.76a8.69,8.69,0,0,1-2-2.81c-1.18-2.1-2.62-4.45-5.36-4.29a1.54,1.54,0,0,0-1.5,1.5,8.25,8.25,0,0,1-6.87,7.29c-2.14.29-4.27-.33-6.22.9-.75.47-1.36,1.31-2.2,1.62a2.52,2.52,0,0,1-2.45-.79c-1.65-1.46-2.48-3.64-3.16-5.68a29.78,29.78,0,0,1-1.43-6.78c-.43-5,.92-9.79,1.25-14.77.29-4.41-.71-9.37-4.38-12.23-1.5-1.17-3.64.94-2.12,2.13,3.9,3,3.85,8.32,3.21,12.77-.39,2.69-.93,5.37-1.05,8.09a33.23,33.23,0,0,0,.61,7.71c.83,4.26,2.52,10.24,6.89,12.18,2.25,1,4.08.15,5.86-1.29s4.48-.57,6.66-1.11a11.29,11.29,0,0,0,8.4-10l-1.5,1.5c1.74-.1,2.59,2.54,3.32,3.76,1.23,2,3,3.92,5.6,3.79,2.77-.14,5-2.47,6.23-4.76,1.34-2.46,1.54-5.34,2.78-7.83a5.31,5.31,0,0,1,2.15-2.48c1.59-.8,3.51-.45,5.19-1,3.11-1,4.78-4.18,6.12-6.9,2.72-5.51,4.81-13.18,11.39-15.28,6.83-2.18,10.25,5.48,12.08,10.61a1.52,1.52,0,0,0,2.2.9c7.3-3.89,7.8-13.06,7.72-20.33,0-4.73.05-9.3,2.19-13.63,1.89-3.82,4.25-7.53,3.89-12a43.77,43.77,0,0,0-1.53-7.06,47.35,47.35,0,0,1-1.13-7.3c-.44-4.92-.51-9.89-1.47-14.76-.92-4.7-3-9.08-4-13.76s-1-9.87-1.07-14.79c0-4.28.12-8.67,1.62-12.73a27.71,27.71,0,0,1,3.32-5.66,11.27,11.27,0,0,0,1.81-6.08c.16-5.09.09-10.19.14-15.28,0-4.81.25-9.66,0-14.46-.27-4.24-1-8.54-3.2-12.25-1-1.78-2.74-3.4-2.78-5.56s.33-3.91-.54-5.84c-1.38-3-4.76-4.5-7.83-5.2a54,54,0,0,0-11.22-.92,44.5,44.5,0,0,0-12.22,1.28,24,24,0,0,0-10.08,5.65c-2.31,2.14-5.5,6-9,4.47a8.56,8.56,0,0,0-3.06-1.05,5.73,5.73,0,0,0-3.06.85c-2.1,1.17-4,2.73-6,4.09l-6.18,4.23c-1.58,1.09-.09,3.69,1.51,2.59Z"/><path d="M975,337.14c6.36,3.71,8,11.43,8.33,18.26.2,4-.38,8,0,12,.46,4.89,3.88,8.41,6.8,12.08l11,13.8a1.52,1.52,0,0,0,2.51-.66c.79-3.53,1.57-7.47,4-10.26s5.85-3.79,9-1.84c3.41,2.09,6.53,4.86,9.72,7.28l10.55,8c1.28,1,2.69-.85,2-2-2.32-4.38.91-9.43,4.1-12.4,3.46-3.24,7.75-5.54,10.79-9.24a19.88,19.88,0,0,0,3.4-6.35c.79-2.31,1.43-4.76,3.07-6.65,2.39-2.75,5.86-4.28,8.94-6.09,3.43-2,6.77-4.59,7.6-8.71l-3-.4a60.8,60.8,0,0,0,11.92,30.79,1.54,1.54,0,0,0,2.06.53c2.34-1.42,3.11-3.87,3.49-6.45s.39-5.61,2.6-7.32a29.78,29.78,0,0,1,4.09-2.2,19,19,0,0,0,3.86-2.79,24.12,24.12,0,0,0,5.5-7.86c3-6.59,3.47-13.74,3.83-20.87a85.5,85.5,0,0,1,1.31-13.07c.81-3.9,2.1-7.67,3.26-11.47,2.44-8,3.51-16.21,4.25-24.52.75-8.51,1.44-17,2.16-25.54s1.28-17,2.18-25.48a38.32,38.32,0,0,1,3.15-11.75,107.25,107.25,0,0,0,4.49-10.32c2.86-8.7.83-17.94.62-26.86a114.61,114.61,0,0,1,2.84-28,1.51,1.51,0,0,0-2.74-1.16,2.64,2.64,0,0,0,2.72,3.84c2.54-.34,3.59-3.64,4.09-5.75,1.29-5.53-.39-11.24-2.51-16.32-2.42-5.82-5.29-11.46-8-17.15s-5-11.31-8.09-16.63c-2.58-4.45-6-8.59-10.85-10.63-4.36-1.84-9.68-2-13.61,1s-5.09,8-8.3,11.52c-3.55,3.92-9.26,4.14-14.09,5.31a25.39,25.39,0,0,0-19.3,23l2.56-1.06c-3.67-4.14-7.23-8.4-11-12.43-1.38-1.47-3.08-2.84-5.18-3-2.41-.15-4.42,1.28-6.29,2.63l-27.21,19.8c-1.54,1.12,0,3.73,1.52,2.59l24.78-18c1.77-1.29,3.74-3.21,5.89-3.84s3.69,1.17,5,2.62c3.49,3.9,6.94,7.84,10.41,11.75a1.51,1.51,0,0,0,2.56-1.06,22.38,22.38,0,0,1,13.57-19.06c4-1.64,8.47-1.79,12.57-3.19a16.44,16.44,0,0,0,9.09-7.85c2-3.44,3.77-7.49,7.93-8.69s8.64.39,11.78,3c3.62,3.06,5.91,7.33,8,11.53,2.35,4.86,4.61,9.76,6.92,14.63,2.56,5.44,5.45,10.83,7.5,16.49a27.68,27.68,0,0,1,1.84,8.07,15.05,15.05,0,0,1-.33,4.13,12.9,12.9,0,0,1-.51,1.71,7.89,7.89,0,0,1-.46,1,2.18,2.18,0,0,1-.24.42.94.94,0,0,0-.11,1.07l-2.74-1.16a118.16,118.16,0,0,0-3,24.42c-.06,4.07.13,8.12.45,12.17a75.35,75.35,0,0,1,.33,11.92c-.63,7.85-5.4,14.14-7.62,21.5a57.83,57.83,0,0,0-1.78,11.78q-.54,6.35-1.07,12.67l-2.14,25.34c-.7,8.3-1.19,16.68-2.87,24.85-1.62,7.82-4.88,15.21-5.93,23.16s-.44,16-2.32,23.72a28.92,28.92,0,0,1-4.28,9.9,20.2,20.2,0,0,1-8,6.35A9.52,9.52,0,0,0,1089,365c-.43,2.4-.16,6.19-2.54,7.63l2,.54A57.89,57.89,0,0,1,1077,343.89c-.15-1.55-2.59-2.18-3-.4-.75,3.74-4.08,5.71-7.16,7.46-3.28,1.87-6.81,3.66-9.17,6.71a22.62,22.62,0,0,0-3.11,6.81,17,17,0,0,1-3.7,6.53c-3.43,3.63-8.06,5.93-11.34,9.71-3.45,4-5.77,9.52-3.11,14.53l2-2.05-12-9.1-6-4.55a13.8,13.8,0,0,0-5.34-2.93c-3.65-.76-7.4,1-9.77,3.77-2.76,3.2-3.77,7.39-4.68,11.41l2.51-.66-9.86-12.4c-1.59-2-3.26-3.94-4.75-6a11.54,11.54,0,0,1-2.37-7c0-7.58.68-15.22-2.32-22.41a17.79,17.79,0,0,0-7.4-8.72,1.5,1.5,0,0,0-1.52,2.59Z"/><path d="M1108.57,172.92a150.15,150.15,0,0,1,2.37,23.75c0,1.94,0,3.89,0,5.83a44.66,44.66,0,0,1-.23,5.67c-.24,1.51-1.29,1.8-2.6,2.19a8.29,8.29,0,0,0-3.65,1.88,1.5,1.5,0,0,0,2.12,2.12c1-1,2.46-1.07,3.66-1.55a5,5,0,0,0,3.17-3.05,20.86,20.86,0,0,0,.49-5.8c.06-2.11.08-4.21,0-6.32a153.86,153.86,0,0,0-2.49-25.52c-.34-1.9-3.23-1.1-2.89.8Z"/><path d="M590.26,183.44A40,40,0,0,0,592,197.06a49.75,49.75,0,0,0,6.16,12.33,21,21,0,0,1,2.92,5.89c.63,2.4.34,4.91.48,7.37.24,4.38,1.7,8.52,3.13,12.63,1.59,4.53,3.32,9.34,2.61,14.22-.28,1.89,2.61,2.71,2.89.8,1.33-9-4-16.78-5.39-25.42-.4-2.43-.19-4.89-.36-7.34a16.78,16.78,0,0,0-1.8-6.46c-2.07-4.12-5-7.63-6.75-12a37.78,37.78,0,0,1-2.58-15.67c.1-1.93-2.9-1.93-3,0Z"/></g></g></svg>